ISO-10303-21;
HEADER;
FILE_DESCRIPTION (( 'STEP AP214' ),
    '1' );
FILE_NAME ('mold_base.STEP',
    '2026-09-09T13:49:16',
    ( '' ),
    ( '' ),
    'SwSTEP 2.0',
    'SolidWorks 2026',
    '' );
FILE_SCHEMA (( 'AUTOMOTIVE_DESIGN' ));
ENDSEC;

DATA;
#1 = APPLICATION_PROTOCOL_DEFINITION ( 'draft international standard', 'automotive_design', 1998, #493 ) ;
#2 = FACE_OUTER_BOUND ( 'NONE', #543, .T. ) ;
#3 = VECTOR ( 'NONE', #504, 1000.000000000000000 ) ;
#4 = VECTOR ( 'NONE', #418, 1000.000000000000000 ) ;
#5 = PLANE ( 'NONE',  #645 ) ;
#6 = CARTESIAN_POINT ( 'NONE',  ( 99.00000000000000000, -4.000000000000000000, 4.000000000000001776 ) ) ;
#7 = DIRECTION ( 'NONE',  ( 0.000000000000000000, -1.000000000000000000, 0.000000000000000000 ) ) ;
#8 = AXIS2_PLACEMENT_3D ( 'NONE', #108, #45, #485 ) ;
#9 = CARTESIAN_POINT ( 'NONE',  ( 99.00000000000000000, -2.000000000000000000, 6.000000000000000000 ) ) ;
#10 = CARTESIAN_POINT ( 'NONE',  ( 0.000000000000000000, -5.999999999999999112, 8.000000000000001776 ) ) ;
#11 = LINE ( 'NONE', #228, #509 ) ;
#12 = DIRECTION ( 'NONE',  ( 0.000000000000000000, 1.000000000000000000, 0.000000000000000000 ) ) ;
#13 = VECTOR ( 'NONE', #185, 1000.000000000000000 ) ;
#14 = FACE_OUTER_BOUND ( 'NONE', #703, .T. ) ;
#15 = DIRECTION ( 'NONE',  ( -1.000000000000000000, -0.000000000000000000, -0.000000000000000000 ) ) ;
#16 = ORIENTED_EDGE ( 'NONE', *, *, #712, .F. ) ;
#17 = AXIS2_PLACEMENT_3D ( 'NONE', #299, #82, #691 ) ;
#18 = DIRECTION ( 'NONE',  ( 0.000000000000000000, 2.168404344971009854E-16, -1.000000000000000000 ) ) ;
#19 = ADVANCED_FACE ( 'NONE', ( #105 ), #115, .F. ) ;
#20 = DIRECTION ( 'NONE',  ( 0.000000000000000000, 0.000000000000000000, 1.000000000000000000 ) ) ;
#21 = LINE ( 'NONE', #290, #521 ) ;
#22 = DIRECTION ( 'NONE',  ( 0.000000000000000000, -1.000000000000000000, 4.336808689942017243E-16 ) ) ;
#23 = VERTEX_POINT ( 'NONE', #500 ) ;
#24 = DIRECTION ( 'NONE',  ( 0.000000000000000000, 1.000000000000000000, 0.000000000000000000 ) ) ;
#25 = CARTESIAN_POINT ( 'NONE',  ( 99.00000000000000000, 0.000000000000000000, -4.000000000000000000 ) ) ;
#26 = ORIENTED_EDGE ( 'NONE', *, *, #455, .T. ) ;
#27 = CARTESIAN_POINT ( 'NONE',  ( 0.000000000000000000, 0.000000000000000000, 0.000000000000000000 ) ) ;
#28 = VECTOR ( 'NONE', #386, 1000.000000000000000 ) ;
#29 = CARTESIAN_POINT ( 'NONE',  ( 0.000000000000000000, 0.000000000000000000, 0.000000000000000000 ) ) ;
#30 = ORIENTED_EDGE ( 'NONE', *, *, #722, .F. ) ;
#31 = EDGE_CURVE ( 'NONE', #376, #296, #229, .T. ) ;
#32 = ORIENTED_EDGE ( 'NONE', *, *, #655, .F. ) ;
#33 = PLANE ( 'NONE',  #332 ) ;
#34 = VERTEX_POINT ( 'NONE', #614 ) ;
#35 = VECTOR ( 'NONE', #337, 1000.000000000000000 ) ;
#36 = EDGE_CURVE ( 'NONE', #597, #104, #460, .T. ) ;
#37 = CARTESIAN_POINT ( 'NONE',  ( 99.00000000000000000, 2.000000000000000000, 10.00000000000000000 ) ) ;
#38 = VECTOR ( 'NONE', #52, 1000.000000000000000 ) ;
#39 = ORIENTED_EDGE ( 'NONE', *, *, #89, .T. ) ;
#40 = ORIENTED_EDGE ( 'NONE', *, *, #310, .F. ) ;
#41 = LINE ( 'NONE', #462, #126 ) ;
#42 = CARTESIAN_POINT ( 'NONE',  ( 99.00000000000000000, 0.000000000000000000, 0.000000000000000000 ) ) ;
#43 = ORIENTED_EDGE ( 'NONE', *, *, #419, .T. ) ;
#44 = ORIENTED_EDGE ( 'NONE', *, *, #146, .T. ) ;
#45 = DIRECTION ( 'NONE',  ( -0.000000000000000000, 1.000000000000000000, 2.168404344971009608E-16 ) ) ;
#46 = ORIENTED_EDGE ( 'NONE', *, *, #252, .T. ) ;
#47 = VECTOR ( 'NONE', #617, 1000.000000000000000 ) ;
#48 = PLANE ( 'NONE',  #422 ) ;
#49 = DIRECTION ( 'NONE',  ( 0.000000000000000000, -1.000000000000000000, 0.000000000000000000 ) ) ;
#50 = VERTEX_POINT ( 'NONE', #557 ) ;
#51 = VERTEX_POINT ( 'NONE', #457 ) ;
#52 = DIRECTION ( 'NONE',  ( -0.000000000000000000, -0.000000000000000000, 1.000000000000000000 ) ) ;
#53 = ORIENTED_EDGE ( 'NONE', *, *, #578, .F. ) ;
#54 = DIRECTION ( 'NONE',  ( -1.000000000000000000, 0.000000000000000000, -0.000000000000000000 ) ) ;
#55 = EDGE_CURVE ( 'NONE', #204, #86, #70, .T. ) ;
#56 = DIRECTION ( 'NONE',  ( 0.000000000000000000, 0.000000000000000000, -1.000000000000000000 ) ) ;
#57 = LINE ( 'NONE', #346, #172 ) ;
#58 = CARTESIAN_POINT ( 'NONE',  ( 99.00000000000000000, -2.000000000000000000, -6.000000000000000000 ) ) ;
#59 = VECTOR ( 'NONE', #193, 1000.000000000000000 ) ;
#60 = DIRECTION ( 'NONE',  ( -0.000000000000000000, 1.000000000000000000, -0.000000000000000000 ) ) ;
#61 = EDGE_CURVE ( 'NONE', #309, #606, #57, .T. ) ;
#62 = CARTESIAN_POINT ( 'NONE',  ( 99.00000000000000000, 2.000000000000000000, -6.000000000000000000 ) ) ;
#63 = AXIS2_PLACEMENT_3D ( 'NONE', #369, #258, #590 ) ;
#64 = LINE ( 'NONE', #281, #598 ) ;
#65 = LINE ( 'NONE', #508, #681 ) ;
#66 = LINE ( 'NONE', #685, #659 ) ;
#67 = PLANE ( 'NONE',  #481 ) ;
#68 = EDGE_CURVE ( 'NONE', #235, #597, #622, .T. ) ;
#69 = CARTESIAN_POINT ( 'NONE',  ( 0.000000000000000000, -5.999999999999997335, -8.000000000000000000 ) ) ;
#70 = LINE ( 'NONE', #6, #654 ) ;
#71 = VECTOR ( 'NONE', #575, 1000.000000000000000 ) ;
#72 = EDGE_CURVE ( 'NONE', #91, #182, #291, .T. ) ;
#73 = LINE ( 'NONE', #81, #4 ) ;
#74 = UNCERTAINTY_MEASURE_WITH_UNIT (LENGTH_MEASURE( 1.000000000000000082E-05 ), #364, 'distance_accuracy_value', 'NONE');
#75 = FACE_OUTER_BOUND ( 'NONE', #549, .T. ) ;
#76 = ORIENTED_EDGE ( 'NONE', *, *, #625, .F. ) ;
#77 = EDGE_CURVE ( 'NONE', #98, #530, #687, .T. ) ;
#78 = DIRECTION ( 'NONE',  ( 0.000000000000000000, 0.000000000000000000, -1.000000000000000000 ) ) ;
#79 = DIRECTION ( 'NONE',  ( 0.000000000000000000, 1.000000000000000000, 0.000000000000000000 ) ) ;
#80 = VERTEX_POINT ( 'NONE', #513 ) ;
#81 = CARTESIAN_POINT ( 'NONE',  ( 0.000000000000000000, 2.000000000000000000, 6.000000000000000000 ) ) ;
#82 = DIRECTION ( 'NONE',  ( -0.000000000000000000, 0.000000000000000000, 1.000000000000000000 ) ) ;
#83 = EDGE_CURVE ( 'NONE', #597, #303, #65, .T. ) ;
#84 = ORIENTED_EDGE ( 'NONE', *, *, #396, .F. ) ;
#85 = CARTESIAN_POINT ( 'NONE',  ( 0.000000000000000000, -4.000000000000000000, 4.000000000000001776 ) ) ;
#86 = VERTEX_POINT ( 'NONE', #391 ) ;
#87 = FACE_OUTER_BOUND ( 'NONE', #708, .T. ) ;
#88 = EDGE_LOOP ( 'NONE', ( #370, #101, #198, #247 ) ) ;
#89 = EDGE_CURVE ( 'NONE', #413, #376, #450, .T. ) ;
#90 = DIRECTION ( 'NONE',  ( -0.000000000000000000, -0.000000000000000000, -1.000000000000000000 ) ) ;
#91 = VERTEX_POINT ( 'NONE', #571 ) ;
#92 = EDGE_LOOP ( 'NONE', ( #487, #320, #461, #586 ) ) ;
#93 = CARTESIAN_POINT ( 'NONE',  ( 99.00000000000000000, 0.000000000000000000, 0.000000000000000000 ) ) ;
#94 = EDGE_CURVE ( 'NONE', #182, #470, #232, .T. ) ;
#95 = DIRECTION ( 'NONE',  ( -1.000000000000000000, -0.000000000000000000, -0.000000000000000000 ) ) ;
#96 = VECTOR ( 'NONE', #453, 1000.000000000000000 ) ;
#97 = VERTEX_POINT ( 'NONE', #10 ) ;
#98 = VERTEX_POINT ( 'NONE', #227 ) ;
#99 = PRODUCT ( 'mold_base', 'mold_base', '', ( #335 ) ) ;
#100 = LINE ( 'NONE', #542, #28 ) ;
#101 = ORIENTED_EDGE ( 'NONE', *, *, #423, .F. ) ;
#102 = CARTESIAN_POINT ( 'NONE',  ( 0.000000000000000000, 0.000000000000000000, 0.000000000000000000 ) ) ;
#103 = CARTESIAN_POINT ( 'NONE',  ( 99.00000000000000000, -5.999999999999999112, 10.00000000000000000 ) ) ;
#104 = VERTEX_POINT ( 'NONE', #454 ) ;
#105 = FACE_OUTER_BOUND ( 'NONE', #652, .T. ) ;
#106 = EDGE_CURVE ( 'NONE', #718, #253, #678, .T. ) ;
#107 = APPLICATION_PROTOCOL_DEFINITION ( 'draft international standard', 'automotive_design', 1998, #183 ) ;
#108 = CARTESIAN_POINT ( 'NONE',  ( 99.00000000000000000, -4.000000000000000000, -4.000000000000001776 ) ) ;
#109 = ORIENTED_EDGE ( 'NONE', *, *, #722, .T. ) ;
#110 = CARTESIAN_POINT ( 'NONE',  ( 0.000000000000000000, -2.000000000000000000, 6.000000000000000000 ) ) ;
#111 = DIRECTION ( 'NONE',  ( 1.000000000000000000, 0.000000000000000000, 0.000000000000000000 ) ) ;
#112 = LINE ( 'NONE', #58, #608 ) ;
#113 = EDGE_CURVE ( 'NONE', #214, #296, #175, .T. ) ;
#114 = DIRECTION ( 'NONE',  ( 0.000000000000000000, 0.000000000000000000, 1.000000000000000000 ) ) ;
#115 = PLANE ( 'NONE',  #607 ) ;
#116 = VECTOR ( 'NONE', #696, 1000.000000000000000 ) ;
#117 = ORIENTED_EDGE ( 'NONE', *, *, #419, .F. ) ;
#118 = DIRECTION ( 'NONE',  ( 0.000000000000000000, 0.000000000000000000, -1.000000000000000000 ) ) ;
#119 = CARTESIAN_POINT ( 'NONE',  ( 99.00000000000000000, -2.000000000000000000, 10.00000000000000000 ) ) ;
#120 = VECTOR ( 'NONE', #433, 1000.000000000000000 ) ;
#121 = CARTESIAN_POINT ( 'NONE',  ( 99.00000000000000000, -4.000000000000000000, -4.000000000000001776 ) ) ;
#122 = DIRECTION ( 'NONE',  ( -0.000000000000000000, -0.000000000000000000, -1.000000000000000000 ) ) ;
#123 = EDGE_CURVE ( 'NONE', #34, #606, #566, .T. ) ;
#124 = LINE ( 'NONE', #670, #623 ) ;
#125 = LINE ( 'NONE', #506, #601 ) ;
#126 = VECTOR ( 'NONE', #468, 1000.000000000000000 ) ;
#127 = LINE ( 'NONE', #473, #327 ) ;
#128 = LINE ( 'NONE', #85, #71 ) ;
#129 = ORIENTED_EDGE ( 'NONE', *, *, #528, .T. ) ;
#130 = VECTOR ( 'NONE', #488, 1000.000000000000000 ) ;
#131 = FACE_OUTER_BOUND ( 'NONE', #494, .T. ) ;
#132 = DIRECTION ( 'NONE',  ( 0.000000000000000000, -1.000000000000000000, 0.000000000000000000 ) ) ;
#133 = ORIENTED_EDGE ( 'NONE', *, *, #660, .T. ) ;
#134 = CARTESIAN_POINT ( 'NONE',  ( 101.0000000000000000, -5.999999999999997335, -10.00000000000000000 ) ) ;
#135 = EDGE_CURVE ( 'NONE', #296, #400, #125, .T. ) ;
#136 = CARTESIAN_POINT ( 'NONE',  ( -2.000000000000000000, 2.000000000000000000, 10.00000000000000000 ) ) ;
#137 = ORIENTED_EDGE ( 'NONE', *, *, #211, .T. ) ;
#138 = CARTESIAN_POINT ( 'NONE',  ( 0.000000000000000000, -4.000000000000000000, -4.000000000000001776 ) ) ;
#139 = VECTOR ( 'NONE', #171, 1000.000000000000000 ) ;
#140 = PLANE ( 'NONE',  #512 ) ;
#141 = ORIENTED_EDGE ( 'NONE', *, *, #31, .F. ) ;
#142 = CARTESIAN_POINT ( 'NONE',  ( 99.00000000000000000, 0.000000000000000000, -4.000000000000000000 ) ) ;
#143 = ORIENTED_EDGE ( 'NONE', *, *, #329, .F. ) ;
#144 = FACE_OUTER_BOUND ( 'NONE', #477, .T. ) ;
#145 = ORIENTED_EDGE ( 'NONE', *, *, #135, .T. ) ;
#146 = EDGE_CURVE ( 'NONE', #400, #584, #403, .T. ) ;
#147 = FACE_OUTER_BOUND ( 'NONE', #646, .T. ) ;
#148 = ORIENTED_EDGE ( 'NONE', *, *, #317, .F. ) ;
#149 = ORIENTED_EDGE ( 'NONE', *, *, #559, .T. ) ;
#150 = PLANE ( 'NONE',  #342 ) ;
#151 = ADVANCED_FACE ( 'NONE', ( #349 ), #67, .F. ) ;
#152 = LINE ( 'NONE', #379, #38 ) ;
#153 = AXIS2_PLACEMENT_3D ( 'NONE', #274, #620, #118 ) ;
#154 = ORIENTED_EDGE ( 'NONE', *, *, #396, .T. ) ;
#155 = ORIENTED_EDGE ( 'NONE', *, *, #286, .F. ) ;
#156 = LINE ( 'NONE', #270, #445 ) ;
#157 = ADVANCED_FACE ( 'NONE', ( #354 ), #644, .F. ) ;
#158 = PLANE ( 'NONE',  #63 ) ;
#159 = ORIENTED_EDGE ( 'NONE', *, *, #405, .T. ) ;
#160 = CARTESIAN_POINT ( 'NONE',  ( 99.00000000000000000, -3.999999999999999112, -8.000000000000000000 ) ) ;
#161 = DIRECTION ( 'NONE',  ( -1.000000000000000000, -0.000000000000000000, -0.000000000000000000 ) ) ;
#162 = CARTESIAN_POINT ( 'NONE',  ( 0.000000000000000000, 0.000000000000000000, 4.000000000000000000 ) ) ;
#163 = CARTESIAN_POINT ( 'NONE',  ( 0.000000000000000000, -2.000000000000000000, 6.000000000000000000 ) ) ;
#164 = EDGE_CURVE ( 'NONE', #272, #260, #416, .T. ) ;
#165 = PLANE ( 'NONE',  #411 ) ;
#166 = LINE ( 'NONE', #162, #96 ) ;
#167 = CARTESIAN_POINT ( 'NONE',  ( 99.00000000000000000, -2.000000000000000000, 6.000000000000000000 ) ) ;
#168 =( LENGTH_UNIT ( ) NAMED_UNIT ( * ) SI_UNIT ( .MILLI., .METRE. ) );
#169 = ORIENTED_EDGE ( 'NONE', *, *, #252, .F. ) ;
#170 = LINE ( 'NONE', #624, #414 ) ;
#171 = DIRECTION ( 'NONE',  ( 0.000000000000000000, 0.000000000000000000, 1.000000000000000000 ) ) ;
#172 = VECTOR ( 'NONE', #341, 1000.000000000000000 ) ;
#173 = ADVANCED_FACE ( 'NONE', ( #87 ), #33, .F. ) ;
#174 = LINE ( 'NONE', #402, #188 ) ;
#175 = LINE ( 'NONE', #119, #663 ) ;
#176 = DIRECTION ( 'NONE',  ( -0.000000000000000000, 1.000000000000000000, -4.336808689942017736E-16 ) ) ;
#177 = ADVANCED_FACE ( 'NONE', ( #523 ), #529, .F. ) ;
#178 = CARTESIAN_POINT ( 'NONE',  ( 101.0000000000000000, -5.999999999999999112, 10.00000000000000000 ) ) ;
#179 = ORIENTED_EDGE ( 'NONE', *, *, #357, .T. ) ;
#180 = MANIFOLD_SOLID_BREP ( 'Boss-Extrude5', #531 ) ;
#181 = LINE ( 'NONE', #514, #572 ) ;
#182 = VERTEX_POINT ( 'NONE', #25 ) ;
#183 = APPLICATION_CONTEXT ( 'automotive_design' ) ;
#184 = VECTOR ( 'NONE', #315, 1000.000000000000000 ) ;
#185 = DIRECTION ( 'NONE',  ( 0.000000000000000000, 2.168404344971009854E-16, -1.000000000000000000 ) ) ;
#186 = SURFACE_STYLE_FILL_AREA ( #583 ) ;
#187 = ORIENTED_EDGE ( 'NONE', *, *, #559, .F. ) ;
#188 = VECTOR ( 'NONE', #616, 1000.000000000000000 ) ;
#189 = CARTESIAN_POINT ( 'NONE',  ( 99.00000000000000000, 2.000000000000000000, 6.000000000000000000 ) ) ;
#190 = UNCERTAINTY_MEASURE_WITH_UNIT (LENGTH_MEASURE( 1.000000000000000082E-05 ), #168, 'distance_accuracy_value', 'NONE');
#191 = DIRECTION ( 'NONE',  ( -0.000000000000000000, 1.000000000000000000, -0.000000000000000000 ) ) ;
#192 = VERTEX_POINT ( 'NONE', #588 ) ;
#193 = DIRECTION ( 'NONE',  ( -1.000000000000000000, -0.000000000000000000, -0.000000000000000000 ) ) ;
#194 = FACE_BOUND ( 'NONE', #380, .T. ) ;
#195 = ORIENTED_EDGE ( 'NONE', *, *, #451, .F. ) ;
#196 = AXIS2_PLACEMENT_3D ( 'NONE', #102, #672, #436 ) ;
#197 = ADVANCED_FACE ( 'NONE', ( #255 ), #367, .F. ) ;
#198 = ORIENTED_EDGE ( 'NONE', *, *, #472, .F. ) ;
#199 = VECTOR ( 'NONE', #95, 1000.000000000000000 ) ;
#200 = CARTESIAN_POINT ( 'NONE',  ( 99.00000000000000000, 2.000000000000000000, -6.000000000000000000 ) ) ;
#201 = ORIENTED_EDGE ( 'NONE', *, *, #704, .T. ) ;
#202 = CARTESIAN_POINT ( 'NONE',  ( 99.00000000000000000, 2.000000000000000000, -10.00000000000000000 ) ) ;
#203 = VERTEX_POINT ( 'NONE', #702 ) ;
#204 = VERTEX_POINT ( 'NONE', #636 ) ;
#205 = CARTESIAN_POINT ( 'NONE',  ( 0.000000000000000000, 0.000000000000000000, -4.000000000000000000 ) ) ;
#206 = CARTESIAN_POINT ( 'NONE',  ( 0.000000000000000000, 2.000000000000000000, -6.000000000000000000 ) ) ;
#207 = EDGE_LOOP ( 'NONE', ( #137, #664, #323, #658 ) ) ;
#208 = EDGE_LOOP ( 'NONE', ( #425, #535, #143, #387 ) ) ;
#209 = VECTOR ( 'NONE', #302, 1000.000000000000000 ) ;
#210 = DIRECTION ( 'NONE',  ( -0.000000000000000000, 1.000000000000000000, -0.000000000000000000 ) ) ;
#211 = EDGE_CURVE ( 'NONE', #23, #688, #128, .T. ) ;
#212 = FACE_OUTER_BOUND ( 'NONE', #92, .T. ) ;
#213 = VECTOR ( 'NONE', #49, 1000.000000000000000 ) ;
#214 = VERTEX_POINT ( 'NONE', #469 ) ;
#215 = ORIENTED_EDGE ( 'NONE', *, *, #83, .F. ) ;
#216 = FACE_OUTER_BOUND ( 'NONE', #207, .T. ) ;
#217 = CARTESIAN_POINT ( 'NONE',  ( 99.00000000000000000, -2.000000000000000000, 10.00000000000000000 ) ) ;
#218 = ORIENTED_EDGE ( 'NONE', *, *, #587, .F. ) ;
#219 = DIRECTION ( 'NONE',  ( -1.000000000000000000, 0.000000000000000000, 0.000000000000000000 ) ) ;
#220 = ADVANCED_FACE ( 'NONE', ( #75 ), #140, .F. ) ;
#221 = ORIENTED_EDGE ( 'NONE', *, *, #407, .F. ) ;
#222 = VECTOR ( 'NONE', #210, 1000.000000000000000 ) ;
#223 = DIRECTION ( 'NONE',  ( -1.000000000000000000, -0.000000000000000000, -0.000000000000000000 ) ) ;
#224 = DIRECTION ( 'NONE',  ( 0.000000000000000000, 0.000000000000000000, -1.000000000000000000 ) ) ;
#225 = VECTOR ( 'NONE', #595, 1000.000000000000000 ) ;
#226 = DIRECTION ( 'NONE',  ( 0.000000000000000000, -1.000000000000000000, 0.000000000000000000 ) ) ;
#227 = CARTESIAN_POINT ( 'NONE',  ( 101.0000000000000000, -5.999999999999999112, 10.00000000000000000 ) ) ;
#228 = CARTESIAN_POINT ( 'NONE',  ( 0.000000000000000000, -4.000000000000000000, -4.000000000000001776 ) ) ;
#229 = LINE ( 'NONE', #163, #243 ) ;
#230 = ADVANCED_FACE ( 'NONE', ( #359, #194 ), #579, .F. ) ;
#231 = DIRECTION ( 'NONE',  ( -1.000000000000000000, -0.000000000000000000, -0.000000000000000000 ) ) ;
#232 = LINE ( 'NONE', #562, #3 ) ;
#233 = ORIENTED_EDGE ( 'NONE', *, *, #684, .F. ) ;
#234 = VECTOR ( 'NONE', #526, 1000.000000000000000 ) ;
#235 = VERTEX_POINT ( 'NONE', #136 ) ;
#236 = DIRECTION ( 'NONE',  ( 1.000000000000000000, 0.000000000000000000, 0.000000000000000000 ) ) ;
#237 = DIRECTION ( 'NONE',  ( -0.000000000000000000, -1.000000000000000000, -0.000000000000000000 ) ) ;
#238 = ORIENTED_EDGE ( 'NONE', *, *, #407, .T. ) ;
#239 = LINE ( 'NONE', #415, #59 ) ;
#240 = DIRECTION ( 'NONE',  ( 0.000000000000000000, 4.336808689942017243E-16, -1.000000000000000000 ) ) ;
#241 = PRODUCT_DEFINITION_SHAPE ( 'NONE', 'NONE',  #640 ) ;
#242 = ORIENTED_EDGE ( 'NONE', *, *, #633, .F. ) ;
#243 = VECTOR ( 'NONE', #20, 1000.000000000000000 ) ;
#244 = VECTOR ( 'NONE', #276, 1000.000000000000000 ) ;
#245 = LINE ( 'NONE', #189, #184 ) ;
#246 = CARTESIAN_POINT ( 'NONE',  ( 99.00000000000000000, -5.999999999999999112, 8.000000000000000000 ) ) ;
#247 = ORIENTED_EDGE ( 'NONE', *, *, #649, .T. ) ;
#248 = VECTOR ( 'NONE', #191, 1000.000000000000000 ) ;
#249 = PLANE ( 'NONE',  #643 ) ;
#250 = PRESENTATION_STYLE_ASSIGNMENT (( #409 ) ) ;
#251 = ORIENTED_EDGE ( 'NONE', *, *, #667, .F. ) ;
#252 = EDGE_CURVE ( 'NONE', #303, #203, #420, .T. ) ;
#253 = VERTEX_POINT ( 'NONE', #37 ) ;
#254 = VECTOR ( 'NONE', #7, 1000.000000000000000 ) ;
#255 = FACE_OUTER_BOUND ( 'NONE', #662, .T. ) ;
#256 = ORIENTED_EDGE ( 'NONE', *, *, #604, .T. ) ;
#257 = AXIS2_PLACEMENT_3D ( 'NONE', #246, #79, #518 ) ;
#258 = DIRECTION ( 'NONE',  ( -1.000000000000000000, 0.000000000000000000, 0.000000000000000000 ) ) ;
#259 = ORIENTED_EDGE ( 'NONE', *, *, #83, .T. ) ;
#260 = VERTEX_POINT ( 'NONE', #200 ) ;
#261 = PLANE ( 'NONE',  #621 ) ;
#262 = DIRECTION ( 'NONE',  ( 0.000000000000000000, 0.000000000000000000, -1.000000000000000000 ) ) ;
#263 = EDGE_LOOP ( 'NONE', ( #187, #576, #417, #169 ) ) ;
#264 = ORIENTED_EDGE ( 'NONE', *, *, #594, .T. ) ;
#265 = EDGE_CURVE ( 'NONE', #606, #97, #427, .T. ) ;
#266 = DIRECTION ( 'NONE',  ( -1.000000000000000000, 0.000000000000000000, -0.000000000000000000 ) ) ;
#267 = VECTOR ( 'NONE', #224, 1000.000000000000000 ) ;
#268 = ORIENTED_EDGE ( 'NONE', *, *, #533, .F. ) ;
#269 = ORIENTED_EDGE ( 'NONE', *, *, #582, .F. ) ;
#270 = CARTESIAN_POINT ( 'NONE',  ( 99.00000000000000000, -4.000000000000000000, -4.000000000000001776 ) ) ;
#271 = DIRECTION ( 'NONE',  ( 0.000000000000000000, -0.000000000000000000, 1.000000000000000000 ) ) ;
#272 = VERTEX_POINT ( 'NONE', #647 ) ;
#273 = EDGE_CURVE ( 'NONE', #671, #309, #492, .T. ) ;
#274 = CARTESIAN_POINT ( 'NONE',  ( 101.0000000000000000, 0.000000000000000000, 0.000000000000000000 ) ) ;
#275 = ORIENTED_EDGE ( 'NONE', *, *, #113, .T. ) ;
#276 = DIRECTION ( 'NONE',  ( -1.000000000000000000, -0.000000000000000000, -0.000000000000000000 ) ) ;
#277 = ADVANCED_FACE ( 'NONE', ( #723 ), #661, .F. ) ;
#278 = DIRECTION ( 'NONE',  ( -0.000000000000000000, -0.000000000000000000, 1.000000000000000000 ) ) ;
#279 = DIRECTION ( 'NONE',  ( -0.000000000000000000, -0.000000000000000000, -1.000000000000000000 ) ) ;
#280 = CARTESIAN_POINT ( 'NONE',  ( 99.00000000000000000, -5.999999999999999112, 8.000000000000000000 ) ) ;
#281 = CARTESIAN_POINT ( 'NONE',  ( 99.00000000000000000, 2.000000000000000000, -10.00000000000000000 ) ) ;
#282 = DIRECTION ( 'NONE',  ( -0.000000000000000000, 2.168404344971009854E-16, -1.000000000000000000 ) ) ;
#283 = AXIS2_PLACEMENT_3D ( 'NONE', #9, #226, #560 ) ;
#284 = DIRECTION ( 'NONE',  ( 1.000000000000000000, 0.000000000000000000, 0.000000000000000000 ) ) ;
#285 = CARTESIAN_POINT ( 'NONE',  ( 99.00000000000000000, -5.999999999999997335, -8.000000000000000000 ) ) ;
#286 = EDGE_CURVE ( 'NONE', #104, #80, #100, .T. ) ;
#287 = CARTESIAN_POINT ( 'NONE',  ( 0.000000000000000000, 2.000000000000000000, -6.000000000000000000 ) ) ;
#288 = DIRECTION ( 'NONE',  ( 0.000000000000000000, -1.000000000000000000, 0.000000000000000000 ) ) ;
#289 = EDGE_CURVE ( 'NONE', #410, #104, #548, .T. ) ;
#290 = CARTESIAN_POINT ( 'NONE',  ( -2.000000000000000000, -5.999999999999999112, 10.00000000000000000 ) ) ;
#291 = LINE ( 'NONE', #395, #267 ) ;
#292 = VECTOR ( 'NONE', #599, 1000.000000000000000 ) ;
#293 = DIRECTION ( 'NONE',  ( -0.000000000000000000, 0.000000000000000000, 1.000000000000000000 ) ) ;
#294 = ADVANCED_FACE ( 'NONE', ( #144 ), #158, .F. ) ;
#295 = CARTESIAN_POINT ( 'NONE',  ( 99.00000000000000000, -2.000000000000000000, -6.000000000000000000 ) ) ;
#296 = VERTEX_POINT ( 'NONE', #479 ) ;
#297 = LINE ( 'NONE', #713, #13 ) ;
#298 = ADVANCED_FACE ( 'NONE', ( #147 ), #709, .F. ) ;
#299 = CARTESIAN_POINT ( 'NONE',  ( 99.00000000000000000, -4.000000000000000888, 8.000000000000000000 ) ) ;
#300 = ORIENTED_EDGE ( 'NONE', *, *, #164, .F. ) ;
#301 = VECTOR ( 'NONE', #432, 1000.000000000000000 ) ;
#302 = DIRECTION ( 'NONE',  ( 0.000000000000000000, 0.000000000000000000, 1.000000000000000000 ) ) ;
#303 = VERTEX_POINT ( 'NONE', #609 ) ;
#304 = COLOUR_RGB ( '',0.7921568627450980005, 0.8196078431372548767, 0.9333333333333333481 ) ;
#305 = CARTESIAN_POINT ( 'NONE',  ( -2.000000000000000000, -5.999999999999997335, -10.00000000000000000 ) ) ;
#306 = ORIENTED_EDGE ( 'NONE', *, *, #146, .F. ) ;
#307 = ADVANCED_FACE ( 'NONE', ( #381 ), #322, .F. ) ;
#308 = CARTESIAN_POINT ( 'NONE',  ( 99.00000000000000000, 0.000000000000000000, 4.000000000000000000 ) ) ;
#309 = VERTEX_POINT ( 'NONE', #553 ) ;
#310 = EDGE_CURVE ( 'NONE', #718, #584, #313, .T. ) ;
#311 = VECTOR ( 'NONE', #683, 1000.000000000000000 ) ;
#312 = VECTOR ( 'NONE', #371, 1000.000000000000000 ) ;
#313 = LINE ( 'NONE', #482, #130 ) ;
#314 = ORIENTED_EDGE ( 'NONE', *, *, #68, .F. ) ;
#315 = DIRECTION ( 'NONE',  ( 0.000000000000000000, -1.000000000000000000, 0.000000000000000000 ) ) ;
#316 = AXIS2_PLACEMENT_3D ( 'NONE', #682, #219, #556 ) ;
#317 = EDGE_CURVE ( 'NONE', #692, #272, #152, .T. ) ;
#318 = LINE ( 'NONE', #538, #120 ) ;
#319 = ORIENTED_EDGE ( 'NONE', *, *, #451, .T. ) ;
#320 = ORIENTED_EDGE ( 'NONE', *, *, #317, .T. ) ;
#321 = FACE_OUTER_BOUND ( 'NONE', #208, .T. ) ;
#322 = PLANE ( 'NONE',  #8 ) ;
#323 = ORIENTED_EDGE ( 'NONE', *, *, #55, .F. ) ;
#324 = EDGE_LOOP ( 'NONE', ( #434, #520, #268, #368, #715, #375, #632, #397 ) ) ;
#325 = LINE ( 'NONE', #665, #244 ) ;
#326 = DIRECTION ( 'NONE',  ( 1.000000000000000000, 0.000000000000000000, 0.000000000000000000 ) ) ;
#327 = VECTOR ( 'NONE', #24, 1000.000000000000000 ) ;
#328 = VERTEX_POINT ( 'NONE', #717 ) ;
#329 = EDGE_CURVE ( 'NONE', #671, #34, #706, .T. ) ;
#330 = CARTESIAN_POINT ( 'NONE',  ( 101.0000000000000000, 2.000000000000000000, 10.00000000000000000 ) ) ;
#331 = ADVANCED_BREP_SHAPE_REPRESENTATION ( 'mold_base', ( #180, #196 ), #532 ) ;
#332 = AXIS2_PLACEMENT_3D ( 'NONE', #142, #240, #476 ) ;
#333 = CARTESIAN_POINT ( 'NONE',  ( 99.00000000000000000, 0.000000000000000000, 4.000000000000000000 ) ) ;
#334 = VERTEX_POINT ( 'NONE', #202 ) ;
#335 = PRODUCT_CONTEXT ( 'NONE', #183, 'mechanical' ) ;
#336 = DIRECTION ( 'NONE',  ( -1.000000000000000000, -0.000000000000000000, -0.000000000000000000 ) ) ;
#337 = DIRECTION ( 'NONE',  ( 1.000000000000000000, -0.000000000000000000, -0.000000000000000000 ) ) ;
#338 = ORIENTED_EDGE ( 'NONE', *, *, #633, .T. ) ;
#339 = LINE ( 'NONE', #558, #401 ) ;
#340 = PLANE ( 'NONE',  #283 ) ;
#341 = DIRECTION ( 'NONE',  ( 0.000000000000000000, -1.000000000000000000, 0.000000000000000000 ) ) ;
#342 = AXIS2_PLACEMENT_3D ( 'NONE', #27, #408, #537 ) ;
#343 = EDGE_LOOP ( 'NONE', ( #238, #442, #497, #619 ) ) ;
#344 = FACE_OUTER_BOUND ( 'NONE', #447, .T. ) ;
#345 = EDGE_CURVE ( 'NONE', #192, #253, #650, .T. ) ;
#346 = CARTESIAN_POINT ( 'NONE',  ( 0.000000000000000000, -3.999999999999999112, -8.000000000000000000 ) ) ;
#347 = VECTOR ( 'NONE', #223, 1000.000000000000000 ) ;
#348 = CARTESIAN_POINT ( 'NONE',  ( 99.00000000000000000, -2.000000000000000000, 6.000000000000000000 ) ) ;
#349 = FACE_OUTER_BOUND ( 'NONE', #591, .T. ) ;
#350 = DIRECTION ( 'NONE',  ( -1.000000000000000000, -0.000000000000000000, -0.000000000000000000 ) ) ;
#351 = CARTESIAN_POINT ( 'NONE',  ( 99.00000000000000000, 2.000000000000000000, 6.000000000000000000 ) ) ;
#352 = EDGE_CURVE ( 'NONE', #98, #203, #603, .T. ) ;
#353 = LINE ( 'NONE', #701, #116 ) ;
#354 = FACE_OUTER_BOUND ( 'NONE', #343, .T. ) ;
#355 = ORIENTED_EDGE ( 'NONE', *, *, #68, .T. ) ;
#356 = AXIS2_PLACEMENT_3D ( 'NONE', #217, #441, #266 ) ;
#357 = EDGE_CURVE ( 'NONE', #253, #214, #318, .T. ) ;
#358 = CARTESIAN_POINT ( 'NONE',  ( 99.00000000000000000, 0.000000000000000000, -4.000000000000000000 ) ) ;
#359 = FACE_OUTER_BOUND ( 'NONE', #263, .T. ) ;
#360 = ORIENTED_EDGE ( 'NONE', *, *, #655, .T. ) ;
#361 = FACE_OUTER_BOUND ( 'NONE', #510, .T. ) ;
#362 = DIRECTION ( 'NONE',  ( -0.000000000000000000, 4.336808689942017243E-16, 1.000000000000000000 ) ) ;
#363 = ORIENTED_EDGE ( 'NONE', *, *, #578, .T. ) ;
#364 =( LENGTH_UNIT ( ) NAMED_UNIT ( * ) SI_UNIT ( .MILLI., .METRE. ) );
#365 = ADVANCED_FACE ( 'NONE', ( #212 ), #437, .F. ) ;
#366 = EDGE_LOOP ( 'NONE', ( #43, #76, #544, #567 ) ) ;
#367 = PLANE ( 'NONE',  #612 ) ;
#368 = ORIENTED_EDGE ( 'NONE', *, *, #472, .T. ) ;
#369 = CARTESIAN_POINT ( 'NONE',  ( 0.000000000000000000, 0.000000000000000000, 0.000000000000000000 ) ) ;
#370 = ORIENTED_EDGE ( 'NONE', *, *, #712, .T. ) ;
#371 = DIRECTION ( 'NONE',  ( 0.000000000000000000, 8.673617379884035472E-17, -1.000000000000000000 ) ) ;
#372 = ADVANCED_FACE ( 'NONE', ( #656 ), #5, .F. ) ;
#373 = VECTOR ( 'NONE', #511, 1000.000000000000000 ) ;
#374 = CARTESIAN_POINT ( 'NONE',  ( 101.0000000000000000, 2.000000000000000000, 10.00000000000000000 ) ) ;
#375 = ORIENTED_EDGE ( 'NONE', *, *, #555, .T. ) ;
#376 = VERTEX_POINT ( 'NONE', #110 ) ;
#377 = CARTESIAN_POINT ( 'NONE',  ( -2.000000000000000000, 2.000000000000000000, -10.00000000000000000 ) ) ;
#378 = PRESENTATION_LAYER_ASSIGNMENT (  '', '', ( #707 ) ) ;
#379 = CARTESIAN_POINT ( 'NONE',  ( 99.00000000000000000, -2.000000000000000000, -6.000000000000000000 ) ) ;
#380 = EDGE_LOOP ( 'NONE', ( #475, #592, #710, #637 ) ) ;
#381 = FACE_OUTER_BOUND ( 'NONE', #716, .T. ) ;
#382 = ADVANCED_FACE ( 'NONE', ( #2 ), #449, .T. ) ;
#383 = ORIENTED_EDGE ( 'NONE', *, *, #310, .T. ) ;
#384 = ORIENTED_EDGE ( 'NONE', *, *, #36, .T. ) ;
#385 = DIRECTION ( 'NONE',  ( -0.000000000000000000, 1.000000000000000000, 2.168404344971009608E-16 ) ) ;
#386 = DIRECTION ( 'NONE',  ( -0.000000000000000000, -1.000000000000000000, -0.000000000000000000 ) ) ;
#387 = ORIENTED_EDGE ( 'NONE', *, *, #273, .T. ) ;
#388 = CARTESIAN_POINT ( 'NONE',  ( 0.000000000000000000, -4.000000000000000000, 4.000000000000001776 ) ) ;
#389 = VECTOR ( 'NONE', #122, 1000.000000000000000 ) ;
#390 = LINE ( 'NONE', #568, #525 ) ;
#391 = CARTESIAN_POINT ( 'NONE',  ( 99.00000000000000000, -4.000000000000000000, 4.000000000000001776 ) ) ;
#392 = EDGE_CURVE ( 'NONE', #86, #688, #456, .T. ) ;
#393 = CARTESIAN_POINT ( 'NONE',  ( 0.000000000000000000, 2.000000000000000000, -6.000000000000000000 ) ) ;
#394 = DIRECTION ( 'NONE',  ( 0.000000000000000000, 0.000000000000000000, 1.000000000000000000 ) ) ;
#395 = CARTESIAN_POINT ( 'NONE',  ( 99.00000000000000000, 0.000000000000000000, 4.000000000000000000 ) ) ;
#396 = EDGE_CURVE ( 'NONE', #260, #410, #170, .T. ) ;
#397 = ORIENTED_EDGE ( 'NONE', *, *, #94, .T. ) ;
#398 = PLANE ( 'NONE',  #153 ) ;
#399 = CARTESIAN_POINT ( 'NONE',  ( -2.000000000000000000, 2.000000000000000000, -10.00000000000000000 ) ) ;
#400 = VERTEX_POINT ( 'NONE', #507 ) ;
#401 = VECTOR ( 'NONE', #720, 1000.000000000000000 ) ;
#402 = CARTESIAN_POINT ( 'NONE',  ( -2.000000000000000000, 2.000000000000000000, 10.00000000000000000 ) ) ;
#403 = LINE ( 'NONE', #626, #389 ) ;
#404 = LINE ( 'NONE', #627, #697 ) ;
#405 = EDGE_CURVE ( 'NONE', #80, #50, #66, .T. ) ;
#406 = CARTESIAN_POINT ( 'NONE',  ( 99.00000000000000000, 2.000000000000000000, -10.00000000000000000 ) ) ;
#407 = EDGE_CURVE ( 'NONE', #688, #51, #124, .T. ) ;
#408 = DIRECTION ( 'NONE',  ( -1.000000000000000000, 0.000000000000000000, 0.000000000000000000 ) ) ;
#409 = SURFACE_STYLE_USAGE ( .BOTH. , #466 ) ;
#410 = VERTEX_POINT ( 'NONE', #287 ) ;
#411 = AXIS2_PLACEMENT_3D ( 'NONE', #501, #541, #54 ) ;
#412 = LINE ( 'NONE', #205, #373 ) ;
#413 = VERTEX_POINT ( 'NONE', #348 ) ;
#414 = VECTOR ( 'NONE', #350, 1000.000000000000000 ) ;
#415 = CARTESIAN_POINT ( 'NONE',  ( 99.00000000000000000, -5.999999999999997335, -10.00000000000000000 ) ) ;
#416 = LINE ( 'NONE', #474, #248 ) ;
#417 = ORIENTED_EDGE ( 'NONE', *, *, #352, .T. ) ;
#418 = DIRECTION ( 'NONE',  ( 0.000000000000000000, -1.000000000000000000, 0.000000000000000000 ) ) ;
#419 = EDGE_CURVE ( 'NONE', #51, #328, #166, .T. ) ;
#420 = LINE ( 'NONE', #305, #234 ) ;
#421 = ORIENTED_EDGE ( 'NONE', *, *, #77, .T. ) ;
#422 = AXIS2_PLACEMENT_3D ( 'NONE', #615, #385, #602 ) ;
#423 = EDGE_CURVE ( 'NONE', #204, #23, #390, .T. ) ;
#424 = DIRECTION ( 'NONE',  ( -1.000000000000000000, 0.000000000000000000, 0.000000000000000000 ) ) ;
#425 = ORIENTED_EDGE ( 'NONE', *, *, #61, .T. ) ;
#426 = AXIS2_PLACEMENT_3D ( 'NONE', #308, #362, #22 ) ;
#427 = LINE ( 'NONE', #666, #292 ) ;
#428 = EDGE_LOOP ( 'NONE', ( #711, #438, #32, #383 ) ) ;
#429 = DIRECTION ( 'NONE',  ( -0.000000000000000000, 1.000000000000000000, 0.000000000000000000 ) ) ;
#430 = ORIENTED_EDGE ( 'NONE', *, *, #289, .T. ) ;
#431 = ORIENTED_EDGE ( 'NONE', *, *, #61, .F. ) ;
#432 = DIRECTION ( 'NONE',  ( 0.000000000000000000, 1.000000000000000000, 0.000000000000000000 ) ) ;
#433 = DIRECTION ( 'NONE',  ( 0.000000000000000000, -1.000000000000000000, 0.000000000000000000 ) ) ;
#434 = ORIENTED_EDGE ( 'NONE', *, *, #587, .T. ) ;
#435 = ORIENTED_EDGE ( 'NONE', *, *, #345, .T. ) ;
#436 = DIRECTION ( 'NONE',  ( 1.000000000000000000, 0.000000000000000000, 0.000000000000000000 ) ) ;
#437 = PLANE ( 'NONE',  #635 ) ;
#438 = ORIENTED_EDGE ( 'NONE', *, *, #89, .F. ) ;
#439 = ORIENTED_EDGE ( 'NONE', *, *, #446, .T. ) ;
#440 = DIRECTION ( 'NONE',  ( -1.000000000000000000, -0.000000000000000000, -0.000000000000000000 ) ) ;
#441 = DIRECTION ( 'NONE',  ( 0.000000000000000000, 0.000000000000000000, -1.000000000000000000 ) ) ;
#442 = ORIENTED_EDGE ( 'NONE', *, *, #565, .F. ) ;
#443 = ORIENTED_EDGE ( 'NONE', *, *, #684, .T. ) ;
#444 = CARTESIAN_POINT ( 'NONE',  ( 99.00000000000000000, -4.000000000000000000, 4.000000000000001776 ) ) ;
#445 = VECTOR ( 'NONE', #161, 1000.000000000000000 ) ;
#446 = EDGE_CURVE ( 'NONE', #413, #214, #677, .T. ) ;
#447 = EDGE_LOOP ( 'NONE', ( #443, #421, #338, #668 ) ) ;
#448 = VECTOR ( 'NONE', #714, 1000.000000000000000 ) ;
#449 = PLANE ( 'NONE',  #316 ) ;
#450 = LINE ( 'NONE', #167, #47 ) ;
#451 = EDGE_CURVE ( 'NONE', #235, #400, #174, .T. ) ;
#452 =( NAMED_UNIT ( * ) PLANE_ANGLE_UNIT ( ) SI_UNIT ( $, .RADIAN. ) );
#453 = DIRECTION ( 'NONE',  ( 0.000000000000000000, 0.000000000000000000, -1.000000000000000000 ) ) ;
#454 = CARTESIAN_POINT ( 'NONE',  ( 0.000000000000000000, 2.000000000000000000, -10.00000000000000000 ) ) ;
#455 = EDGE_CURVE ( 'NONE', #334, #260, #64, .T. ) ;
#456 = LINE ( 'NONE', #444, #347 ) ;
#457 = CARTESIAN_POINT ( 'NONE',  ( 0.000000000000000000, 0.000000000000000000, 4.000000000000000000 ) ) ;
#458 = FACE_OUTER_BOUND ( 'NONE', #324, .T. ) ;
#459 = ADVANCED_FACE ( 'NONE', ( #14 ), #340, .F. ) ;
#460 = LINE ( 'NONE', #399, #35 ) ;
#461 = ORIENTED_EDGE ( 'NONE', *, *, #164, .T. ) ;
#462 = CARTESIAN_POINT ( 'NONE',  ( 99.00000000000000000, 0.000000000000000000, 4.000000000000000000 ) ) ;
#463 = DIRECTION ( 'NONE',  ( -0.000000000000000000, 0.000000000000000000, 1.000000000000000000 ) ) ;
#464 = ORIENTED_EDGE ( 'NONE', *, *, #286, .T. ) ;
#465 = CARTESIAN_POINT ( 'NONE',  ( 99.00000000000000000, -5.999999999999999112, 10.00000000000000000 ) ) ;
#466 = SURFACE_SIDE_STYLE ('',( #186 ) ) ;
#467 = ORIENTED_EDGE ( 'NONE', *, *, #113, .F. ) ;
#468 = DIRECTION ( 'NONE',  ( -1.000000000000000000, -0.000000000000000000, -0.000000000000000000 ) ) ;
#469 = CARTESIAN_POINT ( 'NONE',  ( 99.00000000000000000, -2.000000000000000000, 10.00000000000000000 ) ) ;
#470 = VERTEX_POINT ( 'NONE', #121 ) ;
#471 = VECTOR ( 'NONE', #231, 1000.000000000000000 ) ;
#472 = EDGE_CURVE ( 'NONE', #724, #204, #404, .T. ) ;
#473 = CARTESIAN_POINT ( 'NONE',  ( 101.0000000000000000, -5.999999999999997335, -10.00000000000000000 ) ) ;
#474 = CARTESIAN_POINT ( 'NONE',  ( 99.00000000000000000, 2.000000000000000000, -6.000000000000000000 ) ) ;
#475 = ORIENTED_EDGE ( 'NONE', *, *, #533, .T. ) ;
#476 = DIRECTION ( 'NONE',  ( 0.000000000000000000, 1.000000000000000000, 4.336808689942017243E-16 ) ) ;
#477 = EDGE_LOOP ( 'NONE', ( #251, #605, #155, #651 ) ) ;
#478 = EDGE_CURVE ( 'NONE', #580, #334, #570, .T. ) ;
#479 = CARTESIAN_POINT ( 'NONE',  ( 0.000000000000000000, -2.000000000000000000, 10.00000000000000000 ) ) ;
#480 = ORIENTED_EDGE ( 'NONE', *, *, #704, .F. ) ;
#481 = AXIS2_PLACEMENT_3D ( 'NONE', #351, #288, #628 ) ;
#482 = CARTESIAN_POINT ( 'NONE',  ( 99.00000000000000000, 2.000000000000000000, 6.000000000000000000 ) ) ;
#483 = ORIENTED_EDGE ( 'NONE', *, *, #265, .F. ) ;
#484 = DIRECTION ( 'NONE',  ( 0.000000000000000000, 1.000000000000000000, 0.000000000000000000 ) ) ;
#485 = DIRECTION ( 'NONE',  ( 0.000000000000000000, -2.168404344971009608E-16, 1.000000000000000000 ) ) ;
#486 = ORIENTED_EDGE ( 'NONE', *, *, #446, .F. ) ;
#487 = ORIENTED_EDGE ( 'NONE', *, *, #604, .F. ) ;
#488 = DIRECTION ( 'NONE',  ( -1.000000000000000000, -0.000000000000000000, -0.000000000000000000 ) ) ;
#489 = ORIENTED_EDGE ( 'NONE', *, *, #625, .T. ) ;
#490 = CARTESIAN_POINT ( 'NONE',  ( 99.00000000000000000, -3.999999999999999112, -8.000000000000000000 ) ) ;
#491 = ADVANCED_FACE ( 'NONE', ( #344 ), #398, .T. ) ;
#492 = LINE ( 'NONE', #160, #199 ) ;
#493 = APPLICATION_CONTEXT ( 'automotive_design' ) ;
#494 = EDGE_LOOP ( 'NONE', ( #149, #215, #384, #464, #30, #256, #679, #242 ) ) ;
#495 = CARTESIAN_POINT ( 'NONE',  ( 99.00000000000000000, -2.000000000000000000, -10.00000000000000000 ) ) ;
#496 = PLANE ( 'NONE',  #563 ) ;
#497 = ORIENTED_EDGE ( 'NONE', *, *, #555, .F. ) ;
#498 =( NAMED_UNIT ( * ) SI_UNIT ( $, .STERADIAN. ) SOLID_ANGLE_UNIT ( ) );
#499 = CARTESIAN_POINT ( 'NONE',  ( 99.00000000000000000, -2.000000000000000000, 6.000000000000000000 ) ) ;
#500 = CARTESIAN_POINT ( 'NONE',  ( 0.000000000000000000, -4.000000000000000888, 8.000000000000000000 ) ) ;
#501 = CARTESIAN_POINT ( 'NONE',  ( 99.00000000000000000, -3.999999999999999112, -8.000000000000000000 ) ) ;
#502 = VECTOR ( 'NONE', #394, 1000.000000000000000 ) ;
#503 = CARTESIAN_POINT ( 'NONE',  ( 101.0000000000000000, 2.000000000000000000, -10.00000000000000000 ) ) ;
#504 = DIRECTION ( 'NONE',  ( 0.000000000000000000, -1.000000000000000000, -4.336808689942017736E-16 ) ) ;
#505 = DIRECTION ( 'NONE',  ( 0.000000000000000000, 0.000000000000000000, -1.000000000000000000 ) ) ;
#506 = CARTESIAN_POINT ( 'NONE',  ( 0.000000000000000000, -5.999999999999999112, 10.00000000000000000 ) ) ;
#507 = CARTESIAN_POINT ( 'NONE',  ( 0.000000000000000000, 2.000000000000000000, 10.00000000000000000 ) ) ;
#508 = CARTESIAN_POINT ( 'NONE',  ( -2.000000000000000000, -5.999999999999997335, -10.00000000000000000 ) ) ;
#509 = VECTOR ( 'NONE', #18, 1000.000000000000000 ) ;
#510 = EDGE_LOOP ( 'NONE', ( #141, #699, #306, #589 ) ) ;
#511 = DIRECTION ( 'NONE',  ( 0.000000000000000000, -1.000000000000000000, -4.336808689942017736E-16 ) ) ;
#512 = AXIS2_PLACEMENT_3D ( 'NONE', #295, #132, #515 ) ;
#513 = CARTESIAN_POINT ( 'NONE',  ( 0.000000000000000000, -2.000000000000000000, -10.00000000000000000 ) ) ;
#514 = CARTESIAN_POINT ( 'NONE',  ( 99.00000000000000000, 0.000000000000000000, 4.000000000000000000 ) ) ;
#515 = DIRECTION ( 'NONE',  ( 0.000000000000000000, -0.000000000000000000, -1.000000000000000000 ) ) ;
#516 = ORIENTED_EDGE ( 'NONE', *, *, #667, .T. ) ;
#517 = LINE ( 'NONE', #358, #561 ) ;
#518 = DIRECTION ( 'NONE',  ( 0.000000000000000000, -0.000000000000000000, 1.000000000000000000 ) ) ;
#519 = ADVANCED_FACE ( 'NONE', ( #458 ), #496, .F. ) ;
#520 = ORIENTED_EDGE ( 'NONE', *, *, #329, .T. ) ;
#521 = VECTOR ( 'NONE', #484, 1000.000000000000000 ) ;
#522 = DIRECTION ( 'NONE',  ( -1.000000000000000000, -0.000000000000000000, -0.000000000000000000 ) ) ;
#523 = FACE_OUTER_BOUND ( 'NONE', #88, .T. ) ;
#524 = ORIENTED_EDGE ( 'NONE', *, *, #273, .F. ) ;
#525 = VECTOR ( 'NONE', #336, 1000.000000000000000 ) ;
#526 = DIRECTION ( 'NONE',  ( 0.000000000000000000, -8.673617379884035472E-17, 1.000000000000000000 ) ) ;
#527 = ORIENTED_EDGE ( 'NONE', *, *, #345, .F. ) ;
#528 = EDGE_CURVE ( 'NONE', #642, #309, #11, .T. ) ;
#529 = PLANE ( 'NONE',  #17 ) ;
#530 = VERTEX_POINT ( 'NONE', #134 ) ;
#531 = CLOSED_SHELL ( 'NONE', ( #680, #618, #220, #19, #151, #372, #459, #298, #230, #177, #700, #157, #277, #173, #307, #197, #551, #382, #294, #365, #629, #519, #491 ) ) ;
#532 =( GEOMETRIC_REPRESENTATION_CONTEXT ( 3 ) GLOBAL_UNCERTAINTY_ASSIGNED_CONTEXT ( ( #190 ) ) GLOBAL_UNIT_ASSIGNED_CONTEXT ( ( #168, #452, #498 ) ) REPRESENTATION_CONTEXT ( 'NONE', 'WORKASPACE' ) );
#533 = EDGE_CURVE ( 'NONE', #724, #34, #689, .T. ) ;
#534 = CARTESIAN_POINT ( 'NONE',  ( 99.00000000000000000, -3.999999999999999112, -8.000000000000000000 ) ) ;
#535 = ORIENTED_EDGE ( 'NONE', *, *, #123, .F. ) ;
#536 = VECTOR ( 'NONE', #90, 1000.000000000000000 ) ;
#537 = DIRECTION ( 'NONE',  ( 0.000000000000000000, 0.000000000000000000, 1.000000000000000000 ) ) ;
#538 = CARTESIAN_POINT ( 'NONE',  ( 99.00000000000000000, 2.000000000000000000, 10.00000000000000000 ) ) ;
#539 = EDGE_LOOP ( 'NONE', ( #639, #360, #439, #610 ) ) ;
#540 = ORIENTED_EDGE ( 'NONE', *, *, #94, .F. ) ;
#541 = DIRECTION ( 'NONE',  ( 0.000000000000000000, 0.000000000000000000, -1.000000000000000000 ) ) ;
#542 = CARTESIAN_POINT ( 'NONE',  ( 0.000000000000000000, -5.999999999999997335, -10.00000000000000000 ) ) ;
#543 = EDGE_LOOP ( 'NONE', ( #355, #259, #46, #363 ) ) ;
#544 = ORIENTED_EDGE ( 'NONE', *, *, #72, .F. ) ;
#545 = EDGE_CURVE ( 'NONE', #584, #376, #73, .T. ) ;
#546 = LINE ( 'NONE', #330, #254 ) ;
#547 = VECTOR ( 'NONE', #279, 1000.000000000000000 ) ;
#548 = LINE ( 'NONE', #206, #536 ) ;
#549 = EDGE_LOOP ( 'NONE', ( #159, #480, #148, #109 ) ) ;
#550 = ORIENTED_EDGE ( 'NONE', *, *, #31, .T. ) ;
#551 = ADVANCED_FACE ( 'NONE', ( #361 ), #150, .F. ) ;
#552 = CARTESIAN_POINT ( 'NONE',  ( 99.00000000000000000, 2.000000000000000000, 6.000000000000000000 ) ) ;
#553 = CARTESIAN_POINT ( 'NONE',  ( 0.000000000000000000, -3.999999999999999112, -8.000000000000000000 ) ) ;
#554 = ORIENTED_EDGE ( 'NONE', *, *, #352, .F. ) ;
#555 = EDGE_CURVE ( 'NONE', #86, #91, #181, .T. ) ;
#556 = DIRECTION ( 'NONE',  ( 0.000000000000000000, 0.000000000000000000, 1.000000000000000000 ) ) ;
#557 = CARTESIAN_POINT ( 'NONE',  ( 0.000000000000000000, -2.000000000000000000, -6.000000000000000000 ) ) ;
#558 = CARTESIAN_POINT ( 'NONE',  ( 0.000000000000000000, -4.000000000000000888, 8.000000000000000000 ) ) ;
#559 = EDGE_CURVE ( 'NONE', #530, #303, #239, .T. ) ;
#560 = DIRECTION ( 'NONE',  ( 0.000000000000000000, -0.000000000000000000, -1.000000000000000000 ) ) ;
#561 = VECTOR ( 'NONE', #522, 1000.000000000000000 ) ;
#562 = CARTESIAN_POINT ( 'NONE',  ( 99.00000000000000000, 0.000000000000000000, -4.000000000000000000 ) ) ;
#563 = AXIS2_PLACEMENT_3D ( 'NONE', #564, #284, #505 ) ;
#564 = CARTESIAN_POINT ( 'NONE',  ( 99.00000000000000000, 0.000000000000000000, 0.000000000000000000 ) ) ;
#565 = EDGE_CURVE ( 'NONE', #91, #51, #41, .T. ) ;
#566 = LINE ( 'NONE', #285, #690 ) ;
#567 = ORIENTED_EDGE ( 'NONE', *, *, #565, .T. ) ;
#568 = CARTESIAN_POINT ( 'NONE',  ( 99.00000000000000000, -4.000000000000000888, 8.000000000000000000 ) ) ;
#569 = DIRECTION ( 'NONE',  ( -1.000000000000000000, -0.000000000000000000, -0.000000000000000000 ) ) ;
#570 = LINE ( 'NONE', #503, #471 ) ;
#571 = CARTESIAN_POINT ( 'NONE',  ( 99.00000000000000000, 0.000000000000000000, 4.000000000000000000 ) ) ;
#572 = VECTOR ( 'NONE', #693, 1000.000000000000000 ) ;
#573 = FACE_OUTER_BOUND ( 'NONE', #539, .T. ) ;
#574 =( GEOMETRIC_REPRESENTATION_CONTEXT ( 3 ) GLOBAL_UNCERTAINTY_ASSIGNED_CONTEXT ( ( #74 ) ) GLOBAL_UNIT_ASSIGNED_CONTEXT ( ( #364, #631, #694 ) ) REPRESENTATION_CONTEXT ( 'NONE', 'WORKASPACE' ) );
#575 = DIRECTION ( 'NONE',  ( -0.000000000000000000, 2.168404344971009854E-16, -1.000000000000000000 ) ) ;
#576 = ORIENTED_EDGE ( 'NONE', *, *, #77, .F. ) ;
#577 = CARTESIAN_POINT ( 'NONE',  ( 101.0000000000000000, 2.000000000000000000, -10.00000000000000000 ) ) ;
#578 = EDGE_CURVE ( 'NONE', #203, #235, #21, .T. ) ;
#579 = PLANE ( 'NONE',  #257 ) ;
#580 = VERTEX_POINT ( 'NONE', #641 ) ;
#581 = LINE ( 'NONE', #577, #209 ) ;
#582 = EDGE_CURVE ( 'NONE', #580, #192, #581, .T. ) ;
#583 = FILL_AREA_STYLE ('',( #698 ) ) ;
#584 = VERTEX_POINT ( 'NONE', #634 ) ;
#585 = DIRECTION ( 'NONE',  ( 0.000000000000000000, 0.000000000000000000, 1.000000000000000000 ) ) ;
#586 = ORIENTED_EDGE ( 'NONE', *, *, #455, .F. ) ;
#587 = EDGE_CURVE ( 'NONE', #470, #671, #297, .T. ) ;
#588 = CARTESIAN_POINT ( 'NONE',  ( 101.0000000000000000, 2.000000000000000000, 10.00000000000000000 ) ) ;
#589 = ORIENTED_EDGE ( 'NONE', *, *, #135, .F. ) ;
#590 = DIRECTION ( 'NONE',  ( 0.000000000000000000, 0.000000000000000000, 1.000000000000000000 ) ) ;
#591 = EDGE_LOOP ( 'NONE', ( #154, #430, #648, #314, #319, #44, #40, #695, #527, #269, #596, #26 ) ) ;
#592 = ORIENTED_EDGE ( 'NONE', *, *, #123, .T. ) ;
#593 = LINE ( 'NONE', #638, #301 ) ;
#594 = EDGE_CURVE ( 'NONE', #328, #642, #412, .T. ) ;
#595 = DIRECTION ( 'NONE',  ( -1.000000000000000000, -0.000000000000000000, -0.000000000000000000 ) ) ;
#596 = ORIENTED_EDGE ( 'NONE', *, *, #478, .T. ) ;
#597 = VERTEX_POINT ( 'NONE', #377 ) ;
#598 = VECTOR ( 'NONE', #114, 1000.000000000000000 ) ;
#599 = DIRECTION ( 'NONE',  ( 0.000000000000000000, -8.673617379884035472E-17, 1.000000000000000000 ) ) ;
#600 = ORIENTED_EDGE ( 'NONE', *, *, #660, .F. ) ;
#601 = VECTOR ( 'NONE', #12, 1000.000000000000000 ) ;
#602 = DIRECTION ( 'NONE',  ( 0.000000000000000000, -2.168404344971009608E-16, 1.000000000000000000 ) ) ;
#603 = LINE ( 'NONE', #103, #225 ) ;
#604 = EDGE_CURVE ( 'NONE', #692, #334, #593, .T. ) ;
#605 = ORIENTED_EDGE ( 'NONE', *, *, #405, .F. ) ;
#606 = VERTEX_POINT ( 'NONE', #69 ) ;
#607 = AXIS2_PLACEMENT_3D ( 'NONE', #62, #463, #111 ) ;
#608 = VECTOR ( 'NONE', #440, 1000.000000000000000 ) ;
#609 = CARTESIAN_POINT ( 'NONE',  ( -2.000000000000000000, -5.999999999999997335, -10.00000000000000000 ) ) ;
#610 = ORIENTED_EDGE ( 'NONE', *, *, #357, .F. ) ;
#611 = SHAPE_DEFINITION_REPRESENTATION ( #241, #331 ) ;
#612 = AXIS2_PLACEMENT_3D ( 'NONE', #29, #424, #585 ) ;
#613 = DIRECTION ( 'NONE',  ( -1.000000000000000000, 0.000000000000000000, -0.000000000000000000 ) ) ;
#614 = CARTESIAN_POINT ( 'NONE',  ( 99.00000000000000000, -5.999999999999997335, -8.000000000000000000 ) ) ;
#615 = CARTESIAN_POINT ( 'NONE',  ( 99.00000000000000000, -4.000000000000000000, 4.000000000000001776 ) ) ;
#616 = DIRECTION ( 'NONE',  ( 1.000000000000000000, -0.000000000000000000, -0.000000000000000000 ) ) ;
#617 = DIRECTION ( 'NONE',  ( -1.000000000000000000, -0.000000000000000000, -0.000000000000000000 ) ) ;
#618 = ADVANCED_FACE ( 'NONE', ( #131 ), #261, .F. ) ;
#619 = ORIENTED_EDGE ( 'NONE', *, *, #392, .T. ) ;
#620 = DIRECTION ( 'NONE',  ( 1.000000000000000000, 0.000000000000000000, 0.000000000000000000 ) ) ;
#621 = AXIS2_PLACEMENT_3D ( 'NONE', #653, #293, #236 ) ;
#622 = LINE ( 'NONE', #675, #547 ) ;
#623 = VECTOR ( 'NONE', #176, 1000.000000000000000 ) ;
#624 = CARTESIAN_POINT ( 'NONE',  ( 99.00000000000000000, 2.000000000000000000, -6.000000000000000000 ) ) ;
#625 = EDGE_CURVE ( 'NONE', #182, #328, #517, .T. ) ;
#626 = CARTESIAN_POINT ( 'NONE',  ( 0.000000000000000000, 2.000000000000000000, -6.000000000000000000 ) ) ;
#627 = CARTESIAN_POINT ( 'NONE',  ( 99.00000000000000000, -4.000000000000000888, 8.000000000000000000 ) ) ;
#628 = DIRECTION ( 'NONE',  ( 0.000000000000000000, -0.000000000000000000, -1.000000000000000000 ) ) ;
#629 = ADVANCED_FACE ( 'NONE', ( #573 ), #249, .F. ) ;
#630 = DIRECTION ( 'NONE',  ( 1.000000000000000000, 0.000000000000000000, 0.000000000000000000 ) ) ;
#631 =( NAMED_UNIT ( * ) PLANE_ANGLE_UNIT ( ) SI_UNIT ( $, .RADIAN. ) );
#632 = ORIENTED_EDGE ( 'NONE', *, *, #72, .T. ) ;
#633 = EDGE_CURVE ( 'NONE', #530, #580, #127, .T. ) ;
#634 = CARTESIAN_POINT ( 'NONE',  ( 0.000000000000000000, 2.000000000000000000, 6.000000000000000000 ) ) ;
#635 = AXIS2_PLACEMENT_3D ( 'NONE', #42, #326, #262 ) ;
#636 = CARTESIAN_POINT ( 'NONE',  ( 99.00000000000000000, -4.000000000000000888, 8.000000000000000000 ) ) ;
#637 = ORIENTED_EDGE ( 'NONE', *, *, #649, .F. ) ;
#638 = CARTESIAN_POINT ( 'NONE',  ( 99.00000000000000000, -5.999999999999997335, -10.00000000000000000 ) ) ;
#639 = ORIENTED_EDGE ( 'NONE', *, *, #106, .F. ) ;
#640 = PRODUCT_DEFINITION ( 'UNKNOWN', '', #669, #686 ) ;
#641 = CARTESIAN_POINT ( 'NONE',  ( 101.0000000000000000, 2.000000000000000000, -10.00000000000000000 ) ) ;
#642 = VERTEX_POINT ( 'NONE', #138 ) ;
#643 = AXIS2_PLACEMENT_3D ( 'NONE', #93, #630, #78 ) ;
#644 = PLANE ( 'NONE',  #426 ) ;
#645 = AXIS2_PLACEMENT_3D ( 'NONE', #674, #56, #613 ) ;
#646 = EDGE_LOOP ( 'NONE', ( #275, #145, #195, #53, #554, #233, #435, #179 ) ) ;
#647 = CARTESIAN_POINT ( 'NONE',  ( 99.00000000000000000, -2.000000000000000000, -6.000000000000000000 ) ) ;
#648 = ORIENTED_EDGE ( 'NONE', *, *, #36, .F. ) ;
#649 = EDGE_CURVE ( 'NONE', #724, #97, #353, .T. ) ;
#650 = LINE ( 'NONE', #374, #448 ) ;
#651 = ORIENTED_EDGE ( 'NONE', *, *, #289, .F. ) ;
#652 = EDGE_LOOP ( 'NONE', ( #516, #84, #300, #201 ) ) ;
#653 = CARTESIAN_POINT ( 'NONE',  ( 99.00000000000000000, -2.000000000000000000, -10.00000000000000000 ) ) ;
#654 = VECTOR ( 'NONE', #282, 1000.000000000000000 ) ;
#655 = EDGE_CURVE ( 'NONE', #718, #413, #245, .T. ) ;
#656 = FACE_OUTER_BOUND ( 'NONE', #428, .T. ) ;
#657 = ORIENTED_EDGE ( 'NONE', *, *, #211, .F. ) ;
#658 = ORIENTED_EDGE ( 'NONE', *, *, #423, .T. ) ;
#659 = VECTOR ( 'NONE', #278, 1000.000000000000000 ) ;
#660 = EDGE_CURVE ( 'NONE', #470, #642, #156, .T. ) ;
#661 = PLANE ( 'NONE',  #673 ) ;
#662 = EDGE_LOOP ( 'NONE', ( #431, #705, #725, #117, #221, #657, #16, #483 ) ) ;
#663 = VECTOR ( 'NONE', #569, 1000.000000000000000 ) ;
#664 = ORIENTED_EDGE ( 'NONE', *, *, #392, .F. ) ;
#665 = CARTESIAN_POINT ( 'NONE',  ( 99.00000000000000000, -2.000000000000000000, -10.00000000000000000 ) ) ;
#666 = CARTESIAN_POINT ( 'NONE',  ( 0.000000000000000000, -5.999999999999997335, -10.00000000000000000 ) ) ;
#667 = EDGE_CURVE ( 'NONE', #50, #410, #676, .T. ) ;
#668 = ORIENTED_EDGE ( 'NONE', *, *, #582, .T. ) ;
#669 = PRODUCT_DEFINITION_FORMATION_WITH_SPECIFIED_SOURCE ( 'ANY', '', #99, .NOT_KNOWN. ) ;
#670 = CARTESIAN_POINT ( 'NONE',  ( 0.000000000000000000, 0.000000000000000000, 4.000000000000000000 ) ) ;
#671 = VERTEX_POINT ( 'NONE', #490 ) ;
#672 = DIRECTION ( 'NONE',  ( 0.000000000000000000, 0.000000000000000000, 1.000000000000000000 ) ) ;
#673 = AXIS2_PLACEMENT_3D ( 'NONE', #333, #429, #271 ) ;
#674 = CARTESIAN_POINT ( 'NONE',  ( 99.00000000000000000, 2.000000000000000000, 6.000000000000000000 ) ) ;
#675 = CARTESIAN_POINT ( 'NONE',  ( -2.000000000000000000, 2.000000000000000000, -10.00000000000000000 ) ) ;
#676 = LINE ( 'NONE', #393, #222 ) ;
#677 = LINE ( 'NONE', #499, #502 ) ;
#678 = LINE ( 'NONE', #406, #139 ) ;
#679 = ORIENTED_EDGE ( 'NONE', *, *, #478, .F. ) ;
#680 = ADVANCED_FACE ( 'NONE', ( #321 ), #165, .F. ) ;
#681 = VECTOR ( 'NONE', #237, 1000.000000000000000 ) ;
#682 = CARTESIAN_POINT ( 'NONE',  ( -2.000000000000000000, 0.000000000000000000, 0.000000000000000000 ) ) ;
#683 = DIRECTION ( 'NONE',  ( 0.000000000000000000, 8.673617379884035472E-17, -1.000000000000000000 ) ) ;
#684 = EDGE_CURVE ( 'NONE', #192, #98, #546, .T. ) ;
#685 = CARTESIAN_POINT ( 'NONE',  ( 0.000000000000000000, -2.000000000000000000, -6.000000000000000000 ) ) ;
#686 = PRODUCT_DEFINITION_CONTEXT ( 'detailed design', #493, 'design' ) ;
#687 = LINE ( 'NONE', #178, #311 ) ;
#688 = VERTEX_POINT ( 'NONE', #388 ) ;
#689 = LINE ( 'NONE', #465, #312 ) ;
#690 = VECTOR ( 'NONE', #15, 1000.000000000000000 ) ;
#691 = DIRECTION ( 'NONE',  ( 1.000000000000000000, 0.000000000000000000, 0.000000000000000000 ) ) ;
#692 = VERTEX_POINT ( 'NONE', #495 ) ;
#693 = DIRECTION ( 'NONE',  ( -0.000000000000000000, 1.000000000000000000, -4.336808689942017736E-16 ) ) ;
#694 =( NAMED_UNIT ( * ) SI_UNIT ( $, .STERADIAN. ) SOLID_ANGLE_UNIT ( ) );
#695 = ORIENTED_EDGE ( 'NONE', *, *, #106, .T. ) ;
#696 = DIRECTION ( 'NONE',  ( -1.000000000000000000, -0.000000000000000000, -0.000000000000000000 ) ) ;
#697 = VECTOR ( 'NONE', #60, 1000.000000000000000 ) ;
#698 = FILL_AREA_STYLE_COLOUR ( '', #304 ) ;
#699 = ORIENTED_EDGE ( 'NONE', *, *, #545, .F. ) ;
#700 = ADVANCED_FACE ( 'NONE', ( #216 ), #48, .F. ) ;
#701 = CARTESIAN_POINT ( 'NONE',  ( 99.00000000000000000, -5.999999999999999112, 8.000000000000000000 ) ) ;
#702 = CARTESIAN_POINT ( 'NONE',  ( -2.000000000000000000, -5.999999999999999112, 10.00000000000000000 ) ) ;
#703 = EDGE_LOOP ( 'NONE', ( #550, #467, #486, #39 ) ) ;
#704 = EDGE_CURVE ( 'NONE', #272, #50, #112, .T. ) ;
#705 = ORIENTED_EDGE ( 'NONE', *, *, #528, .F. ) ;
#706 = LINE ( 'NONE', #534, #213 ) ;
#707 = STYLED_ITEM ( 'NONE', ( #250 ), #180 ) ;
#708 = EDGE_LOOP ( 'NONE', ( #264, #600, #540, #489 ) ) ;
#709 = PLANE ( 'NONE',  #356 ) ;
#710 = ORIENTED_EDGE ( 'NONE', *, *, #265, .T. ) ;
#711 = ORIENTED_EDGE ( 'NONE', *, *, #545, .T. ) ;
#712 = EDGE_CURVE ( 'NONE', #97, #23, #339, .T. ) ;
#713 = CARTESIAN_POINT ( 'NONE',  ( 99.00000000000000000, -4.000000000000000000, -4.000000000000001776 ) ) ;
#714 = DIRECTION ( 'NONE',  ( -1.000000000000000000, -0.000000000000000000, -0.000000000000000000 ) ) ;
#715 = ORIENTED_EDGE ( 'NONE', *, *, #55, .T. ) ;
#716 = EDGE_LOOP ( 'NONE', ( #129, #524, #218, #133 ) ) ;
#717 = CARTESIAN_POINT ( 'NONE',  ( 0.000000000000000000, 0.000000000000000000, -4.000000000000000000 ) ) ;
#718 = VERTEX_POINT ( 'NONE', #552 ) ;
#719 = MECHANICAL_DESIGN_GEOMETRIC_PRESENTATION_REPRESENTATION (  '', ( #707 ), #574 ) ;
#720 = DIRECTION ( 'NONE',  ( -0.000000000000000000, 1.000000000000000000, -0.000000000000000000 ) ) ;
#721 = PRODUCT_RELATED_PRODUCT_CATEGORY ( 'part', '', ( #99 ) ) ;
#722 = EDGE_CURVE ( 'NONE', #692, #80, #325, .T. ) ;
#723 = FACE_OUTER_BOUND ( 'NONE', #366, .T. ) ;
#724 = VERTEX_POINT ( 'NONE', #280 ) ;
#725 = ORIENTED_EDGE ( 'NONE', *, *, #594, .F. ) ;
ENDSEC;
END-ISO-10303-21;
