ISO-10303-21;
HEADER;
FILE_DESCRIPTION (( 'STEP AP214' ),
    '1' );
FILE_NAME ('Cross Bracket V1.STEP',
    '2026-09-09T13:51:36',
    ( '' ),
    ( '' ),
    'SwSTEP 2.0',
    'SolidWorks 2026',
    '' );
FILE_SCHEMA (( 'AUTOMOTIVE_DESIGN' ));
ENDSEC;

DATA;
#1 = CARTESIAN_POINT ( 'NONE',  ( 65.00000000000000000, 3.000000000000000000, -10.00000000000000000 ) ) ;
#2 = EDGE_LOOP ( 'NONE', ( #555, #44 ) ) ;
#3 = DIRECTION ( 'NONE',  ( -0.000000000000000000, -1.000000000000000000, -0.000000000000000000 ) ) ;
#4 = VECTOR ( 'NONE', #326, 1000.000000000000000 ) ;
#5 = ORIENTED_EDGE ( 'NONE', *, *, #510, .F. ) ;
#6 = EDGE_CURVE ( 'NONE', #427, #291, #285, .T. ) ;
#7 = CARTESIAN_POINT ( 'NONE',  ( 80.00000000000000000, 6.000000000000000000, -43.00000000000000000 ) ) ;
#8 = ORIENTED_EDGE ( 'NONE', *, *, #122, .T. ) ;
#9 = DIRECTION ( 'NONE',  ( -0.000000000000000000, 1.000000000000000000, -0.000000000000000000 ) ) ;
#10 = ORIENTED_EDGE ( 'NONE', *, *, #454, .F. ) ;
#11 = LINE ( 'NONE', #315, #437 ) ;
#12 = EDGE_CURVE ( 'NONE', #265, #141, #13, .T. ) ;
#13 = LINE ( 'NONE', #412, #77 ) ;
#14 = PLANE ( 'NONE',  #154 ) ;
#15 = DIRECTION ( 'NONE',  ( 0.000000000000000000, 0.000000000000000000, -1.000000000000000000 ) ) ;
#16 = DIRECTION ( 'NONE',  ( 0.000000000000000000, 0.000000000000000000, 1.000000000000000000 ) ) ;
#17 = FACE_OUTER_BOUND ( 'NONE', #172, .T. ) ;
#18 = DIRECTION ( 'NONE',  ( 0.000000000000000000, 1.000000000000000000, 0.000000000000000000 ) ) ;
#19 = EDGE_CURVE ( 'NONE', #535, #269, #360, .T. ) ;
#20 = VECTOR ( 'NONE', #75, 1000.000000000000000 ) ;
#21 = CYLINDRICAL_SURFACE ( 'NONE', #199, 1.500000000000001332 ) ;
#22 = EDGE_CURVE ( 'NONE', #435, #210, #59, .T. ) ;
#23 = DIRECTION ( 'NONE',  ( 0.000000000000000000, 1.000000000000000000, 0.000000000000000000 ) ) ;
#24 = CARTESIAN_POINT ( 'NONE',  ( 40.00000000000000711, 6.000000000000000000, -15.62237978754595247 ) ) ;
#25 = DIRECTION ( 'NONE',  ( 0.000000000000000000, -1.000000000000000000, 0.000000000000000000 ) ) ;
#26 = CARTESIAN_POINT ( 'NONE',  ( 80.00000000000000000, 6.000000000000000000, -43.00000000000000000 ) ) ;
#27 = LINE ( 'NONE', #293, #545 ) ;
#28 = ORIENTED_EDGE ( 'NONE', *, *, #33, .F. ) ;
#29 = CARTESIAN_POINT ( 'NONE',  ( 63.00000000000000000, 6.000000000000000000, -21.50000000000000000 ) ) ;
#30 = CIRCLE ( 'NONE', #145, 1.499999999999997780 ) ;
#31 = CARTESIAN_POINT ( 'NONE',  ( 0.000000000000000000, 6.000000000000000000, 0.000000000000000000 ) ) ;
#32 = VERTEX_POINT ( 'NONE', #321 ) ;
#33 = EDGE_CURVE ( 'NONE', #566, #335, #350, .T. ) ;
#34 = FACE_BOUND ( 'NONE', #549, .T. ) ;
#35 = ORIENTED_EDGE ( 'NONE', *, *, #19, .T. ) ;
#36 = EDGE_CURVE ( 'NONE', #427, #80, #553, .T. ) ;
#37 = CARTESIAN_POINT ( 'NONE',  ( 0.000000000000000000, 0.000000000000000000, 0.000000000000000000 ) ) ;
#38 = AXIS2_PLACEMENT_3D ( 'NONE', #230, #395, #272 ) ;
#39 = PLANE ( 'NONE',  #490 ) ;
#40 = ORIENTED_EDGE ( 'NONE', *, *, #36, .T. ) ;
#41 = CARTESIAN_POINT ( 'NONE',  ( 17.00000000000000355, 0.000000000000000000, -21.50000000000000000 ) ) ;
#42 = EDGE_LOOP ( 'NONE', ( #135, #444 ) ) ;
#43 = LINE ( 'NONE', #307, #188 ) ;
#44 = ORIENTED_EDGE ( 'NONE', *, *, #478, .F. ) ;
#45 = CARTESIAN_POINT ( 'NONE',  ( 66.50000000000000000, 3.000000000000000000, -10.00000000000000000 ) ) ;
#46 = VERTEX_POINT ( 'NONE', #331 ) ;
#47 = PRODUCT_DEFINITION_FORMATION_WITH_SPECIFIED_SOURCE ( 'ANY', '', #507, .NOT_KNOWN. ) ;
#48 = CARTESIAN_POINT ( 'NONE',  ( 0.000000000000000000, 6.000000000000000000, -43.00000000000000000 ) ) ;
#49 = ORIENTED_EDGE ( 'NONE', *, *, #454, .T. ) ;
#50 = AXIS2_PLACEMENT_3D ( 'NONE', #564, #120, #419 ) ;
#51 = DIRECTION ( 'NONE',  ( 0.000000000000000000, 0.000000000000000000, -1.000000000000000000 ) ) ;
#52 = ORIENTED_EDGE ( 'NONE', *, *, #196, .F. ) ;
#53 = ADVANCED_FACE ( 'NONE', ( #200 ), #114, .F. ) ;
#54 = EDGE_CURVE ( 'NONE', #523, #46, #529, .T. ) ;
#55 = CARTESIAN_POINT ( 'NONE',  ( 66.50000000000000000, 3.000000000000000000, -10.00000000000000000 ) ) ;
#56 = ORIENTED_EDGE ( 'NONE', *, *, #214, .T. ) ;
#57 = DIRECTION ( 'NONE',  ( -0.000000000000000000, 1.000000000000000000, -0.000000000000000000 ) ) ;
#58 = EDGE_CURVE ( 'NONE', #337, #492, #351, .T. ) ;
#59 = LINE ( 'NONE', #193, #334 ) ;
#60 = PLANE ( 'NONE',  #105 ) ;
#61 = DIRECTION ( 'NONE',  ( -0.000000000000000000, 1.000000000000000000, -0.000000000000000000 ) ) ;
#62 = CARTESIAN_POINT ( 'NONE',  ( 80.00000000000000000, 6.000000000000000000, 0.000000000000000000 ) ) ;
#63 = ADVANCED_FACE ( 'NONE', ( #102, #156, #108, #153 ), #60, .F. ) ;
#64 = ADVANCED_FACE ( 'NONE', ( #544 ), #14, .F. ) ;
#65 = DIRECTION ( 'NONE',  ( -1.000000000000000000, 0.000000000000000000, 0.000000000000000000 ) ) ;
#66 = VECTOR ( 'NONE', #436, 1000.000000000000000 ) ;
#67 = UNCERTAINTY_MEASURE_WITH_UNIT (LENGTH_MEASURE( 1.000000000000000082E-05 ), #289, 'distance_accuracy_value', 'NONE');
#68 = AXIS2_PLACEMENT_3D ( 'NONE', #1, #441, #266 ) ;
#69 = CARTESIAN_POINT ( 'NONE',  ( 80.00000000000000000, 0.000000000000000000, -43.00000000000000000 ) ) ;
#70 = CARTESIAN_POINT ( 'NONE',  ( 15.00000000000000000, 3.000000000000000000, 0.000000000000000000 ) ) ;
#71 = ADVANCED_FACE ( 'NONE', ( #542, #111, #150 ), #367, .F. ) ;
#72 = DIRECTION ( 'NONE',  ( 0.000000000000000000, 0.000000000000000000, 1.000000000000000000 ) ) ;
#73 = DIRECTION ( 'NONE',  ( 1.000000000000000000, 0.000000000000000000, 0.000000000000000000 ) ) ;
#74 = ORIENTED_EDGE ( 'NONE', *, *, #405, .F. ) ;
#75 = DIRECTION ( 'NONE',  ( -0.000000000000000000, -0.000000000000000000, 1.000000000000000000 ) ) ;
#76 = ORIENTED_EDGE ( 'NONE', *, *, #371, .F. ) ;
#77 = VECTOR ( 'NONE', #448, 1000.000000000000000 ) ;
#78 = CIRCLE ( 'NONE', #440, 1.500000000000001332 ) ;
#79 = FACE_BOUND ( 'NONE', #432, .T. ) ;
#80 = VERTEX_POINT ( 'NONE', #241 ) ;
#81 = FACE_OUTER_BOUND ( 'NONE', #42, .T. ) ;
#82 = ORIENTED_EDGE ( 'NONE', *, *, #363, .F. ) ;
#83 = EDGE_CURVE ( 'NONE', #46, #523, #78, .T. ) ;
#84 = DIRECTION ( 'NONE',  ( -1.000000000000000000, -0.000000000000000000, -0.000000000000000000 ) ) ;
#85 = ORIENTED_EDGE ( 'NONE', *, *, #286, .F. ) ;
#86 = VECTOR ( 'NONE', #560, 1000.000000000000000 ) ;
#87 = CARTESIAN_POINT ( 'NONE',  ( 63.00000000000000000, 0.000000000000000000, -21.50000000000000000 ) ) ;
#88 = ORIENTED_EDGE ( 'NONE', *, *, #328, .F. ) ;
#89 = ADVANCED_FACE ( 'NONE', ( #281 ), #453, .F. ) ;
#90 = CYLINDRICAL_SURFACE ( 'NONE', #68, 1.500000000000001332 ) ;
#91 = ORIENTED_EDGE ( 'NONE', *, *, #339, .F. ) ;
#92 = CYLINDRICAL_SURFACE ( 'NONE', #314, 1.899999999999999023 ) ;
#93 = ORIENTED_EDGE ( 'NONE', *, *, #328, .T. ) ;
#94 = CARTESIAN_POINT ( 'NONE',  ( 65.00000000000000000, 3.000000000000000000, -10.00000000000000000 ) ) ;
#95 = VERTEX_POINT ( 'NONE', #290 ) ;
#96 = AXIS2_PLACEMENT_3D ( 'NONE', #206, #297, #414 ) ;
#97 = PRODUCT_DEFINITION_CONTEXT ( 'detailed design', #329, 'design' ) ;
#98 = CARTESIAN_POINT ( 'NONE',  ( 17.00000000000000355, 0.000000000000000000, -23.39999999999999858 ) ) ;
#99 = ORIENTED_EDGE ( 'NONE', *, *, #175, .T. ) ;
#100 = EDGE_CURVE ( 'NONE', #442, #514, #420, .T. ) ;
#101 = LINE ( 'NONE', #98, #287 ) ;
#102 = FACE_BOUND ( 'NONE', #167, .T. ) ;
#103 =( LENGTH_UNIT ( ) NAMED_UNIT ( * ) SI_UNIT ( .MILLI., .METRE. ) );
#104 = DIRECTION ( 'NONE',  ( 0.000000000000000000, 0.000000000000000000, -1.000000000000000000 ) ) ;
#105 = AXIS2_PLACEMENT_3D ( 'NONE', #277, #502, #403 ) ;
#106 = CIRCLE ( 'NONE', #558, 5.499999999999996447 ) ;
#107 = CYLINDRICAL_SURFACE ( 'NONE', #498, 1.499999999999997780 ) ;
#108 = FACE_BOUND ( 'NONE', #516, .T. ) ;
#109 = EDGE_CURVE ( 'NONE', #459, #435, #247, .T. ) ;
#110 = DIRECTION ( 'NONE',  ( 1.000000000000000000, -0.000000000000000000, 0.000000000000000000 ) ) ;
#111 = FACE_BOUND ( 'NONE', #228, .T. ) ;
#112 = DIRECTION ( 'NONE',  ( 0.000000000000000000, 1.000000000000000000, 0.000000000000000000 ) ) ;
#113 = CIRCLE ( 'NONE', #191, 5.499999999999996447 ) ;
#114 = CYLINDRICAL_SURFACE ( 'NONE', #471, 1.899999999999999023 ) ;
#115 = CIRCLE ( 'NONE', #358, 1.900000000000002354 ) ;
#116 = ADVANCED_FACE ( 'NONE', ( #376 ), #561, .T. ) ;
#117 = DIRECTION ( 'NONE',  ( 1.000000000000000000, 0.000000000000000000, -0.000000000000000000 ) ) ;
#118 = ORIENTED_EDGE ( 'NONE', *, *, #439, .F. ) ;
#119 = CARTESIAN_POINT ( 'NONE',  ( 40.00000000000000711, 6.000000000000000000, -21.12237978754594891 ) ) ;
#120 = DIRECTION ( 'NONE',  ( 0.000000000000000000, 1.000000000000000000, 0.000000000000000000 ) ) ;
#121 = EDGE_LOOP ( 'NONE', ( #345, #389, #430, #559 ) ) ;
#122 = EDGE_CURVE ( 'NONE', #514, #442, #520, .T. ) ;
#123 = FACE_OUTER_BOUND ( 'NONE', #488, .T. ) ;
#124 = ORIENTED_EDGE ( 'NONE', *, *, #271, .F. ) ;
#125 = CIRCLE ( 'NONE', #151, 1.900000000000002354 ) ;
#126 = AXIS2_PLACEMENT_3D ( 'NONE', #94, #356, #434 ) ;
#127 = CARTESIAN_POINT ( 'NONE',  ( 65.00000000000000000, 3.000000000000000000, -10.00000000000000000 ) ) ;
#128 = EDGE_LOOP ( 'NONE', ( #91, #258, #477, #224 ) ) ;
#129 = DIRECTION ( 'NONE',  ( 0.000000000000000000, 0.000000000000000000, 1.000000000000000000 ) ) ;
#130 = ORIENTED_EDGE ( 'NONE', *, *, #100, .F. ) ;
#131 = CARTESIAN_POINT ( 'NONE',  ( 0.000000000000000000, 0.000000000000000000, -43.00000000000000000 ) ) ;
#132 = ORIENTED_EDGE ( 'NONE', *, *, #196, .T. ) ;
#133 = UNCERTAINTY_MEASURE_WITH_UNIT (LENGTH_MEASURE( 1.000000000000000082E-05 ), #103, 'distance_accuracy_value', 'NONE');
#134 = CARTESIAN_POINT ( 'NONE',  ( 40.00000000000000711, 6.000000000000000000, -26.62237978754594536 ) ) ;
#135 = ORIENTED_EDGE ( 'NONE', *, *, #181, .T. ) ;
#136 = DIRECTION ( 'NONE',  ( 0.000000000000000000, 0.000000000000000000, -1.000000000000000000 ) ) ;
#137 = ORIENTED_EDGE ( 'NONE', *, *, #439, .T. ) ;
#138 = EDGE_CURVE ( 'NONE', #347, #95, #30, .T. ) ;
#139 = CYLINDRICAL_SURFACE ( 'NONE', #468, 1.900000000000002354 ) ;
#140 = EDGE_CURVE ( 'NONE', #141, #459, #250, .T. ) ;
#141 = VERTEX_POINT ( 'NONE', #212 ) ;
#142 = CIRCLE ( 'NONE', #409, 1.899999999999999023 ) ;
#143 = CARTESIAN_POINT ( 'NONE',  ( 63.50000000000000000, 3.000000000000000000, -10.00000000000000000 ) ) ;
#144 = EDGE_LOOP ( 'NONE', ( #485, #130 ) ) ;
#145 = AXIS2_PLACEMENT_3D ( 'NONE', #219, #159, #463 ) ;
#146 = ADVANCED_FACE ( 'NONE', ( #81 ), #39, .T. ) ;
#147 = FACE_OUTER_BOUND ( 'NONE', #263, .T. ) ;
#148 = CARTESIAN_POINT ( 'NONE',  ( 63.00000000000000000, 6.000000000000000000, -21.50000000000000000 ) ) ;
#149 = FILL_AREA_STYLE_COLOUR ( '', #170 ) ;
#150 = FACE_OUTER_BOUND ( 'NONE', #121, .T. ) ;
#151 = AXIS2_PLACEMENT_3D ( 'NONE', #87, #390, #388 ) ;
#152 = DIRECTION ( 'NONE',  ( 0.000000000000000000, 0.000000000000000000, 1.000000000000000000 ) ) ;
#153 = FACE_OUTER_BOUND ( 'NONE', #480, .T. ) ;
#154 = AXIS2_PLACEMENT_3D ( 'NONE', #365, #330, #505 ) ;
#155 = DIRECTION ( 'NONE',  ( 1.000000000000000000, 0.000000000000000000, 0.000000000000000000 ) ) ;
#156 = FACE_BOUND ( 'NONE', #2, .T. ) ;
#157 = CARTESIAN_POINT ( 'NONE',  ( 17.00000000000000355, 0.000000000000000000, -19.59999999999999787 ) ) ;
#158 = LINE ( 'NONE', #26, #509 ) ;
#159 = DIRECTION ( 'NONE',  ( 0.000000000000000000, 0.000000000000000000, 1.000000000000000000 ) ) ;
#160 = ORIENTED_EDGE ( 'NONE', *, *, #183, .T. ) ;
#161 = ADVANCED_FACE ( 'NONE', ( #123 ), #166, .F. ) ;
#162 = APPLICATION_PROTOCOL_DEFINITION ( 'draft international standard', 'automotive_design', 1998, #329 ) ;
#163 = CARTESIAN_POINT ( 'NONE',  ( 63.00000000000000000, 0.000000000000000000, -21.50000000000000000 ) ) ;
#164 = ORIENTED_EDGE ( 'NONE', *, *, #233, .F. ) ;
#165 = LINE ( 'NONE', #518, #332 ) ;
#166 = CYLINDRICAL_SURFACE ( 'NONE', #96, 1.900000000000002354 ) ;
#167 = EDGE_LOOP ( 'NONE', ( #5, #446 ) ) ;
#168 = DIRECTION ( 'NONE',  ( 0.000000000000000000, 0.000000000000000000, 1.000000000000000000 ) ) ;
#169 = ORIENTED_EDGE ( 'NONE', *, *, #33, .T. ) ;
#170 = COLOUR_RGB ( '',0.7921568627450980005, 0.8196078431372548767, 0.9333333333333333481 ) ;
#171 = DIRECTION ( 'NONE',  ( 1.000000000000000000, 0.000000000000000000, 0.000000000000000000 ) ) ;
#172 = EDGE_LOOP ( 'NONE', ( #74, #298, #160, #8 ) ) ;
#173 = CARTESIAN_POINT ( 'NONE',  ( 80.00000000000000000, 6.000000000000000000, 0.000000000000000000 ) ) ;
#174 = ORIENTED_EDGE ( 'NONE', *, *, #138, .F. ) ;
#175 = EDGE_CURVE ( 'NONE', #190, #210, #470, .T. ) ;
#176 = CARTESIAN_POINT ( 'NONE',  ( 63.50000000000000000, 3.000000000000000000, -10.00000000000000000 ) ) ;
#177 = ORIENTED_EDGE ( 'NONE', *, *, #413, .F. ) ;
#178 = AXIS2_PLACEMENT_3D ( 'NONE', #407, #110, #15 ) ;
#179 = FACE_OUTER_BOUND ( 'NONE', #391, .T. ) ;
#180 = AXIS2_PLACEMENT_3D ( 'NONE', #148, #547, #494 ) ;
#181 = EDGE_CURVE ( 'NONE', #95, #347, #325, .T. ) ;
#182 = ORIENTED_EDGE ( 'NONE', *, *, #22, .F. ) ;
#183 = EDGE_CURVE ( 'NONE', #95, #514, #27, .T. ) ;
#184 = LINE ( 'NONE', #479, #284 ) ;
#185 = ORIENTED_EDGE ( 'NONE', *, *, #140, .F. ) ;
#186 = CIRCLE ( 'NONE', #126, 1.500000000000001332 ) ;
#187 = ADVANCED_FACE ( 'NONE', ( #34, #79, #257, #377 ), #422, .T. ) ;
#188 = VECTOR ( 'NONE', #223, 1000.000000000000000 ) ;
#189 = DIRECTION ( 'NONE',  ( -0.000000000000000000, -0.000000000000000000, 1.000000000000000000 ) ) ;
#190 = VERTEX_POINT ( 'NONE', #382 ) ;
#191 = AXIS2_PLACEMENT_3D ( 'NONE', #119, #381, #341 ) ;
#192 = DIRECTION ( 'NONE',  ( -0.000000000000000000, 1.000000000000000000, -0.000000000000000000 ) ) ;
#193 = CARTESIAN_POINT ( 'NONE',  ( 0.000000000000000000, 0.000000000000000000, 0.000000000000000000 ) ) ;
#194 = DIRECTION ( 'NONE',  ( 0.000000000000000000, 0.000000000000000000, 1.000000000000000000 ) ) ;
#195 = CARTESIAN_POINT ( 'NONE',  ( 17.00000000000000355, 0.000000000000000000, -21.50000000000000000 ) ) ;
#196 = EDGE_CURVE ( 'NONE', #393, #349, #411, .T. ) ;
#197 = DIRECTION ( 'NONE',  ( -0.000000000000000000, -0.000000000000000000, 1.000000000000000000 ) ) ;
#198 = DIRECTION ( 'NONE',  ( 1.000000000000000000, 0.000000000000000000, 0.000000000000000000 ) ) ;
#199 = AXIS2_PLACEMENT_3D ( 'NONE', #447, #361, #501 ) ;
#200 = FACE_OUTER_BOUND ( 'NONE', #232, .T. ) ;
#201 = AXIS2_PLACEMENT_3D ( 'NONE', #243, #23, #408 ) ;
#202 = AXIS2_PLACEMENT_3D ( 'NONE', #70, #333, #344 ) ;
#203 = ADVANCED_BREP_SHAPE_REPRESENTATION ( 'Cross Bracket V1', ( #461, #417 ), #252 ) ;
#204 = SURFACE_STYLE_FILL_AREA ( #320 ) ;
#205 = DIRECTION ( 'NONE',  ( 0.000000000000000000, 0.000000000000000000, 1.000000000000000000 ) ) ;
#206 = CARTESIAN_POINT ( 'NONE',  ( 63.00000000000000000, 0.000000000000000000, -21.50000000000000000 ) ) ;
#207 = PRODUCT_DEFINITION_SHAPE ( 'NONE', 'NONE',  #525 ) ;
#208 = DIRECTION ( 'NONE',  ( 1.000000000000000000, 0.000000000000000000, 0.000000000000000000 ) ) ;
#209 = DIRECTION ( 'NONE',  ( -0.000000000000000000, -0.000000000000000000, 1.000000000000000000 ) ) ;
#210 = VERTEX_POINT ( 'NONE', #513 ) ;
#211 = AXIS2_PLACEMENT_3D ( 'NONE', #508, #245, #451 ) ;
#212 = CARTESIAN_POINT ( 'NONE',  ( 0.000000000000000000, 6.000000000000000000, -43.00000000000000000 ) ) ;
#213 = ORIENTED_EDGE ( 'NONE', *, *, #473, .F. ) ;
#214 = EDGE_CURVE ( 'NONE', #291, #32, #299, .T. ) ;
#215 = ADVANCED_FACE ( 'NONE', ( #301 ), #474, .F. ) ;
#216 = APPLICATION_PROTOCOL_DEFINITION ( 'draft international standard', 'automotive_design', 1998, #375 ) ;
#217 = DIRECTION ( 'NONE',  ( 0.000000000000000000, -0.000000000000000000, -1.000000000000000000 ) ) ;
#218 = ORIENTED_EDGE ( 'NONE', *, *, #371, .T. ) ;
#219 = CARTESIAN_POINT ( 'NONE',  ( 15.00000000000000000, 3.000000000000000000, -10.00000000000000000 ) ) ;
#220 = EDGE_LOOP ( 'NONE', ( #174, #527, #449, #242 ) ) ;
#221 = VECTOR ( 'NONE', #189, 1000.000000000000000 ) ;
#222 = AXIS2_PLACEMENT_3D ( 'NONE', #554, #25, #217 ) ;
#223 = DIRECTION ( 'NONE',  ( -0.000000000000000000, 1.000000000000000000, -0.000000000000000000 ) ) ;
#224 = ORIENTED_EDGE ( 'NONE', *, *, #506, .F. ) ;
#225 = DIRECTION ( 'NONE',  ( 0.000000000000000000, 0.000000000000000000, 1.000000000000000000 ) ) ;
#226 = ORIENTED_EDGE ( 'NONE', *, *, #510, .T. ) ;
#227 = LINE ( 'NONE', #48, #565 ) ;
#228 = EDGE_LOOP ( 'NONE', ( #530, #499 ) ) ;
#229 = ADVANCED_FACE ( 'NONE', ( #425 ), #90, .F. ) ;
#230 = CARTESIAN_POINT ( 'NONE',  ( 40.00000000000000711, 0.000000000000000000, -21.12237978754594891 ) ) ;
#231 = AXIS2_PLACEMENT_3D ( 'NONE', #415, #259, #73 ) ;
#232 = EDGE_LOOP ( 'NONE', ( #76, #137, #482, #255 ) ) ;
#233 = EDGE_CURVE ( 'NONE', #141, #383, #227, .T. ) ;
#234 = CARTESIAN_POINT ( 'NONE',  ( 80.00000000000000000, 0.000000000000000000, 0.000000000000000000 ) ) ;
#235 = ORIENTED_EDGE ( 'NONE', *, *, #140, .T. ) ;
#236 = FACE_OUTER_BOUND ( 'NONE', #308, .T. ) ;
#237 = CARTESIAN_POINT ( 'NONE',  ( 40.00000000000000711, 0.000000000000000000, -21.12237978754594891 ) ) ;
#238 = CARTESIAN_POINT ( 'NONE',  ( 65.00000000000000000, 3.000000000000000000, -10.00000000000000000 ) ) ;
#239 = AXIS2_PLACEMENT_3D ( 'NONE', #237, #18, #205 ) ;
#240 = CARTESIAN_POINT ( 'NONE',  ( 65.00000000000000000, 3.000000000000000000, 0.000000000000000000 ) ) ;
#241 = CARTESIAN_POINT ( 'NONE',  ( 17.00000000000000355, 0.000000000000000000, -23.39999999999999858 ) ) ;
#242 = ORIENTED_EDGE ( 'NONE', *, *, #183, .F. ) ;
#243 = CARTESIAN_POINT ( 'NONE',  ( 40.00000000000000711, 6.000000000000000000, -21.12237978754594891 ) ) ;
#244 = DIRECTION ( 'NONE',  ( 0.000000000000000000, 1.000000000000000000, 0.000000000000000000 ) ) ;
#245 = DIRECTION ( 'NONE',  ( 0.000000000000000000, 1.000000000000000000, 0.000000000000000000 ) ) ;
#246 = AXIS2_PLACEMENT_3D ( 'NONE', #522, #378, #557 ) ;
#247 = LINE ( 'NONE', #31, #343 ) ;
#248 = DIRECTION ( 'NONE',  ( 1.000000000000000000, 0.000000000000000000, 0.000000000000000000 ) ) ;
#249 = VECTOR ( 'NONE', #84, 1000.000000000000000 ) ;
#250 = LINE ( 'NONE', #515, #20 ) ;
#251 = ORIENTED_EDGE ( 'NONE', *, *, #261, .T. ) ;
#252 =( GEOMETRIC_REPRESENTATION_CONTEXT ( 3 ) GLOBAL_UNCERTAINTY_ASSIGNED_CONTEXT ( ( #67 ) ) GLOBAL_UNIT_ASSIGNED_CONTEXT ( ( #289, #552, #418 ) ) REPRESENTATION_CONTEXT ( 'NONE', 'WORKASPACE' ) );
#253 = DIRECTION ( 'NONE',  ( -0.000000000000000000, -1.000000000000000000, -0.000000000000000000 ) ) ;
#254 = ADVANCED_FACE ( 'NONE', ( #179 ), #352, .F. ) ;
#255 = ORIENTED_EDGE ( 'NONE', *, *, #6, .F. ) ;
#256 = VECTOR ( 'NONE', #253, 1000.000000000000000 ) ;
#257 = FACE_BOUND ( 'NONE', #302, .T. ) ;
#258 = ORIENTED_EDGE ( 'NONE', *, *, #282, .T. ) ;
#259 = DIRECTION ( 'NONE',  ( 0.000000000000000000, 0.000000000000000000, 1.000000000000000000 ) ) ;
#260 = ORIENTED_EDGE ( 'NONE', *, *, #384, .T. ) ;
#261 = EDGE_CURVE ( 'NONE', #190, #265, #531, .T. ) ;
#262 = LINE ( 'NONE', #234, #426 ) ;
#263 = EDGE_LOOP ( 'NONE', ( #406, #88, #421, #306 ) ) ;
#264 = CARTESIAN_POINT ( 'NONE',  ( 40.00000000000000711, 0.000000000000000000, -26.62237978754594536 ) ) ;
#265 = VERTEX_POINT ( 'NONE', #7 ) ;
#266 = DIRECTION ( 'NONE',  ( 1.000000000000000000, 0.000000000000000000, 0.000000000000000000 ) ) ;
#267 = ORIENTED_EDGE ( 'NONE', *, *, #309, .T. ) ;
#268 = CARTESIAN_POINT ( 'NONE',  ( 63.00000000000000000, 0.000000000000000000, -23.40000000000000213 ) ) ;
#269 = VERTEX_POINT ( 'NONE', #134 ) ;
#270 = MECHANICAL_DESIGN_GEOMETRIC_PRESENTATION_REPRESENTATION (  '', ( #296 ), #563 ) ;
#271 = EDGE_CURVE ( 'NONE', #383, #435, #184, .T. ) ;
#272 = DIRECTION ( 'NONE',  ( 0.000000000000000000, 0.000000000000000000, 1.000000000000000000 ) ) ;
#273 = AXIS2_PLACEMENT_3D ( 'NONE', #497, #104, #279 ) ;
#274 = EDGE_LOOP ( 'NONE', ( #177, #260, #568, #213 ) ) ;
#275 = EDGE_LOOP ( 'NONE', ( #267, #164, #340, #353 ) ) ;
#276 = CARTESIAN_POINT ( 'NONE',  ( 13.50000000000000178, 3.000000000000000000, -10.00000000000000000 ) ) ;
#277 = CARTESIAN_POINT ( 'NONE',  ( 0.000000000000000000, 6.000000000000000000, 0.000000000000000000 ) ) ;
#278 =( NAMED_UNIT ( * ) PLANE_ANGLE_UNIT ( ) SI_UNIT ( $, .RADIAN. ) );
#279 = DIRECTION ( 'NONE',  ( -1.000000000000000000, 0.000000000000000000, -0.000000000000000000 ) ) ;
#280 = DIRECTION ( 'NONE',  ( 1.000000000000000000, 0.000000000000000000, 0.000000000000000000 ) ) ;
#281 = FACE_OUTER_BOUND ( 'NONE', #532, .T. ) ;
#282 = EDGE_CURVE ( 'NONE', #335, #269, #43, .T. ) ;
#283 = CARTESIAN_POINT ( 'NONE',  ( 0.000000000000000000, 6.000000000000000000, 0.000000000000000000 ) ) ;
#284 = VECTOR ( 'NONE', #431, 1000.000000000000000 ) ;
#285 = LINE ( 'NONE', #157, #4 ) ;
#286 = EDGE_CURVE ( 'NONE', #210, #512, #262, .T. ) ;
#287 = VECTOR ( 'NONE', #192, 1000.000000000000000 ) ;
#288 = DIRECTION ( 'NONE',  ( 0.000000000000000000, 0.000000000000000000, 1.000000000000000000 ) ) ;
#289 =( LENGTH_UNIT ( ) NAMED_UNIT ( * ) SI_UNIT ( .MILLI., .METRE. ) );
#290 = CARTESIAN_POINT ( 'NONE',  ( 16.49999999999999645, 3.000000000000000000, -10.00000000000000000 ) ) ;
#291 = VERTEX_POINT ( 'NONE', #481 ) ;
#292 = CARTESIAN_POINT ( 'NONE',  ( 40.00000000000000711, 0.000000000000000000, -15.62237978754595247 ) ) ;
#293 = CARTESIAN_POINT ( 'NONE',  ( 16.49999999999999645, 3.000000000000000000, -10.00000000000000000 ) ) ;
#294 = ORIENTED_EDGE ( 'NONE', *, *, #58, .T. ) ;
#295 = DIRECTION ( 'NONE',  ( 0.000000000000000000, 0.000000000000000000, 1.000000000000000000 ) ) ;
#296 = STYLED_ITEM ( 'NONE', ( #402 ), #461 ) ;
#297 = DIRECTION ( 'NONE',  ( -0.000000000000000000, 1.000000000000000000, -0.000000000000000000 ) ) ;
#298 = ORIENTED_EDGE ( 'NONE', *, *, #181, .F. ) ;
#299 = CIRCLE ( 'NONE', #50, 1.899999999999999023 ) ;
#300 = CARTESIAN_POINT ( 'NONE',  ( 66.50000000000000000, 3.000000000000000000, 0.000000000000000000 ) ) ;
#301 = FACE_OUTER_BOUND ( 'NONE', #128, .T. ) ;
#302 = EDGE_LOOP ( 'NONE', ( #169, #311 ) ) ;
#303 = CARTESIAN_POINT ( 'NONE',  ( 15.00000000000000000, 3.000000000000000000, -10.00000000000000000 ) ) ;
#304 = ORIENTED_EDGE ( 'NONE', *, *, #569, .T. ) ;
#305 = LINE ( 'NONE', #268, #66 ) ;
#306 = ORIENTED_EDGE ( 'NONE', *, *, #54, .T. ) ;
#307 = CARTESIAN_POINT ( 'NONE',  ( 40.00000000000000711, 0.000000000000000000, -26.62237978754594536 ) ) ;
#308 = EDGE_LOOP ( 'NONE', ( #416, #379, #185, #357 ) ) ;
#309 = EDGE_CURVE ( 'NONE', #512, #383, #486, .T. ) ;
#310 = CARTESIAN_POINT ( 'NONE',  ( 0.000000000000000000, 0.000000000000000000, -43.00000000000000000 ) ) ;
#311 = ORIENTED_EDGE ( 'NONE', *, *, #339, .T. ) ;
#312 = FACE_OUTER_BOUND ( 'NONE', #562, .T. ) ;
#313 = ORIENTED_EDGE ( 'NONE', *, *, #363, .T. ) ;
#314 = AXIS2_PLACEMENT_3D ( 'NONE', #528, #9, #567 ) ;
#315 = CARTESIAN_POINT ( 'NONE',  ( 63.00000000000000000, 0.000000000000000000, -19.59999999999999432 ) ) ;
#316 = AXIS2_PLACEMENT_3D ( 'NONE', #511, #168, #171 ) ;
#317 = ORIENTED_EDGE ( 'NONE', *, *, #524, .F. ) ;
#318 = DIRECTION ( 'NONE',  ( 1.000000000000000000, 0.000000000000000000, 0.000000000000000000 ) ) ;
#319 = ORIENTED_EDGE ( 'NONE', *, *, #282, .F. ) ;
#320 = FILL_AREA_STYLE ('',( #149 ) ) ;
#321 = CARTESIAN_POINT ( 'NONE',  ( 17.00000000000000355, 6.000000000000000000, -23.39999999999999858 ) ) ;
#322 = EDGE_LOOP ( 'NONE', ( #93, #374 ) ) ;
#323 = AXIS2_PLACEMENT_3D ( 'NONE', #324, #244, #194 ) ;
#324 = CARTESIAN_POINT ( 'NONE',  ( 17.00000000000000355, 6.000000000000000000, -21.50000000000000000 ) ) ;
#325 = CIRCLE ( 'NONE', #231, 1.499999999999997780 ) ;
#326 = DIRECTION ( 'NONE',  ( -0.000000000000000000, 1.000000000000000000, -0.000000000000000000 ) ) ;
#327 = DIRECTION ( 'NONE',  ( 0.000000000000000000, 0.000000000000000000, 1.000000000000000000 ) ) ;
#328 = EDGE_CURVE ( 'NONE', #355, #368, #186, .T. ) ;
#329 = APPLICATION_CONTEXT ( 'automotive_design' ) ;
#330 = DIRECTION ( 'NONE',  ( 0.000000000000000000, 0.000000000000000000, 1.000000000000000000 ) ) ;
#331 = CARTESIAN_POINT ( 'NONE',  ( 63.50000000000000000, 3.000000000000000000, 0.000000000000000000 ) ) ;
#332 = VECTOR ( 'NONE', #248, 1000.000000000000000 ) ;
#333 = DIRECTION ( 'NONE',  ( 0.000000000000000000, 0.000000000000000000, 1.000000000000000000 ) ) ;
#334 = VECTOR ( 'NONE', #401, 1000.000000000000000 ) ;
#335 = VERTEX_POINT ( 'NONE', #264 ) ;
#336 = DIRECTION ( 'NONE',  ( 0.000000000000000000, 1.000000000000000000, 0.000000000000000000 ) ) ;
#337 = VERTEX_POINT ( 'NONE', #536 ) ;
#338 = DIRECTION ( 'NONE',  ( 0.000000000000000000, 0.000000000000000000, 1.000000000000000000 ) ) ;
#339 = EDGE_CURVE ( 'NONE', #335, #566, #106, .T. ) ;
#340 = ORIENTED_EDGE ( 'NONE', *, *, #12, .F. ) ;
#341 = DIRECTION ( 'NONE',  ( 0.000000000000000000, 0.000000000000000000, 1.000000000000000000 ) ) ;
#342 = DIRECTION ( 'NONE',  ( -0.000000000000000000, -1.000000000000000000, -0.000000000000000000 ) ) ;
#343 = VECTOR ( 'NONE', #342, 1000.000000000000000 ) ;
#344 = DIRECTION ( 'NONE',  ( 1.000000000000000000, 0.000000000000000000, 0.000000000000000000 ) ) ;
#345 = ORIENTED_EDGE ( 'NONE', *, *, #22, .T. ) ;
#346 = DIRECTION ( 'NONE',  ( 0.000000000000000000, 1.000000000000000000, 0.000000000000000000 ) ) ;
#347 = VERTEX_POINT ( 'NONE', #526 ) ;
#348 = DIRECTION ( 'NONE',  ( 0.000000000000000000, 0.000000000000000000, 1.000000000000000000 ) ) ;
#349 = VERTEX_POINT ( 'NONE', #429 ) ;
#350 = CIRCLE ( 'NONE', #239, 5.499999999999996447 ) ;
#351 = CIRCLE ( 'NONE', #180, 1.900000000000002354 ) ;
#352 = CYLINDRICAL_SURFACE ( 'NONE', #38, 5.499999999999996447 ) ;
#353 = ORIENTED_EDGE ( 'NONE', *, *, #533, .T. ) ;
#354 = CARTESIAN_POINT ( 'NONE',  ( 63.00000000000000000, 0.000000000000000000, -23.40000000000000213 ) ) ;
#355 = VERTEX_POINT ( 'NONE', #45 ) ;
#356 = DIRECTION ( 'NONE',  ( 0.000000000000000000, 0.000000000000000000, 1.000000000000000000 ) ) ;
#357 = ORIENTED_EDGE ( 'NONE', *, *, #233, .T. ) ;
#358 = AXIS2_PLACEMENT_3D ( 'NONE', #29, #112, #72 ) ;
#359 = AXIS2_PLACEMENT_3D ( 'NONE', #238, #152, #318 ) ;
#360 = CIRCLE ( 'NONE', #201, 5.499999999999996447 ) ;
#361 = DIRECTION ( 'NONE',  ( -0.000000000000000000, -0.000000000000000000, 1.000000000000000000 ) ) ;
#362 = DIRECTION ( 'NONE',  ( 1.000000000000000000, 0.000000000000000000, 0.000000000000000000 ) ) ;
#363 = EDGE_CURVE ( 'NONE', #349, #393, #125, .T. ) ;
#364 =( NAMED_UNIT ( * ) SI_UNIT ( $, .STERADIAN. ) SOLID_ANGLE_UNIT ( ) );
#365 = CARTESIAN_POINT ( 'NONE',  ( 0.000000000000000000, 6.000000000000000000, -43.00000000000000000 ) ) ;
#366 = CARTESIAN_POINT ( 'NONE',  ( 15.00000000000000000, 3.000000000000000000, -10.00000000000000000 ) ) ;
#367 = PLANE ( 'NONE',  #273 ) ;
#368 = VERTEX_POINT ( 'NONE', #176 ) ;
#369 = VECTOR ( 'NONE', #548, 1000.000000000000000 ) ;
#370 = CYLINDRICAL_SURFACE ( 'NONE', #487, 1.499999999999997780 ) ;
#371 = EDGE_CURVE ( 'NONE', #80, #427, #142, .T. ) ;
#372 = DIRECTION ( 'NONE',  ( -0.000000000000000000, 1.000000000000000000, -0.000000000000000000 ) ) ;
#373 = CARTESIAN_POINT ( 'NONE',  ( 17.00000000000000355, 0.000000000000000000, -19.59999999999999787 ) ) ;
#374 = ORIENTED_EDGE ( 'NONE', *, *, #413, .T. ) ;
#375 = APPLICATION_CONTEXT ( 'automotive_design' ) ;
#376 = FACE_OUTER_BOUND ( 'NONE', #322, .T. ) ;
#377 = FACE_OUTER_BOUND ( 'NONE', #467, .T. ) ;
#378 = DIRECTION ( 'NONE',  ( -0.000000000000000000, 1.000000000000000000, -0.000000000000000000 ) ) ;
#379 = ORIENTED_EDGE ( 'NONE', *, *, #109, .F. ) ;
#380 = ADVANCED_FACE ( 'NONE', ( #483 ), #92, .F. ) ;
#381 = DIRECTION ( 'NONE',  ( 0.000000000000000000, 1.000000000000000000, 0.000000000000000000 ) ) ;
#382 = CARTESIAN_POINT ( 'NONE',  ( 80.00000000000000000, 6.000000000000000000, 0.000000000000000000 ) ) ;
#383 = VERTEX_POINT ( 'NONE', #131 ) ;
#384 = EDGE_CURVE ( 'NONE', #368, #46, #534, .T. ) ;
#385 = EDGE_CURVE ( 'NONE', #393, #337, #305, .T. ) ;
#386 = DIRECTION ( 'NONE',  ( 0.000000000000000000, 0.000000000000000000, 1.000000000000000000 ) ) ;
#387 = AXIS2_PLACEMENT_3D ( 'NONE', #127, #550, #519 ) ;
#388 = DIRECTION ( 'NONE',  ( 0.000000000000000000, 0.000000000000000000, 1.000000000000000000 ) ) ;
#389 = ORIENTED_EDGE ( 'NONE', *, *, #175, .F. ) ;
#390 = DIRECTION ( 'NONE',  ( 0.000000000000000000, 1.000000000000000000, 0.000000000000000000 ) ) ;
#391 = EDGE_LOOP ( 'NONE', ( #319, #28, #399, #35 ) ) ;
#392 = DIRECTION ( 'NONE',  ( 0.000000000000000000, 1.000000000000000000, 0.000000000000000000 ) ) ;
#393 = VERTEX_POINT ( 'NONE', #354 ) ;
#394 = AXIS2_PLACEMENT_3D ( 'NONE', #163, #336, #129 ) ;
#395 = DIRECTION ( 'NONE',  ( -0.000000000000000000, 1.000000000000000000, -0.000000000000000000 ) ) ;
#396 = ORIENTED_EDGE ( 'NONE', *, *, #309, .F. ) ;
#397 = ADVANCED_FACE ( 'NONE', ( #312 ), #139, .F. ) ;
#398 = CARTESIAN_POINT ( 'NONE',  ( 40.00000000000000711, 0.000000000000000000, -21.12237978754594891 ) ) ;
#399 = ORIENTED_EDGE ( 'NONE', *, *, #506, .T. ) ;
#400 = LINE ( 'NONE', #292, #86 ) ;
#401 = DIRECTION ( 'NONE',  ( 1.000000000000000000, 0.000000000000000000, 0.000000000000000000 ) ) ;
#402 = PRESENTATION_STYLE_ASSIGNMENT (( #504 ) ) ;
#403 = DIRECTION ( 'NONE',  ( 0.000000000000000000, -0.000000000000000000, -1.000000000000000000 ) ) ;
#404 = CARTESIAN_POINT ( 'NONE',  ( 65.00000000000000000, 3.000000000000000000, 0.000000000000000000 ) ) ;
#405 = EDGE_CURVE ( 'NONE', #347, #442, #539, .T. ) ;
#406 = ORIENTED_EDGE ( 'NONE', *, *, #384, .F. ) ;
#407 = CARTESIAN_POINT ( 'NONE',  ( 0.000000000000000000, 6.000000000000000000, 0.000000000000000000 ) ) ;
#408 = DIRECTION ( 'NONE',  ( 0.000000000000000000, 0.000000000000000000, 1.000000000000000000 ) ) ;
#409 = AXIS2_PLACEMENT_3D ( 'NONE', #41, #392, #348 ) ;
#410 = CARTESIAN_POINT ( 'NONE',  ( 0.000000000000000000, 0.000000000000000000, 0.000000000000000000 ) ) ;
#411 = CIRCLE ( 'NONE', #394, 1.900000000000002354 ) ;
#412 = CARTESIAN_POINT ( 'NONE',  ( 0.000000000000000000, 6.000000000000000000, -43.00000000000000000 ) ) ;
#413 = EDGE_CURVE ( 'NONE', #368, #355, #455, .T. ) ;
#414 = DIRECTION ( 'NONE',  ( 0.000000000000000000, 0.000000000000000000, 1.000000000000000000 ) ) ;
#415 = CARTESIAN_POINT ( 'NONE',  ( 15.00000000000000000, 3.000000000000000000, -10.00000000000000000 ) ) ;
#416 = ORIENTED_EDGE ( 'NONE', *, *, #271, .T. ) ;
#417 = AXIS2_PLACEMENT_3D ( 'NONE', #37, #295, #208 ) ;
#418 =( NAMED_UNIT ( * ) SI_UNIT ( $, .STERADIAN. ) SOLID_ANGLE_UNIT ( ) );
#419 = DIRECTION ( 'NONE',  ( 0.000000000000000000, 0.000000000000000000, 1.000000000000000000 ) ) ;
#420 = CIRCLE ( 'NONE', #202, 1.499999999999997780 ) ;
#421 = ORIENTED_EDGE ( 'NONE', *, *, #473, .T. ) ;
#422 = PLANE ( 'NONE',  #222 ) ;
#423 = ORIENTED_EDGE ( 'NONE', *, *, #385, .F. ) ;
#424 = CARTESIAN_POINT ( 'NONE',  ( 16.49999999999999645, 3.000000000000000000, 0.000000000000000000 ) ) ;
#425 = FACE_OUTER_BOUND ( 'NONE', #274, .T. ) ;
#426 = VECTOR ( 'NONE', #136, 1000.000000000000000 ) ;
#427 = VERTEX_POINT ( 'NONE', #373 ) ;
#428 = VECTOR ( 'NONE', #197, 1000.000000000000000 ) ;
#429 = CARTESIAN_POINT ( 'NONE',  ( 63.00000000000000000, 0.000000000000000000, -19.59999999999999432 ) ) ;
#430 = ORIENTED_EDGE ( 'NONE', *, *, #569, .F. ) ;
#431 = DIRECTION ( 'NONE',  ( -0.000000000000000000, -0.000000000000000000, 1.000000000000000000 ) ) ;
#432 = EDGE_LOOP ( 'NONE', ( #40, #218 ) ) ;
#433 = PRODUCT_RELATED_PRODUCT_CATEGORY ( 'part', '', ( #507 ) ) ;
#434 = DIRECTION ( 'NONE',  ( 1.000000000000000000, 0.000000000000000000, 0.000000000000000000 ) ) ;
#435 = VERTEX_POINT ( 'NONE', #410 ) ;
#436 = DIRECTION ( 'NONE',  ( -0.000000000000000000, 1.000000000000000000, -0.000000000000000000 ) ) ;
#437 = VECTOR ( 'NONE', #57, 1000.000000000000000 ) ;
#438 = ORIENTED_EDGE ( 'NONE', *, *, #385, .T. ) ;
#439 = EDGE_CURVE ( 'NONE', #80, #32, #101, .T. ) ;
#440 = AXIS2_PLACEMENT_3D ( 'NONE', #404, #16, #198 ) ;
#441 = DIRECTION ( 'NONE',  ( -0.000000000000000000, -0.000000000000000000, 1.000000000000000000 ) ) ;
#442 = VERTEX_POINT ( 'NONE', #445 ) ;
#443 = CARTESIAN_POINT ( 'NONE',  ( 15.00000000000000000, 3.000000000000000000, -10.00000000000000000 ) ) ;
#444 = ORIENTED_EDGE ( 'NONE', *, *, #138, .T. ) ;
#445 = CARTESIAN_POINT ( 'NONE',  ( 13.50000000000000178, 3.000000000000000000, 0.000000000000000000 ) ) ;
#446 = ORIENTED_EDGE ( 'NONE', *, *, #58, .F. ) ;
#447 = CARTESIAN_POINT ( 'NONE',  ( 65.00000000000000000, 3.000000000000000000, -10.00000000000000000 ) ) ;
#448 = DIRECTION ( 'NONE',  ( -1.000000000000000000, -0.000000000000000000, -0.000000000000000000 ) ) ;
#449 = ORIENTED_EDGE ( 'NONE', *, *, #100, .T. ) ;
#450 = PLANE ( 'NONE',  #178 ) ;
#451 = DIRECTION ( 'NONE',  ( 0.000000000000000000, 0.000000000000000000, 1.000000000000000000 ) ) ;
#452 = ORIENTED_EDGE ( 'NONE', *, *, #19, .F. ) ;
#453 = PLANE ( 'NONE',  #458 ) ;
#454 = EDGE_CURVE ( 'NONE', #349, #492, #11, .T. ) ;
#455 = CIRCLE ( 'NONE', #359, 1.500000000000001332 ) ;
#456 = PRODUCT_CONTEXT ( 'NONE', #375, 'mechanical' ) ;
#457 = CLOSED_SHELL ( 'NONE', ( #161, #53, #215, #484, #229, #462, #71, #89, #64, #63, #187, #460, #116, #489, #146, #254, #380, #397 ) ) ;
#458 = AXIS2_PLACEMENT_3D ( 'NONE', #62, #65, #338 ) ;
#459 = VERTEX_POINT ( 'NONE', #283 ) ;
#460 = ADVANCED_FACE ( 'NONE', ( #147 ), #21, .F. ) ;
#461 = MANIFOLD_SOLID_BREP ( 'Cut-Extrude2', #457 ) ;
#462 = ADVANCED_FACE ( 'NONE', ( #236 ), #450, .F. ) ;
#463 = DIRECTION ( 'NONE',  ( 1.000000000000000000, 0.000000000000000000, 0.000000000000000000 ) ) ;
#464 = ORIENTED_EDGE ( 'NONE', *, *, #261, .F. ) ;
#465 = DIRECTION ( 'NONE',  ( -0.000000000000000000, -1.000000000000000000, -0.000000000000000000 ) ) ;
#466 = CARTESIAN_POINT ( 'NONE',  ( 80.00000000000000000, 6.000000000000000000, 0.000000000000000000 ) ) ;
#467 = EDGE_LOOP ( 'NONE', ( #124, #396, #85, #182 ) ) ;
#468 = AXIS2_PLACEMENT_3D ( 'NONE', #476, #61, #327 ) ;
#469 = CARTESIAN_POINT ( 'NONE',  ( 40.00000000000000711, 0.000000000000000000, -15.62237978754595247 ) ) ;
#470 = LINE ( 'NONE', #466, #256 ) ;
#471 = AXIS2_PLACEMENT_3D ( 'NONE', #195, #372, #540 ) ;
#472 = ORIENTED_EDGE ( 'NONE', *, *, #36, .F. ) ;
#473 = EDGE_CURVE ( 'NONE', #355, #523, #493, .T. ) ;
#474 = CYLINDRICAL_SURFACE ( 'NONE', #246, 5.499999999999996447 ) ;
#475 = EDGE_LOOP ( 'NONE', ( #118, #472, #538, #56 ) ) ;
#476 = CARTESIAN_POINT ( 'NONE',  ( 63.00000000000000000, 0.000000000000000000, -21.50000000000000000 ) ) ;
#477 = ORIENTED_EDGE ( 'NONE', *, *, #524, .T. ) ;
#478 = EDGE_CURVE ( 'NONE', #32, #291, #537, .T. ) ;
#479 = CARTESIAN_POINT ( 'NONE',  ( 0.000000000000000000, 0.000000000000000000, 0.000000000000000000 ) ) ;
#480 = EDGE_LOOP ( 'NONE', ( #235, #304, #251, #551 ) ) ;
#481 = CARTESIAN_POINT ( 'NONE',  ( 17.00000000000000355, 6.000000000000000000, -19.59999999999999787 ) ) ;
#482 = ORIENTED_EDGE ( 'NONE', *, *, #478, .T. ) ;
#483 = FACE_OUTER_BOUND ( 'NONE', #475, .T. ) ;
#484 = ADVANCED_FACE ( 'NONE', ( #541 ), #107, .F. ) ;
#485 = ORIENTED_EDGE ( 'NONE', *, *, #122, .F. ) ;
#486 = LINE ( 'NONE', #310, #249 ) ;
#487 = AXIS2_PLACEMENT_3D ( 'NONE', #443, #546, #155 ) ;
#488 = EDGE_LOOP ( 'NONE', ( #52, #438, #294, #10 ) ) ;
#489 = ADVANCED_FACE ( 'NONE', ( #17 ), #370, .F. ) ;
#490 = AXIS2_PLACEMENT_3D ( 'NONE', #303, #386, #117 ) ;
#491 = CARTESIAN_POINT ( 'NONE',  ( 63.00000000000000000, 6.000000000000000000, -19.59999999999999432 ) ) ;
#492 = VERTEX_POINT ( 'NONE', #491 ) ;
#493 = LINE ( 'NONE', #55, #428 ) ;
#494 = DIRECTION ( 'NONE',  ( 0.000000000000000000, 0.000000000000000000, 1.000000000000000000 ) ) ;
#495 = VECTOR ( 'NONE', #51, 1000.000000000000000 ) ;
#496 = SURFACE_SIDE_STYLE ('',( #204 ) ) ;
#497 = CARTESIAN_POINT ( 'NONE',  ( 0.000000000000000000, 6.000000000000000000, 0.000000000000000000 ) ) ;
#498 = AXIS2_PLACEMENT_3D ( 'NONE', #366, #543, #280 ) ;
#499 = ORIENTED_EDGE ( 'NONE', *, *, #83, .F. ) ;
#500 = AXIS2_PLACEMENT_3D ( 'NONE', #240, #288, #362 ) ;
#501 = DIRECTION ( 'NONE',  ( 1.000000000000000000, 0.000000000000000000, 0.000000000000000000 ) ) ;
#502 = DIRECTION ( 'NONE',  ( 0.000000000000000000, -1.000000000000000000, 0.000000000000000000 ) ) ;
#503 = ORIENTED_EDGE ( 'NONE', *, *, #533, .F. ) ;
#504 = SURFACE_STYLE_USAGE ( .BOTH. , #496 ) ;
#505 = DIRECTION ( 'NONE',  ( 1.000000000000000000, 0.000000000000000000, -0.000000000000000000 ) ) ;
#506 = EDGE_CURVE ( 'NONE', #566, #535, #400, .T. ) ;
#507 = PRODUCT ( 'Cross Bracket V1', 'Cross Bracket V1', '', ( #456 ) ) ;
#508 = CARTESIAN_POINT ( 'NONE',  ( 17.00000000000000355, 0.000000000000000000, -21.50000000000000000 ) ) ;
#509 = VECTOR ( 'NONE', #465, 1000.000000000000000 ) ;
#510 = EDGE_CURVE ( 'NONE', #492, #337, #115, .T. ) ;
#511 = CARTESIAN_POINT ( 'NONE',  ( 15.00000000000000000, 3.000000000000000000, 0.000000000000000000 ) ) ;
#512 = VERTEX_POINT ( 'NONE', #69 ) ;
#513 = CARTESIAN_POINT ( 'NONE',  ( 80.00000000000000000, 0.000000000000000000, 0.000000000000000000 ) ) ;
#514 = VERTEX_POINT ( 'NONE', #424 ) ;
#515 = CARTESIAN_POINT ( 'NONE',  ( 0.000000000000000000, 6.000000000000000000, 0.000000000000000000 ) ) ;
#516 = EDGE_LOOP ( 'NONE', ( #452, #317 ) ) ;
#517 = PRESENTATION_LAYER_ASSIGNMENT (  '', '', ( #296 ) ) ;
#518 = CARTESIAN_POINT ( 'NONE',  ( 0.000000000000000000, 6.000000000000000000, 0.000000000000000000 ) ) ;
#519 = DIRECTION ( 'NONE',  ( 1.000000000000000000, 0.000000000000000000, -0.000000000000000000 ) ) ;
#520 = CIRCLE ( 'NONE', #316, 1.499999999999997780 ) ;
#521 = ORIENTED_EDGE ( 'NONE', *, *, #286, .T. ) ;
#522 = CARTESIAN_POINT ( 'NONE',  ( 40.00000000000000711, 0.000000000000000000, -21.12237978754594891 ) ) ;
#523 = VERTEX_POINT ( 'NONE', #300 ) ;
#524 = EDGE_CURVE ( 'NONE', #269, #535, #113, .T. ) ;
#525 = PRODUCT_DEFINITION ( 'UNKNOWN', '', #47, #97 ) ;
#526 = CARTESIAN_POINT ( 'NONE',  ( 13.50000000000000178, 3.000000000000000000, -10.00000000000000000 ) ) ;
#527 = ORIENTED_EDGE ( 'NONE', *, *, #405, .T. ) ;
#528 = CARTESIAN_POINT ( 'NONE',  ( 17.00000000000000355, 0.000000000000000000, -21.50000000000000000 ) ) ;
#529 = CIRCLE ( 'NONE', #500, 1.500000000000001332 ) ;
#530 = ORIENTED_EDGE ( 'NONE', *, *, #54, .F. ) ;
#531 = LINE ( 'NONE', #173, #495 ) ;
#532 = EDGE_LOOP ( 'NONE', ( #521, #503, #464, #99 ) ) ;
#533 = EDGE_CURVE ( 'NONE', #265, #512, #158, .T. ) ;
#534 = LINE ( 'NONE', #143, #221 ) ;
#535 = VERTEX_POINT ( 'NONE', #24 ) ;
#536 = CARTESIAN_POINT ( 'NONE',  ( 63.00000000000000000, 6.000000000000000000, -23.40000000000000213 ) ) ;
#537 = CIRCLE ( 'NONE', #323, 1.899999999999999023 ) ;
#538 = ORIENTED_EDGE ( 'NONE', *, *, #6, .T. ) ;
#539 = LINE ( 'NONE', #276, #369 ) ;
#540 = DIRECTION ( 'NONE',  ( 0.000000000000000000, 0.000000000000000000, 1.000000000000000000 ) ) ;
#541 = FACE_OUTER_BOUND ( 'NONE', #220, .T. ) ;
#542 = FACE_BOUND ( 'NONE', #144, .T. ) ;
#543 = DIRECTION ( 'NONE',  ( -0.000000000000000000, -0.000000000000000000, 1.000000000000000000 ) ) ;
#544 = FACE_OUTER_BOUND ( 'NONE', #275, .T. ) ;
#545 = VECTOR ( 'NONE', #209, 1000.000000000000000 ) ;
#546 = DIRECTION ( 'NONE',  ( -0.000000000000000000, -0.000000000000000000, 1.000000000000000000 ) ) ;
#547 = DIRECTION ( 'NONE',  ( 0.000000000000000000, 1.000000000000000000, 0.000000000000000000 ) ) ;
#548 = DIRECTION ( 'NONE',  ( -0.000000000000000000, -0.000000000000000000, 1.000000000000000000 ) ) ;
#549 = EDGE_LOOP ( 'NONE', ( #313, #132 ) ) ;
#550 = DIRECTION ( 'NONE',  ( 0.000000000000000000, 0.000000000000000000, 1.000000000000000000 ) ) ;
#551 = ORIENTED_EDGE ( 'NONE', *, *, #12, .T. ) ;
#552 =( NAMED_UNIT ( * ) PLANE_ANGLE_UNIT ( ) SI_UNIT ( $, .RADIAN. ) );
#553 = CIRCLE ( 'NONE', #211, 1.899999999999999023 ) ;
#554 = CARTESIAN_POINT ( 'NONE',  ( 0.000000000000000000, 0.000000000000000000, 0.000000000000000000 ) ) ;
#555 = ORIENTED_EDGE ( 'NONE', *, *, #214, .F. ) ;
#556 = SHAPE_DEFINITION_REPRESENTATION ( #207, #203 ) ;
#557 = DIRECTION ( 'NONE',  ( 0.000000000000000000, 0.000000000000000000, 1.000000000000000000 ) ) ;
#558 = AXIS2_PLACEMENT_3D ( 'NONE', #398, #346, #225 ) ;
#559 = ORIENTED_EDGE ( 'NONE', *, *, #109, .T. ) ;
#560 = DIRECTION ( 'NONE',  ( -0.000000000000000000, 1.000000000000000000, -0.000000000000000000 ) ) ;
#561 = PLANE ( 'NONE',  #387 ) ;
#562 = EDGE_LOOP ( 'NONE', ( #423, #82, #49, #226 ) ) ;
#563 =( GEOMETRIC_REPRESENTATION_CONTEXT ( 3 ) GLOBAL_UNCERTAINTY_ASSIGNED_CONTEXT ( ( #133 ) ) GLOBAL_UNIT_ASSIGNED_CONTEXT ( ( #103, #278, #364 ) ) REPRESENTATION_CONTEXT ( 'NONE', 'WORKASPACE' ) );
#564 = CARTESIAN_POINT ( 'NONE',  ( 17.00000000000000355, 6.000000000000000000, -21.50000000000000000 ) ) ;
#565 = VECTOR ( 'NONE', #3, 1000.000000000000000 ) ;
#566 = VERTEX_POINT ( 'NONE', #469 ) ;
#567 = DIRECTION ( 'NONE',  ( 0.000000000000000000, 0.000000000000000000, 1.000000000000000000 ) ) ;
#568 = ORIENTED_EDGE ( 'NONE', *, *, #83, .T. ) ;
#569 = EDGE_CURVE ( 'NONE', #459, #190, #165, .T. ) ;
ENDSEC;
END-ISO-10303-21;
