ISO-10303-21;
HEADER;
FILE_DESCRIPTION (( 'STEP AP214' ),
    '1' );
FILE_NAME ('LimitSwitchMount_V1.STEP',
    '2026-09-09T13:51:23',
    ( '' ),
    ( '' ),
    'SwSTEP 2.0',
    'SolidWorks 2026',
    '' );
FILE_SCHEMA (( 'AUTOMOTIVE_DESIGN' ));
ENDSEC;

DATA;
#1 = DIRECTION ( 'NONE',  ( 0.000000000000000000, 0.000000000000000000, -1.000000000000000000 ) ) ;
#2 = STYLED_ITEM ( 'NONE', ( #362 ), #558 ) ;
#3 = DIRECTION ( 'NONE',  ( 0.000000000000000000, 0.000000000000000000, -1.000000000000000000 ) ) ;
#4 = CARTESIAN_POINT ( 'NONE',  ( 5.000000000000000000, -26.75000000000000355, -30.00000000000000000 ) ) ;
#5 = DIRECTION ( 'NONE',  ( -1.000000000000000000, -0.000000000000000000, -0.000000000000000000 ) ) ;
#6 = DIRECTION ( 'NONE',  ( -1.000000000000000000, -0.000000000000000000, -0.000000000000000000 ) ) ;
#7 = CARTESIAN_POINT ( 'NONE',  ( 5.000000000000000000, -10.42500000000000604, 15.00000000000000355 ) ) ;
#8 = VERTEX_POINT ( 'NONE', #342 ) ;
#9 = AXIS2_PLACEMENT_3D ( 'NONE', #564, #604, #33 ) ;
#10 = DIRECTION ( 'NONE',  ( -1.000000000000000000, -0.000000000000000000, -0.000000000000000000 ) ) ;
#11 = ORIENTED_EDGE ( 'NONE', *, *, #167, .T. ) ;
#12 = EDGE_CURVE ( 'NONE', #60, #418, #476, .T. ) ;
#13 = FACE_BOUND ( 'NONE', #330, .T. ) ;
#14 = ORIENTED_EDGE ( 'NONE', *, *, #607, .F. ) ;
#15 = AXIS2_PLACEMENT_3D ( 'NONE', #43, #571, #472 ) ;
#16 = DIRECTION ( 'NONE',  ( 0.000000000000000000, 0.000000000000000000, -1.000000000000000000 ) ) ;
#17 = CARTESIAN_POINT ( 'NONE',  ( 5.000000000000000000, -26.75000000000001066, 30.00000000000000000 ) ) ;
#18 = ADVANCED_BREP_SHAPE_REPRESENTATION ( 'LimitSwitchMount_V1', ( #558, #226 ), #396 ) ;
#19 = ORIENTED_EDGE ( 'NONE', *, *, #46, .T. ) ;
#20 = VECTOR ( 'NONE', #299, 1000.000000000000000 ) ;
#21 = CARTESIAN_POINT ( 'NONE',  ( 5.000000000000000000, 1.574999999999994849, -22.50000000000000000 ) ) ;
#22 = EDGE_LOOP ( 'NONE', ( #14, #363 ) ) ;
#23 = PRODUCT ( 'LimitSwitchMount_V1', 'LimitSwitchMount_V1', '', ( #294 ) ) ;
#24 = FACE_BOUND ( 'NONE', #603, .T. ) ;
#25 = CARTESIAN_POINT ( 'NONE',  ( 0.000000000000000000, 1.574999999999995071, -23.54999999999999716 ) ) ;
#26 = ORIENTED_EDGE ( 'NONE', *, *, #12, .F. ) ;
#27 = EDGE_CURVE ( 'NONE', #60, #515, #32, .T. ) ;
#28 = CYLINDRICAL_SURFACE ( 'NONE', #457, 2.050000000000003375 ) ;
#29 = LINE ( 'NONE', #405, #153 ) ;
#30 = ORIENTED_EDGE ( 'NONE', *, *, #12, .T. ) ;
#31 = VECTOR ( 'NONE', #479, 1000.000000000000000 ) ;
#32 = CIRCLE ( 'NONE', #439, 1.049999999999998934 ) ;
#33 = DIRECTION ( 'NONE',  ( 0.000000000000000000, 0.000000000000000000, -1.000000000000000000 ) ) ;
#34 = AXIS2_PLACEMENT_3D ( 'NONE', #127, #510, #222 ) ;
#35 = ORIENTED_EDGE ( 'NONE', *, *, #341, .T. ) ;
#36 = PLANE ( 'NONE',  #478 ) ;
#37 = DIRECTION ( 'NONE',  ( -0.000000000000000000, 1.239088197126291063E-16, -1.000000000000000000 ) ) ;
#38 = EDGE_CURVE ( 'NONE', #492, #531, #145, .T. ) ;
#39 = DIRECTION ( 'NONE',  ( 1.000000000000000000, 0.000000000000000000, 0.000000000000000000 ) ) ;
#40 = DIRECTION ( 'NONE',  ( -1.000000000000000000, -0.000000000000000000, -0.000000000000000000 ) ) ;
#41 = CIRCLE ( 'NONE', #394, 2.000000000000001776 ) ;
#42 = ORIENTED_EDGE ( 'NONE', *, *, #292, .T. ) ;
#43 = CARTESIAN_POINT ( 'NONE',  ( 0.000000000000000000, -10.42500000000000426, -15.00000000000000000 ) ) ;
#44 = AXIS2_PLACEMENT_3D ( 'NONE', #231, #39, #525 ) ;
#45 = LINE ( 'NONE', #239, #183 ) ;
#46 = EDGE_CURVE ( 'NONE', #336, #228, #438, .T. ) ;
#47 = UNCERTAINTY_MEASURE_WITH_UNIT (LENGTH_MEASURE( 1.000000000000000082E-05 ), #555, 'distance_accuracy_value', 'NONE');
#48 = ORIENTED_EDGE ( 'NONE', *, *, #303, .F. ) ;
#49 = LINE ( 'NONE', #93, #524 ) ;
#50 = VERTEX_POINT ( 'NONE', #379 ) ;
#51 = CARTESIAN_POINT ( 'NONE',  ( 5.000000000000000000, 11.12499999999999645, -23.55000000000000071 ) ) ;
#52 = VECTOR ( 'NONE', #257, 1000.000000000000000 ) ;
#53 = EDGE_CURVE ( 'NONE', #527, #336, #49, .T. ) ;
#54 = FACE_BOUND ( 'NONE', #22, .T. ) ;
#55 = CARTESIAN_POINT ( 'NONE',  ( 5.000000000000000000, 28.75000000000000000, -27.99999999999999645 ) ) ;
#56 = DIRECTION ( 'NONE',  ( 1.000000000000000000, 0.000000000000000000, 0.000000000000000000 ) ) ;
#57 = CARTESIAN_POINT ( 'NONE',  ( 0.000000000000000000, 28.75000000000000000, -27.99999999999999645 ) ) ;
#58 = CIRCLE ( 'NONE', #616, 1.049999999999998934 ) ;
#59 = CYLINDRICAL_SURFACE ( 'NONE', #285, 2.050000000000003375 ) ;
#60 = VERTEX_POINT ( 'NONE', #384 ) ;
#61 = EDGE_CURVE ( 'NONE', #94, #573, #234, .T. ) ;
#62 = CARTESIAN_POINT ( 'NONE',  ( 5.000000000000000000, -28.75000000000000000, -27.99999999999999645 ) ) ;
#63 = VERTEX_POINT ( 'NONE', #192 ) ;
#64 = EDGE_CURVE ( 'NONE', #501, #531, #95, .T. ) ;
#65 = CARTESIAN_POINT ( 'NONE',  ( 0.000000000000000000, 11.12499999999999645, -21.44999999999999574 ) ) ;
#66 = CARTESIAN_POINT ( 'NONE',  ( 5.000000000000000000, -28.75000000000000000, -27.99999999999999645 ) ) ;
#67 = ORIENTED_EDGE ( 'NONE', *, *, #92, .T. ) ;
#68 = FACE_OUTER_BOUND ( 'NONE', #70, .T. ) ;
#69 = CARTESIAN_POINT ( 'NONE',  ( 5.000000000000000000, 11.12499999999999645, -21.44999999999999574 ) ) ;
#70 = EDGE_LOOP ( 'NONE', ( #606, #541, #356, #259 ) ) ;
#71 = CIRCLE ( 'NONE', #469, 1.050000000000002265 ) ;
#72 = EDGE_CURVE ( 'NONE', #374, #501, #520, .T. ) ;
#73 = DIRECTION ( 'NONE',  ( -1.000000000000000000, -0.000000000000000000, -0.000000000000000000 ) ) ;
#74 = VECTOR ( 'NONE', #513, 1000.000000000000000 ) ;
#75 = EDGE_LOOP ( 'NONE', ( #581, #327, #620, #293 ) ) ;
#76 = DIRECTION ( 'NONE',  ( 0.000000000000000000, 0.000000000000000000, -1.000000000000000000 ) ) ;
#77 = LINE ( 'NONE', #173, #455 ) ;
#78 = ORIENTED_EDGE ( 'NONE', *, *, #53, .T. ) ;
#79 = DIRECTION ( 'NONE',  ( 0.000000000000000000, 0.000000000000000000, 1.000000000000000000 ) ) ;
#80 = FILL_AREA_STYLE ('',( #514 ) ) ;
#81 = ORIENTED_EDGE ( 'NONE', *, *, #27, .F. ) ;
#82 = EDGE_CURVE ( 'NONE', #531, #223, #41, .T. ) ;
#83 = CARTESIAN_POINT ( 'NONE',  ( 0.000000000000000000, 1.574999999999994849, -22.50000000000000000 ) ) ;
#84 = VECTOR ( 'NONE', #268, 1000.000000000000000 ) ;
#85 = ORIENTED_EDGE ( 'NONE', *, *, #82, .F. ) ;
#86 = EDGE_CURVE ( 'NONE', #253, #374, #99, .T. ) ;
#87 = ORIENTED_EDGE ( 'NONE', *, *, #61, .T. ) ;
#88 = CARTESIAN_POINT ( 'NONE',  ( 0.000000000000000000, -10.42500000000000604, 17.05000000000000426 ) ) ;
#89 = CARTESIAN_POINT ( 'NONE',  ( 0.000000000000000000, 26.74999999999999645, 30.00000000000000000 ) ) ;
#90 = EDGE_LOOP ( 'NONE', ( #81, #401 ) ) ;
#91 = PLANE ( 'NONE',  #321 ) ;
#92 = EDGE_CURVE ( 'NONE', #418, #544, #58, .T. ) ;
#93 = CARTESIAN_POINT ( 'NONE',  ( 5.000000000000000000, 11.12499999999999645, -21.44999999999999574 ) ) ;
#94 = VERTEX_POINT ( 'NONE', #291 ) ;
#95 = LINE ( 'NONE', #235, #450 ) ;
#96 = ORIENTED_EDGE ( 'NONE', *, *, #490, .T. ) ;
#97 = DIRECTION ( 'NONE',  ( 0.000000000000000000, 1.000000000000000000, -6.484947573745073354E-17 ) ) ;
#98 = CARTESIAN_POINT ( 'NONE',  ( 5.000000000000000000, 28.74999999999999645, 27.99999999999999645 ) ) ;
#99 = CIRCLE ( 'NONE', #337, 2.000000000000001776 ) ;
#100 = DIRECTION ( 'NONE',  ( 0.000000000000000000, 0.000000000000000000, -1.000000000000000000 ) ) ;
#101 = AXIS2_PLACEMENT_3D ( 'NONE', #55, #160, #177 ) ;
#102 = CARTESIAN_POINT ( 'NONE',  ( 5.000000000000000000, 11.12499999999999645, -22.50000000000000000 ) ) ;
#103 = VECTOR ( 'NONE', #216, 1000.000000000000000 ) ;
#104 = FACE_BOUND ( 'NONE', #90, .T. ) ;
#105 = CARTESIAN_POINT ( 'NONE',  ( 5.000000000000000000, 26.74999999999999645, 30.00000000000000000 ) ) ;
#106 = EDGE_LOOP ( 'NONE', ( #552, #612, #431, #562 ) ) ;
#107 = CIRCLE ( 'NONE', #193, 2.000000000000001776 ) ;
#108 = DIRECTION ( 'NONE',  ( 0.000000000000000000, 0.000000000000000000, -1.000000000000000000 ) ) ;
#109 = DIRECTION ( 'NONE',  ( -1.000000000000000000, -0.000000000000000000, -0.000000000000000000 ) ) ;
#110 = EDGE_CURVE ( 'NONE', #111, #548, #425, .T. ) ;
#111 = VERTEX_POINT ( 'NONE', #89 ) ;
#112 = VECTOR ( 'NONE', #609, 1000.000000000000000 ) ;
#113 = FACE_OUTER_BOUND ( 'NONE', #134, .T. ) ;
#114 = CARTESIAN_POINT ( 'NONE',  ( 0.000000000000000000, -26.75000000000000355, -30.00000000000000000 ) ) ;
#115 = ORIENTED_EDGE ( 'NONE', *, *, #46, .F. ) ;
#116 = DIRECTION ( 'NONE',  ( -1.000000000000000000, -0.000000000000000000, -0.000000000000000000 ) ) ;
#117 = CYLINDRICAL_SURFACE ( 'NONE', #537, 2.049999999999999822 ) ;
#118 =( NAMED_UNIT ( * ) PLANE_ANGLE_UNIT ( ) SI_UNIT ( $, .RADIAN. ) );
#119 = ORIENTED_EDGE ( 'NONE', *, *, #195, .F. ) ;
#120 = EDGE_CURVE ( 'NONE', #63, #194, #45, .T. ) ;
#121 = AXIS2_PLACEMENT_3D ( 'NONE', #232, #428, #421 ) ;
#122 = CARTESIAN_POINT ( 'NONE',  ( 0.000000000000000000, -10.42500000000000426, -15.00000000000000000 ) ) ;
#123 = ORIENTED_EDGE ( 'NONE', *, *, #38, .F. ) ;
#124 = CLOSED_SHELL ( 'NONE', ( #179, #313, #198, #149, #187, #367, #175, #599, #399, #485, #623, #426, #296, #563, #322, #353, #452, #206 ) ) ;
#125 = PRODUCT_DEFINITION_FORMATION_WITH_SPECIFIED_SOURCE ( 'ANY', '', #23, .NOT_KNOWN. ) ;
#126 = DIRECTION ( 'NONE',  ( 1.000000000000000000, 0.000000000000000000, 0.000000000000000000 ) ) ;
#127 = CARTESIAN_POINT ( 'NONE',  ( 5.000000000000000000, -10.42500000000000426, -15.00000000000000000 ) ) ;
#128 = ORIENTED_EDGE ( 'NONE', *, *, #534, .F. ) ;
#129 = CARTESIAN_POINT ( 'NONE',  ( 5.000000000000000000, -28.75000000000000711, 27.99999999999999645 ) ) ;
#130 = CARTESIAN_POINT ( 'NONE',  ( 0.000000000000000000, -26.75000000000001066, 27.99999999999999645 ) ) ;
#131 = EDGE_CURVE ( 'NONE', #556, #615, #585, .T. ) ;
#132 = ORIENTED_EDGE ( 'NONE', *, *, #530, .F. ) ;
#133 = DIRECTION ( 'NONE',  ( -1.000000000000000000, -0.000000000000000000, -0.000000000000000000 ) ) ;
#134 = EDGE_LOOP ( 'NONE', ( #277, #128, #119, #146 ) ) ;
#135 = EDGE_CURVE ( 'NONE', #166, #527, #387, .T. ) ;
#136 = CIRCLE ( 'NONE', #34, 2.050000000000003375 ) ;
#137 = APPLICATION_PROTOCOL_DEFINITION ( 'draft international standard', 'automotive_design', 1998, #451 ) ;
#138 = CARTESIAN_POINT ( 'NONE',  ( 0.000000000000000000, -26.75000000000000355, -30.00000000000000000 ) ) ;
#139 = ORIENTED_EDGE ( 'NONE', *, *, #386, .F. ) ;
#140 = ORIENTED_EDGE ( 'NONE', *, *, #38, .T. ) ;
#141 = DIRECTION ( 'NONE',  ( -0.000000000000000000, 6.484947573745073354E-17, 1.000000000000000000 ) ) ;
#142 = ORIENTED_EDGE ( 'NONE', *, *, #27, .T. ) ;
#143 = AXIS2_PLACEMENT_3D ( 'NONE', #542, #249, #108 ) ;
#144 = ORIENTED_EDGE ( 'NONE', *, *, #167, .F. ) ;
#145 = LINE ( 'NONE', #138, #493 ) ;
#146 = ORIENTED_EDGE ( 'NONE', *, *, #64, .T. ) ;
#147 = ORIENTED_EDGE ( 'NONE', *, *, #442, .T. ) ;
#148 = CARTESIAN_POINT ( 'NONE',  ( 5.000000000000000000, -10.42500000000000426, -17.05000000000000426 ) ) ;
#149 = ADVANCED_FACE ( 'NONE', ( #591 ), #349, .F. ) ;
#150 = VECTOR ( 'NONE', #357, 1000.000000000000000 ) ;
#151 = DIRECTION ( 'NONE',  ( 0.000000000000000000, 0.000000000000000000, 1.000000000000000000 ) ) ;
#152 = CARTESIAN_POINT ( 'NONE',  ( 5.000000000000000000, 1.574999999999994849, -22.50000000000000000 ) ) ;
#153 = VECTOR ( 'NONE', #565, 1000.000000000000000 ) ;
#154 = CARTESIAN_POINT ( 'NONE',  ( 0.000000000000000000, 11.12499999999999645, -23.55000000000000071 ) ) ;
#155 = ORIENTED_EDGE ( 'NONE', *, *, #156, .F. ) ;
#156 = EDGE_CURVE ( 'NONE', #615, #556, #413, .T. ) ;
#157 = CARTESIAN_POINT ( 'NONE',  ( 5.000000000000000000, 26.75000000000000355, -27.99999999999999645 ) ) ;
#158 = ORIENTED_EDGE ( 'NONE', *, *, #579, .F. ) ;
#159 = DIRECTION ( 'NONE',  ( 1.000000000000000000, 0.000000000000000000, 0.000000000000000000 ) ) ;
#160 = DIRECTION ( 'NONE',  ( 0.000000000000000000, -1.000000000000000000, -6.195440985631455317E-17 ) ) ;
#161 = VERTEX_POINT ( 'NONE', #393 ) ;
#162 = CIRCLE ( 'NONE', #44, 2.049999999999999822 ) ;
#163 = CIRCLE ( 'NONE', #383, 1.050000000000002265 ) ;
#164 = CARTESIAN_POINT ( 'NONE',  ( 0.000000000000000000, 26.74999999999999645, 27.99999999999999645 ) ) ;
#165 = DIRECTION ( 'NONE',  ( 1.000000000000000000, 0.000000000000000000, -0.000000000000000000 ) ) ;
#166 = VERTEX_POINT ( 'NONE', #51 ) ;
#167 = EDGE_CURVE ( 'NONE', #161, #111, #594, .T. ) ;
#168 = CARTESIAN_POINT ( 'NONE',  ( 5.000000000000000000, -26.75000000000000355, -30.00000000000000000 ) ) ;
#169 = FACE_OUTER_BOUND ( 'NONE', #106, .T. ) ;
#170 = VERTEX_POINT ( 'NONE', #148 ) ;
#171 = CIRCLE ( 'NONE', #143, 2.049999999999999822 ) ;
#172 = CARTESIAN_POINT ( 'NONE',  ( 5.000000000000000000, -10.42500000000000604, 15.00000000000000355 ) ) ;
#173 = CARTESIAN_POINT ( 'NONE',  ( 5.000000000000000000, -28.75000000000000711, 27.99999999999999645 ) ) ;
#174 = ORIENTED_EDGE ( 'NONE', *, *, #442, .F. ) ;
#175 = ADVANCED_FACE ( 'NONE', ( #254 ), #540, .T. ) ;
#176 = DIRECTION ( 'NONE',  ( 0.000000000000000000, 0.000000000000000000, -1.000000000000000000 ) ) ;
#177 = DIRECTION ( 'NONE',  ( 0.000000000000000000, 6.195440985631455317E-17, -1.000000000000000000 ) ) ;
#178 = ORIENTED_EDGE ( 'NONE', *, *, #553, .F. ) ;
#179 = ADVANCED_FACE ( 'NONE', ( #535 ), #443, .F. ) ;
#180 = DIRECTION ( 'NONE',  ( -1.000000000000000000, -0.000000000000000000, -0.000000000000000000 ) ) ;
#181 = ORIENTED_EDGE ( 'NONE', *, *, #572, .F. ) ;
#182 = LINE ( 'NONE', #567, #359 ) ;
#183 = VECTOR ( 'NONE', #37, 1000.000000000000000 ) ;
#184 = DIRECTION ( 'NONE',  ( -1.000000000000000000, -0.000000000000000000, -0.000000000000000000 ) ) ;
#185 = MECHANICAL_DESIGN_GEOMETRIC_PRESENTATION_REPRESENTATION (  '', ( #2 ), #588 ) ;
#186 = DIRECTION ( 'NONE',  ( 1.000000000000000000, 0.000000000000000000, 0.000000000000000000 ) ) ;
#187 = ADVANCED_FACE ( 'NONE', ( #104, #54, #486, #440, #13 ), #199, .T. ) ;
#188 = CARTESIAN_POINT ( 'NONE',  ( 5.000000000000000000, 26.74999999999999645, 27.99999999999999645 ) ) ;
#189 = DIRECTION ( 'NONE',  ( 1.000000000000000000, 0.000000000000000000, 0.000000000000000000 ) ) ;
#190 = ORIENTED_EDGE ( 'NONE', *, *, #579, .T. ) ;
#191 = FACE_OUTER_BOUND ( 'NONE', #566, .T. ) ;
#192 = CARTESIAN_POINT ( 'NONE',  ( 0.000000000000000000, -28.75000000000000711, 27.99999999999999645 ) ) ;
#193 = AXIS2_PLACEMENT_3D ( 'NONE', #252, #308, #496 ) ;
#194 = VERTEX_POINT ( 'NONE', #248 ) ;
#195 = EDGE_CURVE ( 'NONE', #501, #8, #202, .T. ) ;
#196 = VECTOR ( 'NONE', #116, 1000.000000000000000 ) ;
#197 = CARTESIAN_POINT ( 'NONE',  ( 5.000000000000000000, -26.75000000000000355, -27.99999999999999645 ) ) ;
#198 = ADVANCED_FACE ( 'NONE', ( #402 ), #59, .F. ) ;
#199 = PLANE ( 'NONE',  #474 ) ;
#200 = CARTESIAN_POINT ( 'NONE',  ( 5.000000000000000000, -10.42500000000000426, -15.00000000000000000 ) ) ;
#201 = CARTESIAN_POINT ( 'NONE',  ( 5.000000000000000000, 28.74999999999999645, 27.99999999999999645 ) ) ;
#202 = CIRCLE ( 'NONE', #251, 2.000000000000001776 ) ;
#203 = CARTESIAN_POINT ( 'NONE',  ( 0.000000000000000000, -10.42500000000000604, 15.00000000000000355 ) ) ;
#204 = VERTEX_POINT ( 'NONE', #584 ) ;
#205 = VECTOR ( 'NONE', #6, 1000.000000000000000 ) ;
#206 = ADVANCED_FACE ( 'NONE', ( #400 ), #354, .F. ) ;
#207 = CARTESIAN_POINT ( 'NONE',  ( 5.000000000000000000, 11.12499999999999645, -22.50000000000000000 ) ) ;
#208 = EDGE_LOOP ( 'NONE', ( #132, #481, #178, #508, #582, #218, #85, #123 ) ) ;
#209 = DIRECTION ( 'NONE',  ( 1.000000000000000000, 0.000000000000000000, 0.000000000000000000 ) ) ;
#210 = PLANE ( 'NONE',  #265 ) ;
#211 = EDGE_LOOP ( 'NONE', ( #67, #523 ) ) ;
#212 = AXIS2_PLACEMENT_3D ( 'NONE', #164, #417, #16 ) ;
#213 = CARTESIAN_POINT ( 'NONE',  ( 5.000000000000000000, -10.42500000000000426, -15.00000000000000000 ) ) ;
#214 = LINE ( 'NONE', #369, #348 ) ;
#215 = ORIENTED_EDGE ( 'NONE', *, *, #470, .T. ) ;
#216 = DIRECTION ( 'NONE',  ( 0.000000000000000000, -6.195440985631455317E-17, 1.000000000000000000 ) ) ;
#217 =( NAMED_UNIT ( * ) SI_UNIT ( $, .STERADIAN. ) SOLID_ANGLE_UNIT ( ) );
#218 = ORIENTED_EDGE ( 'NONE', *, *, #464, .F. ) ;
#219 = CARTESIAN_POINT ( 'NONE',  ( 5.000000000000000000, -26.75000000000001066, 27.99999999999999645 ) ) ;
#220 = ORIENTED_EDGE ( 'NONE', *, *, #511, .T. ) ;
#221 = DIRECTION ( 'NONE',  ( -1.000000000000000000, -0.000000000000000000, -0.000000000000000000 ) ) ;
#222 = DIRECTION ( 'NONE',  ( 0.000000000000000000, 0.000000000000000000, -1.000000000000000000 ) ) ;
#223 = VERTEX_POINT ( 'NONE', #57 ) ;
#224 = CARTESIAN_POINT ( 'NONE',  ( 5.000000000000000000, -10.42500000000000604, 17.05000000000000426 ) ) ;
#225 = EDGE_CURVE ( 'NONE', #204, #449, #171, .T. ) ;
#226 = AXIS2_PLACEMENT_3D ( 'NONE', #614, #378, #580 ) ;
#227 = DIRECTION ( 'NONE',  ( 1.000000000000000000, 0.000000000000000000, 0.000000000000000000 ) ) ;
#228 = VERTEX_POINT ( 'NONE', #154 ) ;
#229 = APPLICATION_CONTEXT ( 'automotive_design' ) ;
#230 = CARTESIAN_POINT ( 'NONE',  ( 0.000000000000000000, 1.574999999999994849, -21.44999999999999929 ) ) ;
#231 = CARTESIAN_POINT ( 'NONE',  ( 5.000000000000000000, -10.42500000000000604, 15.00000000000000355 ) ) ;
#232 = CARTESIAN_POINT ( 'NONE',  ( 0.000000000000000000, -10.42500000000000604, 15.00000000000000355 ) ) ;
#233 = APPLICATION_PROTOCOL_DEFINITION ( 'draft international standard', 'automotive_design', 1998, #229 ) ;
#234 = CIRCLE ( 'NONE', #15, 2.050000000000003375 ) ;
#235 = CARTESIAN_POINT ( 'NONE',  ( 5.000000000000000000, 26.75000000000000355, -30.00000000000000000 ) ) ;
#236 = AXIS2_PLACEMENT_3D ( 'NONE', #319, #547, #311 ) ;
#237 = CARTESIAN_POINT ( 'NONE',  ( 5.000000000000000000, -26.75000000000000355, -30.00000000000000000 ) ) ;
#238 = SHAPE_DEFINITION_REPRESENTATION ( #557, #18 ) ;
#239 = CARTESIAN_POINT ( 'NONE',  ( 0.000000000000000000, -28.75000000000000000, -27.99999999999999645 ) ) ;
#240 = PRODUCT_RELATED_PRODUCT_CATEGORY ( 'part', '', ( #23 ) ) ;
#241 = ORIENTED_EDGE ( 'NONE', *, *, #490, .F. ) ;
#242 = ORIENTED_EDGE ( 'NONE', *, *, #475, .T. ) ;
#243 = ORIENTED_EDGE ( 'NONE', *, *, #475, .F. ) ;
#244 = EDGE_CURVE ( 'NONE', #463, #161, #491, .T. ) ;
#245 = AXIS2_PLACEMENT_3D ( 'NONE', #188, #329, #290 ) ;
#246 = DIRECTION ( 'NONE',  ( 0.000000000000000000, 0.000000000000000000, 1.000000000000000000 ) ) ;
#247 = AXIS2_PLACEMENT_3D ( 'NONE', #122, #447, #368 ) ;
#248 = CARTESIAN_POINT ( 'NONE',  ( 0.000000000000000000, -28.75000000000000000, -27.99999999999999645 ) ) ;
#249 = DIRECTION ( 'NONE',  ( 1.000000000000000000, 0.000000000000000000, 0.000000000000000000 ) ) ;
#250 = EDGE_CURVE ( 'NONE', #325, #412, #107, .T. ) ;
#251 = AXIS2_PLACEMENT_3D ( 'NONE', #157, #397, #298 ) ;
#252 = CARTESIAN_POINT ( 'NONE',  ( 5.000000000000000000, -26.75000000000001066, 27.99999999999999645 ) ) ;
#253 = VERTEX_POINT ( 'NONE', #62 ) ;
#254 = FACE_OUTER_BOUND ( 'NONE', #75, .T. ) ;
#255 = LINE ( 'NONE', #444, #390 ) ;
#256 = ORIENTED_EDGE ( 'NONE', *, *, #282, .T. ) ;
#257 = DIRECTION ( 'NONE',  ( -1.000000000000000000, -0.000000000000000000, -0.000000000000000000 ) ) ;
#258 = SURFACE_STYLE_FILL_AREA ( #80 ) ;
#259 = ORIENTED_EDGE ( 'NONE', *, *, #131, .F. ) ;
#260 = AXIS2_PLACEMENT_3D ( 'NONE', #203, #159, #100 ) ;
#261 = EDGE_CURVE ( 'NONE', #515, #60, #543, .T. ) ;
#262 = LINE ( 'NONE', #411, #103 ) ;
#263 = CARTESIAN_POINT ( 'NONE',  ( 0.000000000000000000, -10.42500000000000604, 12.95000000000000284 ) ) ;
#264 = EDGE_LOOP ( 'NONE', ( #42, #87 ) ) ;
#265 = AXIS2_PLACEMENT_3D ( 'NONE', #66, #315, #595 ) ;
#266 = AXIS2_PLACEMENT_3D ( 'NONE', #219, #361, #611 ) ;
#267 = CARTESIAN_POINT ( 'NONE',  ( 5.000000000000000000, -28.75000000000000000, -27.99999999999999645 ) ) ;
#268 = DIRECTION ( 'NONE',  ( -1.000000000000000000, -0.000000000000000000, -0.000000000000000000 ) ) ;
#269 = ORIENTED_EDGE ( 'NONE', *, *, #331, .F. ) ;
#270 = FACE_OUTER_BOUND ( 'NONE', #360, .T. ) ;
#271 = DIRECTION ( 'NONE',  ( -1.000000000000000000, -0.000000000000000000, -0.000000000000000000 ) ) ;
#272 = EDGE_LOOP ( 'NONE', ( #320, #456, #583, #498 ) ) ;
#273 = EDGE_CURVE ( 'NONE', #50, #111, #483, .T. ) ;
#274 = AXIS2_PLACEMENT_3D ( 'NONE', #392, #227, #76 ) ;
#275 = DIRECTION ( 'NONE',  ( -1.000000000000000000, -0.000000000000000000, -0.000000000000000000 ) ) ;
#276 = SURFACE_SIDE_STYLE ('',( #258 ) ) ;
#277 = ORIENTED_EDGE ( 'NONE', *, *, #82, .T. ) ;
#278 = AXIS2_PLACEMENT_3D ( 'NONE', #130, #165, #324 ) ;
#279 = DIRECTION ( 'NONE',  ( 0.000000000000000000, 0.000000000000000000, -1.000000000000000000 ) ) ;
#280 =( LENGTH_UNIT ( ) NAMED_UNIT ( * ) SI_UNIT ( .MILLI., .METRE. ) );
#281 = ORIENTED_EDGE ( 'NONE', *, *, #432, .F. ) ;
#282 = EDGE_CURVE ( 'NONE', #468, #573, #461, .T. ) ;
#283 = EDGE_LOOP ( 'NONE', ( #410, #147, #115, #306 ) ) ;
#284 = ORIENTED_EDGE ( 'NONE', *, *, #250, .T. ) ;
#285 = AXIS2_PLACEMENT_3D ( 'NONE', #200, #5, #151 ) ;
#286 = DIRECTION ( 'NONE',  ( 0.000000000000000000, 1.000000000000000000, -6.484947573745073354E-17 ) ) ;
#287 = EDGE_LOOP ( 'NONE', ( #174, #366, #78, #529 ) ) ;
#288 = VECTOR ( 'NONE', #467, 1000.000000000000000 ) ;
#289 = CIRCLE ( 'NONE', #519, 1.049999999999998934 ) ;
#290 = DIRECTION ( 'NONE',  ( 0.000000000000000000, 0.000000000000000000, 1.000000000000000000 ) ) ;
#291 = CARTESIAN_POINT ( 'NONE',  ( 0.000000000000000000, -10.42500000000000426, -17.05000000000000426 ) ) ;
#292 = EDGE_CURVE ( 'NONE', #573, #94, #424, .T. ) ;
#293 = ORIENTED_EDGE ( 'NONE', *, *, #380, .T. ) ;
#294 = PRODUCT_CONTEXT ( 'NONE', #451, 'mechanical' ) ;
#295 = CARTESIAN_POINT ( 'NONE',  ( 0.000000000000000000, 26.75000000000000355, -27.99999999999999645 ) ) ;
#296 = ADVANCED_FACE ( 'NONE', ( #270 ), #453, .T. ) ;
#297 = EDGE_LOOP ( 'NONE', ( #140, #610, #568, #215 ) ) ;
#298 = DIRECTION ( 'NONE',  ( 0.000000000000000000, 0.000000000000000000, -1.000000000000000000 ) ) ;
#299 = DIRECTION ( 'NONE',  ( -1.000000000000000000, -0.000000000000000000, -0.000000000000000000 ) ) ;
#300 = COLOUR_RGB ( '',0.7921568627450980005, 0.8196078431372548767, 0.9333333333333333481 ) ;
#301 = DIRECTION ( 'NONE',  ( 0.000000000000000000, 0.000000000000000000, -1.000000000000000000 ) ) ;
#302 = FACE_OUTER_BOUND ( 'NONE', #460, .T. ) ;
#303 = EDGE_CURVE ( 'NONE', #325, #548, #551, .T. ) ;
#304 = CARTESIAN_POINT ( 'NONE',  ( 5.000000000000000000, -26.75000000000000355, -27.99999999999999645 ) ) ;
#305 = CARTESIAN_POINT ( 'NONE',  ( 5.000000000000000000, -26.75000000000000355, -27.99999999999999645 ) ) ;
#306 = ORIENTED_EDGE ( 'NONE', *, *, #53, .F. ) ;
#307 = AXIS2_PLACEMENT_3D ( 'NONE', #207, #546, #246 ) ;
#308 = DIRECTION ( 'NONE',  ( 1.000000000000000000, 0.000000000000000000, -0.000000000000000000 ) ) ;
#309 = ORIENTED_EDGE ( 'NONE', *, *, #250, .F. ) ;
#310 = FACE_BOUND ( 'NONE', #264, .T. ) ;
#311 = DIRECTION ( 'NONE',  ( 0.000000000000000000, 0.000000000000000000, -1.000000000000000000 ) ) ;
#312 = ORIENTED_EDGE ( 'NONE', *, *, #273, .T. ) ;
#313 = ADVANCED_FACE ( 'NONE', ( #314 ), #597, .F. ) ;
#314 = FACE_OUTER_BOUND ( 'NONE', #388, .T. ) ;
#315 = DIRECTION ( 'NONE',  ( -0.000000000000000000, 1.000000000000000000, 1.239088197126291063E-16 ) ) ;
#316 = EDGE_LOOP ( 'NONE', ( #512, #343 ) ) ;
#317 = AXIS2_PLACEMENT_3D ( 'NONE', #7, #489, #437 ) ;
#318 = DIRECTION ( 'NONE',  ( 0.000000000000000000, 0.000000000000000000, 1.000000000000000000 ) ) ;
#319 = CARTESIAN_POINT ( 'NONE',  ( 0.000000000000000000, -26.75000000000000355, -27.99999999999999645 ) ) ;
#320 = ORIENTED_EDGE ( 'NONE', *, *, #386, .T. ) ;
#321 = AXIS2_PLACEMENT_3D ( 'NONE', #334, #141, #528 ) ;
#322 = ADVANCED_FACE ( 'NONE', ( #68 ), #117, .F. ) ;
#323 = CARTESIAN_POINT ( 'NONE',  ( 5.000000000000000000, 26.75000000000000355, -27.99999999999999645 ) ) ;
#324 = DIRECTION ( 'NONE',  ( 0.000000000000000000, 0.000000000000000000, 1.000000000000000000 ) ) ;
#325 = VERTEX_POINT ( 'NONE', #499 ) ;
#326 = PLANE ( 'NONE',  #550 ) ;
#327 = ORIENTED_EDGE ( 'NONE', *, *, #470, .F. ) ;
#328 = CARTESIAN_POINT ( 'NONE',  ( 5.000000000000000000, -26.75000000000001066, 30.00000000000000000 ) ) ;
#329 = DIRECTION ( 'NONE',  ( -1.000000000000000000, -0.000000000000000000, -0.000000000000000000 ) ) ;
#330 = EDGE_LOOP ( 'NONE', ( #429, #385 ) ) ;
#331 = EDGE_CURVE ( 'NONE', #8, #463, #262, .T. ) ;
#332 = VECTOR ( 'NONE', #415, 1000.000000000000000 ) ;
#333 = DIRECTION ( 'NONE',  ( 1.000000000000000000, 0.000000000000000000, 0.000000000000000000 ) ) ;
#334 = CARTESIAN_POINT ( 'NONE',  ( 5.000000000000000000, -26.75000000000000355, -30.00000000000000000 ) ) ;
#335 = DIRECTION ( 'NONE',  ( 0.000000000000000000, 0.000000000000000000, -1.000000000000000000 ) ) ;
#336 = VERTEX_POINT ( 'NONE', #65 ) ;
#337 = AXIS2_PLACEMENT_3D ( 'NONE', #197, #423, #391 ) ;
#338 = CARTESIAN_POINT ( 'NONE',  ( 0.000000000000000000, 1.574999999999994849, -22.50000000000000000 ) ) ;
#339 = ORIENTED_EDGE ( 'NONE', *, *, #534, .T. ) ;
#340 = FACE_OUTER_BOUND ( 'NONE', #297, .T. ) ;
#341 = EDGE_CURVE ( 'NONE', #228, #336, #163, .T. ) ;
#342 = CARTESIAN_POINT ( 'NONE',  ( 5.000000000000000000, 28.75000000000000000, -27.99999999999999645 ) ) ;
#343 = ORIENTED_EDGE ( 'NONE', *, *, #131, .T. ) ;
#344 = ORIENTED_EDGE ( 'NONE', *, *, #72, .T. ) ;
#345 = DIRECTION ( 'NONE',  ( 0.000000000000000000, -6.195440985631455317E-17, 1.000000000000000000 ) ) ;
#346 = DIRECTION ( 'NONE',  ( 0.000000000000000000, 0.000000000000000000, 1.000000000000000000 ) ) ;
#347 = PRODUCT_DEFINITION ( 'UNKNOWN', '', #125, #465 ) ;
#348 = VECTOR ( 'NONE', #500, 1000.000000000000000 ) ;
#349 = CYLINDRICAL_SURFACE ( 'NONE', #317, 2.049999999999999822 ) ;
#350 = CARTESIAN_POINT ( 'NONE',  ( 5.000000000000000000, 11.12499999999999645, -23.55000000000000071 ) ) ;
#351 = CARTESIAN_POINT ( 'NONE',  ( 5.000000000000000000, 26.74999999999999645, 27.99999999999999645 ) ) ;
#352 = ORIENTED_EDGE ( 'NONE', *, *, #539, .T. ) ;
#353 = ADVANCED_FACE ( 'NONE', ( #364 ), #28, .F. ) ;
#354 = CYLINDRICAL_SURFACE ( 'NONE', #466, 1.050000000000002265 ) ;
#355 = CYLINDRICAL_SURFACE ( 'NONE', #618, 1.049999999999998934 ) ;
#356 = ORIENTED_EDGE ( 'NONE', *, *, #572, .T. ) ;
#357 = DIRECTION ( 'NONE',  ( -1.000000000000000000, -0.000000000000000000, -0.000000000000000000 ) ) ;
#358 = CARTESIAN_POINT ( 'NONE',  ( 5.000000000000000000, 26.75000000000000355, -30.00000000000000000 ) ) ;
#359 = VECTOR ( 'NONE', #133, 1000.000000000000000 ) ;
#360 = EDGE_LOOP ( 'NONE', ( #622, #526, #309, #482 ) ) ;
#361 = DIRECTION ( 'NONE',  ( -1.000000000000000000, -0.000000000000000000, -0.000000000000000000 ) ) ;
#362 = PRESENTATION_STYLE_ASSIGNMENT (( #507 ) ) ;
#363 = ORIENTED_EDGE ( 'NONE', *, *, #225, .F. ) ;
#364 = FACE_OUTER_BOUND ( 'NONE', #441, .T. ) ;
#365 = LINE ( 'NONE', #560, #84 ) ;
#366 = ORIENTED_EDGE ( 'NONE', *, *, #135, .T. ) ;
#367 = ADVANCED_FACE ( 'NONE', ( #375, #554, #310, #506, #24 ), #326, .F. ) ;
#368 = DIRECTION ( 'NONE',  ( 0.000000000000000000, 0.000000000000000000, -1.000000000000000000 ) ) ;
#369 = CARTESIAN_POINT ( 'NONE',  ( 5.000000000000000000, 1.574999999999995071, -23.54999999999999716 ) ) ;
#370 = ORIENTED_EDGE ( 'NONE', *, *, #244, .T. ) ;
#371 = EDGE_LOOP ( 'NONE', ( #532, #344, #596, #398, #370, #96, #284, #220 ) ) ;
#372 = LINE ( 'NONE', #267, #288 ) ;
#373 = CARTESIAN_POINT ( 'NONE',  ( 5.000000000000000000, 28.75000000000000000, -27.99999999999999645 ) ) ;
#374 = VERTEX_POINT ( 'NONE', #168 ) ;
#375 = FACE_OUTER_BOUND ( 'NONE', #208, .T. ) ;
#376 = EDGE_LOOP ( 'NONE', ( #504, #593, #155, #181 ) ) ;
#377 = VECTOR ( 'NONE', #286, 1000.000000000000000 ) ;
#378 = DIRECTION ( 'NONE',  ( 0.000000000000000000, 0.000000000000000000, 1.000000000000000000 ) ) ;
#379 = CARTESIAN_POINT ( 'NONE',  ( 0.000000000000000000, 28.74999999999999645, 27.99999999999999645 ) ) ;
#380 = EDGE_CURVE ( 'NONE', #253, #194, #372, .T. ) ;
#381 = AXIS2_PLACEMENT_3D ( 'NONE', #21, #73, #79 ) ;
#382 = CARTESIAN_POINT ( 'NONE',  ( 0.000000000000000000, 11.12499999999999645, -22.50000000000000000 ) ) ;
#383 = AXIS2_PLACEMENT_3D ( 'NONE', #559, #126, #408 ) ;
#384 = CARTESIAN_POINT ( 'NONE',  ( 5.000000000000000000, 1.574999999999994849, -21.44999999999999929 ) ) ;
#385 = ORIENTED_EDGE ( 'NONE', *, *, #135, .F. ) ;
#386 = EDGE_CURVE ( 'NONE', #468, #170, #494, .T. ) ;
#387 = CIRCLE ( 'NONE', #505, 1.050000000000002265 ) ;
#388 = EDGE_LOOP ( 'NONE', ( #142, #352, #577, #26 ) ) ;
#389 = ORIENTED_EDGE ( 'NONE', *, *, #539, .F. ) ;
#390 = VECTOR ( 'NONE', #345, 1000.000000000000000 ) ;
#391 = DIRECTION ( 'NONE',  ( 0.000000000000000000, 0.000000000000000000, -1.000000000000000000 ) ) ;
#392 = CARTESIAN_POINT ( 'NONE',  ( 5.000000000000000000, 1.574999999999994849, -22.50000000000000000 ) ) ;
#393 = CARTESIAN_POINT ( 'NONE',  ( 5.000000000000000000, 26.74999999999999645, 30.00000000000000000 ) ) ;
#394 = AXIS2_PLACEMENT_3D ( 'NONE', #295, #189, #1 ) ;
#395 = DIRECTION ( 'NONE',  ( 0.000000000000000000, 0.000000000000000000, -1.000000000000000000 ) ) ;
#396 =( GEOMETRIC_REPRESENTATION_CONTEXT ( 3 ) GLOBAL_UNCERTAINTY_ASSIGNED_CONTEXT ( ( #574 ) ) GLOBAL_UNIT_ASSIGNED_CONTEXT ( ( #280, #517, #427 ) ) REPRESENTATION_CONTEXT ( 'NONE', 'WORKASPACE' ) );
#397 = DIRECTION ( 'NONE',  ( 1.000000000000000000, 0.000000000000000000, 0.000000000000000000 ) ) ;
#398 = ORIENTED_EDGE ( 'NONE', *, *, #331, .T. ) ;
#399 = ADVANCED_FACE ( 'NONE', ( #113 ), #509, .T. ) ;
#400 = FACE_OUTER_BOUND ( 'NONE', #287, .T. ) ;
#401 = ORIENTED_EDGE ( 'NONE', *, *, #261, .F. ) ;
#402 = FACE_OUTER_BOUND ( 'NONE', #272, .T. ) ;
#403 = ORIENTED_EDGE ( 'NONE', *, *, #244, .F. ) ;
#404 = DIRECTION ( 'NONE',  ( 1.000000000000000000, 0.000000000000000000, 0.000000000000000000 ) ) ;
#405 = CARTESIAN_POINT ( 'NONE',  ( 5.000000000000000000, -10.42500000000000604, 12.95000000000000284 ) ) ;
#406 = PRESENTATION_LAYER_ASSIGNMENT (  '', '', ( #2 ) ) ;
#407 = EDGE_LOOP ( 'NONE', ( #389, #518, #30, #590 ) ) ;
#408 = DIRECTION ( 'NONE',  ( 0.000000000000000000, 0.000000000000000000, -1.000000000000000000 ) ) ;
#409 = LINE ( 'NONE', #17, #112 ) ;
#410 = ORIENTED_EDGE ( 'NONE', *, *, #434, .T. ) ;
#411 = CARTESIAN_POINT ( 'NONE',  ( 5.000000000000000000, 28.75000000000000000, -27.99999999999999645 ) ) ;
#412 = VERTEX_POINT ( 'NONE', #129 ) ;
#413 = CIRCLE ( 'NONE', #260, 2.049999999999999822 ) ;
#414 = DIRECTION ( 'NONE',  ( 0.000000000000000000, 0.000000000000000000, 1.000000000000000000 ) ) ;
#415 = DIRECTION ( 'NONE',  ( -1.000000000000000000, -0.000000000000000000, -0.000000000000000000 ) ) ;
#416 = ORIENTED_EDGE ( 'NONE', *, *, #110, .T. ) ;
#417 = DIRECTION ( 'NONE',  ( 1.000000000000000000, 0.000000000000000000, 0.000000000000000000 ) ) ;
#418 = VERTEX_POINT ( 'NONE', #230 ) ;
#419 = EDGE_CURVE ( 'NONE', #544, #418, #289, .T. ) ;
#420 = DIRECTION ( 'NONE',  ( 0.000000000000000000, 0.000000000000000000, -1.000000000000000000 ) ) ;
#421 = DIRECTION ( 'NONE',  ( 0.000000000000000000, 0.000000000000000000, -1.000000000000000000 ) ) ;
#422 = AXIS2_PLACEMENT_3D ( 'NONE', #305, #10, #346 ) ;
#423 = DIRECTION ( 'NONE',  ( 1.000000000000000000, 0.000000000000000000, 0.000000000000000000 ) ) ;
#424 = CIRCLE ( 'NONE', #247, 2.050000000000003375 ) ;
#425 = LINE ( 'NONE', #619, #31 ) ;
#426 = ADVANCED_FACE ( 'NONE', ( #516 ), #36, .F. ) ;
#427 =( NAMED_UNIT ( * ) SI_UNIT ( $, .STERADIAN. ) SOLID_ANGLE_UNIT ( ) );
#428 = DIRECTION ( 'NONE',  ( 1.000000000000000000, 0.000000000000000000, 0.000000000000000000 ) ) ;
#429 = ORIENTED_EDGE ( 'NONE', *, *, #434, .F. ) ;
#430 = DIRECTION ( 'NONE',  ( -1.000000000000000000, -0.000000000000000000, -0.000000000000000000 ) ) ;
#431 = ORIENTED_EDGE ( 'NONE', *, *, #511, .F. ) ;
#432 = EDGE_CURVE ( 'NONE', #170, #94, #182, .T. ) ;
#433 = DIRECTION ( 'NONE',  ( 1.000000000000000000, 0.000000000000000000, 0.000000000000000000 ) ) ;
#434 = EDGE_CURVE ( 'NONE', #527, #166, #71, .T. ) ;
#435 = CARTESIAN_POINT ( 'NONE',  ( 5.000000000000000000, 11.12499999999999645, -22.50000000000000000 ) ) ;
#436 = LINE ( 'NONE', #4, #205 ) ;
#437 = DIRECTION ( 'NONE',  ( 0.000000000000000000, 0.000000000000000000, 1.000000000000000000 ) ) ;
#438 = CIRCLE ( 'NONE', #569, 1.050000000000002265 ) ;
#439 = AXIS2_PLACEMENT_3D ( 'NONE', #576, #333, #473 ) ;
#440 = FACE_BOUND ( 'NONE', #480, .T. ) ;
#441 = EDGE_LOOP ( 'NONE', ( #281, #190, #256, #600 ) ) ;
#442 = EDGE_CURVE ( 'NONE', #166, #228, #446, .T. ) ;
#443 = CYLINDRICAL_SURFACE ( 'NONE', #307, 1.050000000000002265 ) ;
#444 = CARTESIAN_POINT ( 'NONE',  ( 0.000000000000000000, 28.75000000000000000, -27.99999999999999645 ) ) ;
#445 = EDGE_LOOP ( 'NONE', ( #416, #48, #241, #11 ) ) ;
#446 = LINE ( 'NONE', #350, #196 ) ;
#447 = DIRECTION ( 'NONE',  ( 1.000000000000000000, 0.000000000000000000, 0.000000000000000000 ) ) ;
#448 = CARTESIAN_POINT ( 'NONE',  ( 0.000000000000000000, 26.75000000000000355, -30.00000000000000000 ) ) ;
#449 = VERTEX_POINT ( 'NONE', #224 ) ;
#450 = VECTOR ( 'NONE', #184, 1000.000000000000000 ) ;
#451 = APPLICATION_CONTEXT ( 'automotive_design' ) ;
#452 = ADVANCED_FACE ( 'NONE', ( #592 ), #355, .F. ) ;
#453 = CYLINDRICAL_SURFACE ( 'NONE', #266, 2.000000000000001776 ) ;
#454 = CARTESIAN_POINT ( 'NONE',  ( 5.000000000000000000, -28.75000000000000000, -27.99999999999999645 ) ) ;
#455 = VECTOR ( 'NONE', #271, 1000.000000000000000 ) ;
#456 = ORIENTED_EDGE ( 'NONE', *, *, #432, .T. ) ;
#457 = AXIS2_PLACEMENT_3D ( 'NONE', #213, #180, #601 ) ;
#458 = CARTESIAN_POINT ( 'NONE',  ( 5.000000000000000000, -26.75000000000001066, 30.00000000000000000 ) ) ;
#459 = DIRECTION ( 'NONE',  ( -0.000000000000000000, 1.239088197126291063E-16, -1.000000000000000000 ) ) ;
#460 = EDGE_LOOP ( 'NONE', ( #575, #243, #269, #339 ) ) ;
#461 = LINE ( 'NONE', #502, #52 ) ;
#462 = LINE ( 'NONE', #373, #332 ) ;
#463 = VERTEX_POINT ( 'NONE', #201 ) ;
#464 = EDGE_CURVE ( 'NONE', #223, #50, #255, .T. ) ;
#465 = PRODUCT_DEFINITION_CONTEXT ( 'detailed design', #229, 'design' ) ;
#466 = AXIS2_PLACEMENT_3D ( 'NONE', #435, #589, #488 ) ;
#467 = DIRECTION ( 'NONE',  ( -1.000000000000000000, -0.000000000000000000, -0.000000000000000000 ) ) ;
#468 = VERTEX_POINT ( 'NONE', #533 ) ;
#469 = AXIS2_PLACEMENT_3D ( 'NONE', #102, #56, #395 ) ;
#470 = EDGE_CURVE ( 'NONE', #374, #492, #436, .T. ) ;
#471 = DIRECTION ( 'NONE',  ( 1.000000000000000000, 0.000000000000000000, 0.000000000000000000 ) ) ;
#472 = DIRECTION ( 'NONE',  ( 0.000000000000000000, 0.000000000000000000, -1.000000000000000000 ) ) ;
#473 = DIRECTION ( 'NONE',  ( 0.000000000000000000, 0.000000000000000000, -1.000000000000000000 ) ) ;
#474 = AXIS2_PLACEMENT_3D ( 'NONE', #304, #209, #301 ) ;
#475 = EDGE_CURVE ( 'NONE', #463, #50, #587, .T. ) ;
#476 = LINE ( 'NONE', #621, #477 ) ;
#477 = VECTOR ( 'NONE', #430, 1000.000000000000000 ) ;
#478 = AXIS2_PLACEMENT_3D ( 'NONE', #328, #279, #613 ) ;
#479 = DIRECTION ( 'NONE',  ( -0.000000000000000000, -1.000000000000000000, -0.000000000000000000 ) ) ;
#480 = EDGE_LOOP ( 'NONE', ( #139, #158 ) ) ;
#481 = ORIENTED_EDGE ( 'NONE', *, *, #120, .F. ) ;
#482 = ORIENTED_EDGE ( 'NONE', *, *, #303, .T. ) ;
#483 = CIRCLE ( 'NONE', #212, 2.000000000000001776 ) ;
#484 = DIRECTION ( 'NONE',  ( 1.000000000000000000, 0.000000000000000000, 0.000000000000000000 ) ) ;
#485 = ADVANCED_FACE ( 'NONE', ( #302 ), #487, .F. ) ;
#486 = FACE_OUTER_BOUND ( 'NONE', #371, .T. ) ;
#487 = PLANE ( 'NONE',  #101 ) ;
#488 = DIRECTION ( 'NONE',  ( 0.000000000000000000, 0.000000000000000000, 1.000000000000000000 ) ) ;
#489 = DIRECTION ( 'NONE',  ( -1.000000000000000000, -0.000000000000000000, -0.000000000000000000 ) ) ;
#490 = EDGE_CURVE ( 'NONE', #161, #325, #409, .T. ) ;
#491 = CIRCLE ( 'NONE', #578, 2.000000000000001776 ) ;
#492 = VERTEX_POINT ( 'NONE', #114 ) ;
#493 = VECTOR ( 'NONE', #97, 1000.000000000000000 ) ;
#494 = CIRCLE ( 'NONE', #9, 2.050000000000003375 ) ;
#495 = VECTOR ( 'NONE', #459, 1000.000000000000000 ) ;
#496 = DIRECTION ( 'NONE',  ( 0.000000000000000000, 0.000000000000000000, 1.000000000000000000 ) ) ;
#497 = DIRECTION ( 'NONE',  ( 0.000000000000000000, 0.000000000000000000, 1.000000000000000000 ) ) ;
#498 = ORIENTED_EDGE ( 'NONE', *, *, #282, .F. ) ;
#499 = CARTESIAN_POINT ( 'NONE',  ( 5.000000000000000000, -26.75000000000001066, 30.00000000000000000 ) ) ;
#500 = DIRECTION ( 'NONE',  ( -1.000000000000000000, -0.000000000000000000, -0.000000000000000000 ) ) ;
#501 = VERTEX_POINT ( 'NONE', #358 ) ;
#502 = CARTESIAN_POINT ( 'NONE',  ( 5.000000000000000000, -10.42500000000000426, -12.94999999999999574 ) ) ;
#503 = LINE ( 'NONE', #454, #495 ) ;
#504 = ORIENTED_EDGE ( 'NONE', *, *, #607, .T. ) ;
#505 = AXIS2_PLACEMENT_3D ( 'NONE', #538, #484, #586 ) ;
#506 = FACE_BOUND ( 'NONE', #211, .T. ) ;
#507 = SURFACE_STYLE_USAGE ( .BOTH. , #276 ) ;
#508 = ORIENTED_EDGE ( 'NONE', *, *, #110, .F. ) ;
#509 = CYLINDRICAL_SURFACE ( 'NONE', #536, 2.000000000000001776 ) ;
#510 = DIRECTION ( 'NONE',  ( 1.000000000000000000, 0.000000000000000000, 0.000000000000000000 ) ) ;
#511 = EDGE_CURVE ( 'NONE', #412, #253, #503, .T. ) ;
#512 = ORIENTED_EDGE ( 'NONE', *, *, #156, .T. ) ;
#513 = DIRECTION ( 'NONE',  ( -1.000000000000000000, -0.000000000000000000, -0.000000000000000000 ) ) ;
#514 = FILL_AREA_STYLE_COLOUR ( '', #300 ) ;
#515 = VERTEX_POINT ( 'NONE', #602 ) ;
#516 = FACE_OUTER_BOUND ( 'NONE', #445, .T. ) ;
#517 =( NAMED_UNIT ( * ) PLANE_ANGLE_UNIT ( ) SI_UNIT ( $, .RADIAN. ) );
#518 = ORIENTED_EDGE ( 'NONE', *, *, #261, .T. ) ;
#519 = AXIS2_PLACEMENT_3D ( 'NONE', #83, #471, #420 ) ;
#520 = LINE ( 'NONE', #237, #377 ) ;
#521 = EDGE_CURVE ( 'NONE', #412, #63, #77, .T. ) ;
#522 = DIRECTION ( 'NONE',  ( 0.000000000000000000, 0.000000000000000000, -1.000000000000000000 ) ) ;
#523 = ORIENTED_EDGE ( 'NONE', *, *, #419, .T. ) ;
#524 = VECTOR ( 'NONE', #40, 1000.000000000000000 ) ;
#525 = DIRECTION ( 'NONE',  ( 0.000000000000000000, 0.000000000000000000, -1.000000000000000000 ) ) ;
#526 = ORIENTED_EDGE ( 'NONE', *, *, #521, .F. ) ;
#527 = VERTEX_POINT ( 'NONE', #69 ) ;
#528 = DIRECTION ( 'NONE',  ( 0.000000000000000000, -1.000000000000000000, 6.484947573745073354E-17 ) ) ;
#529 = ORIENTED_EDGE ( 'NONE', *, *, #341, .F. ) ;
#530 = EDGE_CURVE ( 'NONE', #194, #492, #545, .T. ) ;
#531 = VERTEX_POINT ( 'NONE', #448 ) ;
#532 = ORIENTED_EDGE ( 'NONE', *, *, #86, .T. ) ;
#533 = CARTESIAN_POINT ( 'NONE',  ( 5.000000000000000000, -10.42500000000000426, -12.94999999999999574 ) ) ;
#534 = EDGE_CURVE ( 'NONE', #8, #223, #462, .T. ) ;
#535 = FACE_OUTER_BOUND ( 'NONE', #283, .T. ) ;
#536 = AXIS2_PLACEMENT_3D ( 'NONE', #323, #221, #414 ) ;
#537 = AXIS2_PLACEMENT_3D ( 'NONE', #172, #275, #318 ) ;
#538 = CARTESIAN_POINT ( 'NONE',  ( 5.000000000000000000, 11.12499999999999645, -22.50000000000000000 ) ) ;
#539 = EDGE_CURVE ( 'NONE', #515, #544, #214, .T. ) ;
#540 = CYLINDRICAL_SURFACE ( 'NONE', #422, 2.000000000000001776 ) ;
#541 = ORIENTED_EDGE ( 'NONE', *, *, #225, .T. ) ;
#542 = CARTESIAN_POINT ( 'NONE',  ( 5.000000000000000000, -10.42500000000000604, 15.00000000000000355 ) ) ;
#543 = CIRCLE ( 'NONE', #274, 1.049999999999998934 ) ;
#544 = VERTEX_POINT ( 'NONE', #25 ) ;
#545 = CIRCLE ( 'NONE', #236, 2.000000000000001776 ) ;
#546 = DIRECTION ( 'NONE',  ( -1.000000000000000000, -0.000000000000000000, -0.000000000000000000 ) ) ;
#547 = DIRECTION ( 'NONE',  ( 1.000000000000000000, 0.000000000000000000, 0.000000000000000000 ) ) ;
#548 = VERTEX_POINT ( 'NONE', #598 ) ;
#549 = EDGE_CURVE ( 'NONE', #204, #556, #29, .T. ) ;
#550 = AXIS2_PLACEMENT_3D ( 'NONE', #608, #404, #176 ) ;
#551 = LINE ( 'NONE', #458, #74 ) ;
#552 = ORIENTED_EDGE ( 'NONE', *, *, #120, .T. ) ;
#553 = EDGE_CURVE ( 'NONE', #548, #63, #561, .T. ) ;
#554 = FACE_BOUND ( 'NONE', #316, .T. ) ;
#555 =( LENGTH_UNIT ( ) NAMED_UNIT ( * ) SI_UNIT ( .MILLI., .METRE. ) );
#556 = VERTEX_POINT ( 'NONE', #263 ) ;
#557 = PRODUCT_DEFINITION_SHAPE ( 'NONE', 'NONE',  #347 ) ;
#558 = MANIFOLD_SOLID_BREP ( 'Boss-Extrude1', #124 ) ;
#559 = CARTESIAN_POINT ( 'NONE',  ( 0.000000000000000000, 11.12499999999999645, -22.50000000000000000 ) ) ;
#560 = CARTESIAN_POINT ( 'NONE',  ( 5.000000000000000000, -10.42500000000000604, 17.05000000000000426 ) ) ;
#561 = CIRCLE ( 'NONE', #278, 2.000000000000001776 ) ;
#562 = ORIENTED_EDGE ( 'NONE', *, *, #521, .T. ) ;
#563 = ADVANCED_FACE ( 'NONE', ( #169 ), #210, .F. ) ;
#564 = CARTESIAN_POINT ( 'NONE',  ( 5.000000000000000000, -10.42500000000000426, -15.00000000000000000 ) ) ;
#565 = DIRECTION ( 'NONE',  ( -1.000000000000000000, -0.000000000000000000, -0.000000000000000000 ) ) ;
#566 = EDGE_LOOP ( 'NONE', ( #312, #144, #403, #242 ) ) ;
#567 = CARTESIAN_POINT ( 'NONE',  ( 5.000000000000000000, -10.42500000000000426, -17.05000000000000426 ) ) ;
#568 = ORIENTED_EDGE ( 'NONE', *, *, #72, .F. ) ;
#569 = AXIS2_PLACEMENT_3D ( 'NONE', #382, #186, #335 ) ;
#570 = CYLINDRICAL_SURFACE ( 'NONE', #245, 2.000000000000001776 ) ;
#571 = DIRECTION ( 'NONE',  ( 1.000000000000000000, 0.000000000000000000, 0.000000000000000000 ) ) ;
#572 = EDGE_CURVE ( 'NONE', #449, #615, #365, .T. ) ;
#573 = VERTEX_POINT ( 'NONE', #605 ) ;
#574 = UNCERTAINTY_MEASURE_WITH_UNIT (LENGTH_MEASURE( 1.000000000000000082E-05 ), #280, 'distance_accuracy_value', 'NONE');
#575 = ORIENTED_EDGE ( 'NONE', *, *, #464, .T. ) ;
#576 = CARTESIAN_POINT ( 'NONE',  ( 5.000000000000000000, 1.574999999999994849, -22.50000000000000000 ) ) ;
#577 = ORIENTED_EDGE ( 'NONE', *, *, #92, .F. ) ;
#578 = AXIS2_PLACEMENT_3D ( 'NONE', #351, #433, #3 ) ;
#579 = EDGE_CURVE ( 'NONE', #170, #468, #136, .T. ) ;
#580 = DIRECTION ( 'NONE',  ( 1.000000000000000000, 0.000000000000000000, 0.000000000000000000 ) ) ;
#581 = ORIENTED_EDGE ( 'NONE', *, *, #530, .T. ) ;
#582 = ORIENTED_EDGE ( 'NONE', *, *, #273, .F. ) ;
#583 = ORIENTED_EDGE ( 'NONE', *, *, #292, .F. ) ;
#584 = CARTESIAN_POINT ( 'NONE',  ( 5.000000000000000000, -10.42500000000000604, 12.95000000000000284 ) ) ;
#585 = CIRCLE ( 'NONE', #121, 2.049999999999999822 ) ;
#586 = DIRECTION ( 'NONE',  ( 0.000000000000000000, 0.000000000000000000, -1.000000000000000000 ) ) ;
#587 = LINE ( 'NONE', #98, #20 ) ;
#588 =( GEOMETRIC_REPRESENTATION_CONTEXT ( 3 ) GLOBAL_UNCERTAINTY_ASSIGNED_CONTEXT ( ( #47 ) ) GLOBAL_UNIT_ASSIGNED_CONTEXT ( ( #555, #118, #217 ) ) REPRESENTATION_CONTEXT ( 'NONE', 'WORKASPACE' ) );
#589 = DIRECTION ( 'NONE',  ( -1.000000000000000000, -0.000000000000000000, -0.000000000000000000 ) ) ;
#590 = ORIENTED_EDGE ( 'NONE', *, *, #419, .F. ) ;
#591 = FACE_OUTER_BOUND ( 'NONE', #376, .T. ) ;
#592 = FACE_OUTER_BOUND ( 'NONE', #407, .T. ) ;
#593 = ORIENTED_EDGE ( 'NONE', *, *, #549, .T. ) ;
#594 = LINE ( 'NONE', #105, #150 ) ;
#595 = DIRECTION ( 'NONE',  ( 0.000000000000000000, -1.239088197126291063E-16, 1.000000000000000000 ) ) ;
#596 = ORIENTED_EDGE ( 'NONE', *, *, #195, .T. ) ;
#597 = CYLINDRICAL_SURFACE ( 'NONE', #381, 1.049999999999998934 ) ;
#598 = CARTESIAN_POINT ( 'NONE',  ( 0.000000000000000000, -26.75000000000001066, 30.00000000000000000 ) ) ;
#599 = ADVANCED_FACE ( 'NONE', ( #340 ), #91, .F. ) ;
#600 = ORIENTED_EDGE ( 'NONE', *, *, #61, .F. ) ;
#601 = DIRECTION ( 'NONE',  ( 0.000000000000000000, 0.000000000000000000, 1.000000000000000000 ) ) ;
#602 = CARTESIAN_POINT ( 'NONE',  ( 5.000000000000000000, 1.574999999999995071, -23.54999999999999716 ) ) ;
#603 = EDGE_LOOP ( 'NONE', ( #19, #35 ) ) ;
#604 = DIRECTION ( 'NONE',  ( 1.000000000000000000, 0.000000000000000000, 0.000000000000000000 ) ) ;
#605 = CARTESIAN_POINT ( 'NONE',  ( 0.000000000000000000, -10.42500000000000426, -12.94999999999999574 ) ) ;
#606 = ORIENTED_EDGE ( 'NONE', *, *, #549, .F. ) ;
#607 = EDGE_CURVE ( 'NONE', #449, #204, #162, .T. ) ;
#608 = CARTESIAN_POINT ( 'NONE',  ( 0.000000000000000000, -26.75000000000000355, -27.99999999999999645 ) ) ;
#609 = DIRECTION ( 'NONE',  ( -0.000000000000000000, -1.000000000000000000, -0.000000000000000000 ) ) ;
#610 = ORIENTED_EDGE ( 'NONE', *, *, #64, .F. ) ;
#611 = DIRECTION ( 'NONE',  ( 0.000000000000000000, 0.000000000000000000, 1.000000000000000000 ) ) ;
#612 = ORIENTED_EDGE ( 'NONE', *, *, #380, .F. ) ;
#613 = DIRECTION ( 'NONE',  ( -1.000000000000000000, 0.000000000000000000, -0.000000000000000000 ) ) ;
#614 = CARTESIAN_POINT ( 'NONE',  ( 0.000000000000000000, 0.000000000000000000, 0.000000000000000000 ) ) ;
#615 = VERTEX_POINT ( 'NONE', #88 ) ;
#616 = AXIS2_PLACEMENT_3D ( 'NONE', #338, #617, #522 ) ;
#617 = DIRECTION ( 'NONE',  ( 1.000000000000000000, 0.000000000000000000, 0.000000000000000000 ) ) ;
#618 = AXIS2_PLACEMENT_3D ( 'NONE', #152, #109, #497 ) ;
#619 = CARTESIAN_POINT ( 'NONE',  ( 0.000000000000000000, -26.75000000000001066, 30.00000000000000000 ) ) ;
#620 = ORIENTED_EDGE ( 'NONE', *, *, #86, .F. ) ;
#621 = CARTESIAN_POINT ( 'NONE',  ( 5.000000000000000000, 1.574999999999994849, -21.44999999999999929 ) ) ;
#622 = ORIENTED_EDGE ( 'NONE', *, *, #553, .T. ) ;
#623 = ADVANCED_FACE ( 'NONE', ( #191 ), #570, .T. ) ;
ENDSEC;
END-ISO-10303-21;
